<svg width="96" height="96" viewBox="0 0 96 96" fill="none" xmlns="http://www.w3.org/2000/svg">
<path d="M62.142 35.858C62.654 35.858 63.166 35.663 63.556 35.272L66.385 32.443C67.166 31.662 67.166 30.396 66.385 29.615C65.604 28.834 64.337 28.834 63.557 29.615L60.728 32.444C59.947 33.225 59.947 34.491 60.728 35.272C61.118 35.663 61.63 35.858 62.142 35.858ZM30 48C30 46.896 29.104 46 28 46H24C22.896 46 22 46.896 22 48C22 49.104 22.896 50 24 50H28C29.104 50 30 49.104 30 48ZM32.444 60.728L29.615 63.557C28.834 64.338 28.834 65.604 29.615 66.385C30.005 66.776 30.517 66.971 31.029 66.971C31.541 66.971 32.053 66.776 32.443 66.385L35.272 63.556C36.053 62.775 36.053 61.509 35.272 60.728C34.492 59.947 33.224 59.947 32.444 60.728ZM32.444 35.272C32.834 35.663 33.346 35.858 33.858 35.858C34.37 35.858 34.882 35.663 35.272 35.272C36.053 34.491 36.053 33.225 35.272 32.444L32.443 29.615C31.663 28.834 30.395 28.834 29.615 29.615C28.834 30.396 28.834 31.662 29.615 32.443L32.444 35.272ZM48 30C49.104 30 50 29.104 50 28V24C50 22.896 49.104 22 48 22C46.896 22 46 22.896 46 24V28C46 29.104 46.896 30 48 30ZM72 46H68C66.896 46 66 46.896 66 48C66 49.104 66.896 50 68 50H72C73.104 50 74 49.104 74 48C74 46.896 73.104 46 72 46ZM63.556 60.728C62.776 59.947 61.508 59.947 60.728 60.728C59.947 61.509 59.947 62.775 60.728 63.556L63.557 66.385C63.947 66.776 64.459 66.971 64.971 66.971C65.483 66.971 65.994 66.776 66.385 66.385C67.166 65.604 67.166 64.338 66.385 63.557L63.556 60.728ZM48 66C46.896 66 46 66.896 46 68V72C46 73.104 46.896 74 48 74C49.104 74 50 73.104 50 72V68C50 66.896 49.104 66 48 66ZM48 34C40.28 34 34 40.28 34 48C34 55.72 40.28 62 48 62C55.72 62 62 55.72 62 48C62 40.28 55.72 34 48 34ZM48 58C42.486 58 38 53.514 38 48C38 42.486 42.486 38 48 38C53.514 38 58 42.486 58 48C58 53.514 53.514 58 48 58Z" fill="#F1D624"/>
</svg>
