<svg width="96" height="96" viewBox="0 0 96 96" fill="none" xmlns="http://www.w3.org/2000/svg">
<path d="M68.555 54.187C69.5 52.271 69.999 50.166 69.999 48C69.999 40.28 63.719 34 55.999 34C51.398 34 47.104 36.281 44.503 40.021C44.335 40.016 44.169 40 44 40C36.336 40 29.781 45.012 27.689 52.184C27.112 52.079 26.507 52 26 52C19.934 52 15 56.935 15 63C15 69.065 19.934 74 26 74H62C68.065 74 73 69.065 73 63C73 59.392 71.246 56.194 68.555 54.187ZM55.999 38C61.513 38 65.999 42.486 65.999 48C65.999 49.548 65.639 51.05 64.963 52.417C64.018 52.152 63.027 52 62 52C61.492 52 60.888 52.079 60.31 52.184C58.702 46.673 54.456 42.449 49.1 40.783C50.938 39.03 53.396 38 55.999 38ZM62 70H26C22.141 70 19 66.859 19 63C19 59.141 22.141 56 26 56C26.277 56 26.723 56.068 27.193 56.162V58C27.193 59.104 28.089 60 29.193 60C30.297 60 31.193 59.104 31.193 58V54.781C32.266 48.528 37.629 44 44 44C50.372 44 55.736 48.53 56.807 54.786V58C56.807 59.104 57.703 60 58.807 60C59.911 60 60.807 59.104 60.807 58V56.163C61.278 56.069 61.726 56 62 56C65.859 56 69 59.141 69 63C69 66.859 65.859 70 62 70Z" fill="#F1D624"/>
<path d="M55.999 30C57.103 30 57.999 29.104 57.999 28V24C57.999 22.896 57.103 22 55.999 22C54.894 22 53.999 22.896 53.999 24V28C53.999 29.104 54.894 30 55.999 30Z" fill="#F1D624"/>
<path d="M79.999 46H75.999C74.894 46 73.999 46.896 73.999 48C73.999 49.104 74.894 50 75.999 50H79.999C81.103 50 81.999 49.104 81.999 48C81.999 46.896 81.103 46 79.999 46Z" fill="#F1D624"/>
<path d="M70.142 35.857C70.654 35.857 71.165 35.662 71.556 35.271L74.384 32.443C75.165 31.662 75.165 30.396 74.384 29.615C73.603 28.834 72.337 28.834 71.556 29.615L68.728 32.443C67.947 33.224 67.947 34.49 68.728 35.271C69.118 35.662 69.63 35.857 70.142 35.857Z" fill="#F1D624"/>
<path d="M40.442 35.271C40.833 35.662 41.344 35.857 41.856 35.857C42.368 35.857 42.879 35.662 43.27 35.271C44.051 34.49 44.051 33.224 43.27 32.443L40.442 29.615C39.661 28.834 38.395 28.834 37.614 29.615C36.833 30.396 36.833 31.662 37.614 32.443L40.442 35.271Z" fill="#F1D624"/>
</svg>
