<svg width="96" height="96" viewBox="0 0 96 96" fill="none" xmlns="http://www.w3.org/2000/svg">
<path d="M69.24 40.488C72.173 37.886 74 34.094 74 30C74 28.896 73.104 28 72 28C66.486 28 62 23.514 62 18C62 16.896 61.104 16 60 16C52.922 16 47.069 21.284 46.143 28.111C39.295 28.848 33.61 33.599 31.689 40.183C31.112 40.079 30.507 40 30 40C23.935 40 19 44.935 19 51C19 57.065 23.935 62 30 62H66C72.065 62 77 57.065 77 51C77 46.062 73.728 41.875 69.24 40.488ZM58.168 20.168C59.102 26.153 63.843 30.896 69.828 31.832C69.213 35.078 66.988 37.838 63.966 39.158C61.812 33.21 56.519 28.952 50.174 28.15C50.933 24.111 54.126 20.92 58.168 20.168ZM66 58H30C26.141 58 23 54.859 23 51C23 47.141 26.141 44 30 44C30.277 44 30.724 44.068 31.194 44.162V46C31.194 47.104 32.09 48 33.194 48C34.298 48 35.194 47.104 35.194 46V42.776C36.269 36.525 41.631 32 48 32C54.372 32 59.736 36.53 60.808 42.787V46C60.808 47.104 61.704 48 62.808 48C63.912 48 64.808 47.104 64.808 46V44.163C65.278 44.069 65.726 44 66 44C69.859 44 73 47.141 73 51C73 54.859 69.859 58 66 58Z" fill="#1172AE"/>
</svg>
