<svg width="96" height="96" viewBox="0 0 96 96" fill="none" xmlns="http://www.w3.org/2000/svg">
<path d="M66 40C65.493 40 64.888 40.079 64.312 40.184C62.218 33.012 55.663 28 48 28C40.336 28 33.782 33.012 31.688 40.184C31.112 40.079 30.507 40 30 40C23.935 40 19 44.935 19 51C19 57.065 23.935 62 30 62H66C72.065 62 77 57.065 77 51C77 44.935 72.065 40 66 40ZM66 58H30C26.14 58 23 54.859 23 51C23 47.141 26.14 44 30 44C30.277 44 30.723 44.068 31.194 44.162V46C31.194 47.104 32.09 48 33.194 48C34.298 48 35.194 47.104 35.194 46V42.774C36.27 36.524 41.632 32 48 32C54.371 32 59.735 36.529 60.808 42.784V46C60.808 47.104 61.704 48 62.808 48C63.913 48 64.808 47.104 64.808 46V44.163C65.278 44.069 65.726 44 66 44C69.859 44 73 47.141 73 51C73 54.859 69.859 58 66 58Z" fill="white"/>
</svg>
