<svg width="96" height="96" viewBox="0 0 96 96" fill="none" xmlns="http://www.w3.org/2000/svg">
<path d="M48 77C46.895 77 46 78.896 46 80V84C46 85.104 46.895 86 48 86C49.104 86 50 85.104 50 84V80C50 78.896 49.104 77 48 77ZM44.443 23.271C44.834 23.662 45.345 23.857 45.857 23.857C46.369 23.857 46.881 23.662 47.271 23.271C48.052 22.49 48.052 21.224 47.271 20.443L44.443 17.615C43.662 16.834 42.396 16.834 41.615 17.615C40.834 18.396 40.834 19.662 41.615 20.443L44.443 23.271ZM60 18C61.104 18 62 17.104 62 16V12C62 10.896 61.104 10 60 10C58.895 10 58 10.896 58 12V16C58 17.104 58.895 18 60 18ZM74.143 23.857C74.655 23.857 75.166 23.662 75.557 23.271L78.385 20.443C79.166 19.662 79.166 18.396 78.385 17.615C77.604 16.834 76.338 16.834 75.557 17.615L72.729 20.443C71.948 21.224 71.948 22.49 72.729 23.271C73.119 23.662 73.631 23.857 74.143 23.857ZM39 72C37.895 72 37 72.896 37 74V78C37 79.104 37.895 80 39 80C40.104 80 41 79.104 41 78V74C41 72.896 40.104 72 39 72ZM84 34H80C78.895 34 78 34.896 78 36C78 37.104 78.895 38 80 38H84C85.104 38 86 37.104 86 36C86 34.896 85.104 34 84 34ZM48 66C46.895 66 46 66.896 46 68V72C46 73.104 46.895 74 48 74C49.104 74 50 73.104 50 72V68C50 66.896 49.104 66 48 66ZM72.556 42.187C73.501 40.271 74 38.166 74 36C74 28.28 67.72 22 60 22C55.399 22 51.105 24.281 48.504 28.021C48.336 28.016 48.17 28 48.001 28C40.337 28 33.782 33.012 31.689 40.184C31.113 40.079 30.508 40 30.001 40C23.935 40 19.001 44.935 19.001 51C19.001 57.065 23.935 62 30.001 62H37V66C37 67.104 37.895 68 39 68C40.104 68 41 67.104 41 66V62H55V66C55 67.104 55.895 68 57 68C58.104 68 59 67.104 59 66V62H66.001C72.066 62 77.001 57.065 77.001 51C77.001 47.392 75.247 44.194 72.556 42.187ZM60 26C65.514 26 70 30.486 70 36C70 37.548 69.64 39.05 68.964 40.417C68.019 40.152 67.028 40 66.001 40C65.493 40 64.889 40.079 64.311 40.184C62.703 34.673 58.457 30.449 53.101 28.783C54.939 27.03 57.397 26 60 26ZM66.001 58H30.001C26.142 58 23.001 54.859 23.001 51C23.001 47.141 26.142 44 30.001 44C30.278 44 30.724 44.068 31.193 44.162V46C31.193 47.104 32.089 48 33.193 48C34.297 48 35.193 47.104 35.193 46V42.786C36.264 36.53 41.628 32 48.001 32C54.371 32 59.734 36.528 60.807 42.781V46C60.807 47.104 61.703 48 62.807 48C63.911 48 64.807 47.104 64.807 46V44.163C65.278 44.069 65.727 44 66.001 44C69.86 44 73.001 47.141 73.001 51C73.001 54.859 69.86 58 66.001 58ZM57 72C55.895 72 55 72.896 55 74V78C55 79.104 55.895 80 57 80C58.104 80 59 79.104 59 78V74C59 72.896 58.104 72 57 72Z" fill="#F1D624"/>
</svg>
