<svg xmlns="http://www.w3.org/2000/svg" width="96" height="96" fill="none" viewBox="0 0 96 96"><path fill="#1172AE" d="M69.24 40.488C72.173 37.886 74 34.094 74 30C74 28.896 73.104 28 72 28C66.486 28 62 23.514 62 18C62 16.896 61.104 16 60 16C52.922 16 47.07 21.284 46.143 28.111C39.295 28.849 33.61 33.6 31.688 40.184C31.112 40.079 30.507 40 30 40C23.935 40 19 44.935 19 51C19 57.065 23.935 62 30 62H37V66C37 67.104 37.896 68 39 68C40.104 68 41 67.104 41 66V62H55V66C55 67.104 55.896 68 57 68C58.104 68 59 67.104 59 66V62H66C72.065 62 77 57.065 77 51C77 46.062 73.729 41.875 69.24 40.488ZM58.167 20.168C59.102 26.153 63.843 30.896 69.828 31.832C69.213 35.078 66.988 37.838 63.966 39.158C61.811 33.21 56.518 28.952 50.174 28.15C50.933 24.111 54.125 20.92 58.167 20.168ZM66 58H30C26.14 58 23 54.859 23 51C23 47.141 26.14 44 30 44C30.277 44 30.723 44.068 31.193 44.162V46C31.193 47.104 32.089 48 33.193 48C34.297 48 35.193 47.104 35.193 46V42.779C36.268 36.527 41.63 32 48 32C54.369 32 59.732 36.527 60.807 42.779V46C60.807 47.104 61.703 48 62.807 48C63.911 48 64.807 47.104 64.807 46V44.163C65.277 44.069 65.726 44 66 44C69.859 44 73 47.141 73 51C73 54.859 69.859 58 66 58Z"/><path fill="#03B3FF" d="M48 66C46.896 66 46 66.896 46 68V72C46 73.104 46.896 74 48 74C49.104 74 50 73.104 50 72V68C50 66.896 49.104 66 48 66Z"/><path fill="#03B3FF" d="M48 78C46.896 78 46 78.896 46 80V84C46 85.104 46.896 86 48 86C49.104 86 50 85.104 50 84V80C50 78.896 49.104 78 48 78Z"/><path fill="#03B3FF" d="M39 72C37.896 72 37 72.896 37 74V78C37 79.104 37.896 80 39 80C40.104 80 41 79.104 41 78V74C41 72.896 40.104 72 39 72Z"/><path fill="#03B3FF" d="M57 72C55.896 72 55 72.896 55 74V78C55 79.104 55.896 80 57 80C58.104 80 59 79.104 59 78V74C59 72.896 58.104 72 57 72Z"/></svg>