<svg width="96" height="96" viewBox="0 0 96 96" fill="none" xmlns="http://www.w3.org/2000/svg">
<path d="M66 40C65.492 40 64.888 40.079 64.311 40.184C62.218 33.012 55.663 28 48 28C40.336 28 33.781 33.012 31.688 40.184C31.112 40.079 30.507 40 30 40C23.935 40 19 44.935 19 51C19 57.065 23.935 62 30 62H37V78C37 79.104 37.895 80 39 80C40.104 80 41 79.104 41 78V62H55V78C55 79.104 55.895 80 57 80C58.104 80 59 79.104 59 78V62H66C72.065 62 77 57.065 77 51C77 44.935 72.065 40 66 40ZM66 58H30C26.141 58 23 54.859 23 51C23 47.141 26.141 44 30 44C30.277 44 30.723 44.068 31.193 44.162V46C31.193 47.104 32.089 48 33.193 48C34.297 48 35.193 47.104 35.193 46V42.781C36.266 36.528 41.629 32 48 32C54.37 32 59.733 36.528 60.807 42.782V46C60.807 47.104 61.702 48 62.807 48C63.912 48 64.807 47.104 64.807 46V44.163C65.277 44.069 65.726 44 66 44C69.859 44 73 47.141 73 51C73 54.859 69.859 58 66 58Z" fill="white"/>
<path d="M48 64C46.895 64 46 64.896 46 66V84C46 85.104 46.895 86 48 86C49.104 86 50 85.104 50 84V66C50 64.896 49.104 64 48 64Z" fill="#1172AE"/>
</svg>
