<svg width="96" height="96" viewBox="0 0 96 96" fill="none" xmlns="http://www.w3.org/2000/svg">
<path d="M59.999 18C61.103 18 61.999 17.104 61.999 16V12C61.999 10.896 61.103 10 59.999 10C58.894 10 57.999 10.896 57.999 12V16C57.999 17.104 58.894 18 59.999 18ZM72.555 42.188C73.5 40.273 73.999 38.167 73.999 36C73.999 28.28 67.719 22 59.999 22C55.398 22 51.104 24.281 48.503 28.021C48.335 28.016 48.169 28 48 28C40.336 28 33.781 33.012 31.688 40.184C31.112 40.079 30.507 40 30 40C23.935 40 19 44.935 19 51C19 57.065 23.935 62 30 62H41.263L37.336 67.891C36.927 68.504 36.889 69.293 37.236 69.944C37.585 70.594 38.263 71 39 71H41.263L37.336 76.891C36.724 77.81 36.972 79.052 37.891 79.664C38.231 79.892 38.617 80 38.998 80C39.644 80 40.278 79.687 40.664 79.109L46.664 70.109C47.073 69.496 47.111 68.707 46.764 68.056C46.415 67.406 45.737 67 45 67H42.737L46.07 62H51.262L49.335 64.891C48.926 65.504 48.888 66.293 49.235 66.944C49.585 67.594 50.263 68 51 68H53.263L51.336 70.891C50.724 71.81 50.972 73.052 51.891 73.664C52.231 73.892 52.617 74 52.998 74C53.644 74 54.278 73.687 54.664 73.109L58.664 67.109C59.073 66.496 59.111 65.707 58.764 65.056C58.415 64.406 57.737 64 57 64H54.737L56.07 62H66C72.065 62 77 57.065 77 51C77 47.393 75.246 44.194 72.555 42.188ZM59.999 26C65.513 26 69.999 30.486 69.999 36C69.999 37.549 69.639 39.051 68.964 40.417C68.019 40.152 67.028 40 66 40C65.492 40 64.888 40.079 64.311 40.184C62.703 34.673 58.456 30.449 53.1 28.783C54.938 27.03 57.396 26 59.999 26ZM66 58H30C26.141 58 23 54.859 23 51C23 47.141 26.141 44 30 44C30.277 44 30.723 44.068 31.193 44.162V46C31.193 47.104 32.088 48 33.193 48C34.298 48 35.193 47.104 35.193 46V42.781C36.266 36.528 41.629 32 48 32C54.37 32 59.733 36.528 60.807 42.782V46C60.807 47.104 61.703 48 62.807 48C63.911 48 64.807 47.104 64.807 46V44.163C65.277 44.069 65.726 44 66 44C69.859 44 73 47.141 73 51C73 54.859 69.859 58 66 58ZM74.142 23.857C74.654 23.857 75.165 23.662 75.556 23.271L78.384 20.443C79.165 19.662 79.165 18.396 78.384 17.615C77.603 16.834 76.337 16.834 75.556 17.615L72.728 20.443C71.947 21.224 71.947 22.49 72.728 23.271C73.118 23.662 73.63 23.857 74.142 23.857ZM44.443 23.271C44.834 23.662 45.345 23.857 45.857 23.857C46.369 23.857 46.88 23.662 47.271 23.271C48.052 22.49 48.052 21.224 47.271 20.443L44.443 17.615C43.662 16.834 42.396 16.834 41.615 17.615C40.834 18.396 40.834 19.662 41.615 20.443L44.443 23.271ZM83.999 34H79.999C78.894 34 77.999 34.896 77.999 36C77.999 37.104 78.894 38 79.999 38H83.999C85.103 38 85.999 37.104 85.999 36C85.999 34.896 85.103 34 83.999 34Z" fill="#F1D624"/>
</svg>
