<svg width="96" height="96" viewBox="0 0 96 96" fill="none" xmlns="http://www.w3.org/2000/svg">
<path d="M58.24 40.488C61.173 37.886 63 34.094 63 30C63 28.896 62.104 28 61 28C55.486 28 51 23.514 51 18C51 16.896 50.104 16 49 16C41.922 16 36.069 21.284 35.143 28.111C28.295 28.848 22.61 33.599 20.689 40.183C20.112 40.079 19.507 40 19 40C12.935 40 8 44.935 8 51C8 57.065 12.935 62 19 62H30.263L26.336 67.891C25.927 68.504 25.889 69.293 26.236 69.944C26.585 70.594 27.263 71 28 71H30.263L26.336 76.891C25.724 77.81 25.972 79.052 26.891 79.664C27.231 79.892 27.617 80 27.998 80C28.644 80 29.278 79.687 29.664 79.109L35.664 70.109C36.073 69.496 36.111 68.707 35.764 68.056C35.415 67.406 34.737 67 34 67H31.737L35.07 62H40.262L38.335 64.891C37.926 65.504 37.888 66.293 38.235 66.944C38.585 67.594 39.263 68 40 68H42.263L40.336 70.891C39.724 71.81 39.972 73.052 40.891 73.664C41.231 73.892 41.617 74 41.998 74C42.644 74 43.278 73.687 43.664 73.109L47.664 67.109C48.073 66.496 48.111 65.707 47.764 65.056C47.415 64.406 46.737 64 46 64H43.737L45.07 62H55C61.065 62 66 57.065 66 51C66 46.062 62.728 41.875 58.24 40.488ZM47.168 20.168C48.102 26.153 52.843 30.896 58.828 31.832C58.213 35.078 55.988 37.838 52.966 39.158C50.812 33.21 45.519 28.952 39.174 28.15C39.933 24.111 43.126 20.92 47.168 20.168ZM55 58H19C15.141 58 12 54.859 12 51C12 47.141 15.141 44 19 44C19.277 44 19.723 44.068 20.193 44.162V46C20.193 47.104 21.089 48 22.193 48C23.297 48 24.193 47.104 24.193 46V42.781C25.266 36.528 30.629 32 37 32C43.37 32 48.733 36.528 49.807 42.782V46C49.807 47.104 50.703 48 51.807 48C52.911 48 53.807 47.104 53.807 46V44.163C54.277 44.069 54.726 44 55 44C58.859 44 62 47.141 62 51C62 54.859 58.859 58 55 58Z" fill="#1172AE"/>
</svg>
