<svg xmlns="http://www.w3.org/2000/svg" width="96" height="96" fill="none" viewBox="0 0 96 96"><path fill="#F1D624" d="M72.555 42.188C73.5 40.273 73.999 38.167 73.999 36C73.999 28.28 67.719 22 59.999 22C55.398 22 51.104 24.281 48.503 28.021C48.335 28.016 48.169 28 48 28C40.336 28 33.781 33.012 31.688 40.184C31.112 40.079 30.507 40 30 40C23.935 40 19 44.935 19 51C19 57.065 23.935 62 30 62C31.104 62 32 61.104 32 60C32 58.896 31.104 58 30 58C26.141 58 23 54.859 23 51C23 47.141 26.141 44 30 44C30.277 44 30.723 44.068 31.193 44.162V46C31.193 47.104 32.089 48 33.193 48C34.297 48 35.193 47.104 35.193 46V42.781C36.266 36.528 41.629 32 48 32C54.37 32 59.733 36.528 60.807 42.782V46C60.807 47.104 61.702 48 62.807 48C63.912 48 64.807 47.104 64.807 46V44.162C65.277 44.068 65.723 44 66 44C69.859 44 73 47.141 73 51C73 54.859 69.859 58 66 58C64.896 58 64 58.896 64 60C64 61.104 64.896 62 66 62C72.065 62 77 57.065 77 51C77 47.393 75.246 44.194 72.555 42.188ZM64.311 40.184C62.703 34.673 58.456 30.449 53.1 28.783C54.938 27.03 57.396 26 59.999 26C65.513 26 69.999 30.486 69.999 36C69.999 37.549 69.639 39.051 68.964 40.417C68.019 40.152 67.028 40 66 40C65.492 40 64.888 40.079 64.311 40.184Z"/><path fill="#F1D624" d="M59.999 18C61.103 18 61.999 17.104 61.999 16V12C61.999 10.896 61.103 10 59.999 10C58.894 10 57.999 10.896 57.999 12V16C57.999 17.104 58.894 18 59.999 18Z"/><path fill="#F1D624" d="M83.999 34H79.999C78.894 34 77.999 34.896 77.999 36C77.999 37.104 78.894 38 79.999 38H83.999C85.103 38 85.999 37.104 85.999 36C85.999 34.896 85.103 34 83.999 34Z"/><path fill="#F1D624" d="M74.142 23.857C74.654 23.857 75.165 23.662 75.556 23.271L78.384 20.443C79.165 19.662 79.165 18.396 78.384 17.615C77.603 16.834 76.337 16.834 75.556 17.615L72.728 20.443C71.947 21.224 71.947 22.49 72.728 23.271C73.118 23.662 73.63 23.857 74.142 23.857Z"/><path fill="#F1D624" d="M44.443 23.271C44.834 23.662 45.345 23.857 45.857 23.857C46.369 23.857 46.88 23.662 47.271 23.271C48.052 22.49 48.052 21.224 47.271 20.443L44.443 17.615C43.662 16.834 42.396 16.834 41.615 17.615C40.834 18.396 40.834 19.662 41.615 20.443L44.443 23.271Z"/><path fill="#fff" d="M45.732 62.464C45.178 61.508 43.959 61.178 43 61.731C42.044 62.284 41.716 63.506 42.268 64.463L43.268 66.195C43.639 66.837 44.311 67.195 45.002 67.195C45.341 67.195 45.685 67.109 46 66.927C46.956 66.374 47.284 65.152 46.732 64.195L45.732 62.464Z"/><path fill="#fff" d="M40.732 53.804C40.178 52.847 38.958 52.519 38 53.072C37.044 53.625 36.716 54.847 37.268 55.804L38.268 57.536C38.639 58.178 39.311 58.536 40.002 58.536C40.341 58.536 40.685 58.45 41 58.269C41.956 57.716 42.284 56.494 41.732 55.536L40.732 53.804Z"/><path fill="#fff" d="M43 58.269C43.315 58.451 43.659 58.536 43.998 58.536C44.689 58.536 45.361 58.178 45.732 57.536L46.732 55.804C47.284 54.847 46.956 53.624 46 53.072C45.04 52.519 43.82 52.847 43.268 53.804L42.268 55.536C41.716 56.493 42.044 57.716 43 58.269Z"/><path fill="#fff" d="M41 61.731C40.04 61.177 38.82 61.507 38.268 62.464L37.268 64.196C36.716 65.153 37.044 66.376 38 66.928C38.315 67.11 38.659 67.196 38.998 67.196C39.689 67.196 40.361 66.838 40.732 66.196L41.732 64.464C42.284 63.507 41.956 62.284 41 61.731Z"/><path fill="#fff" d="M40 60C40 58.896 39.104 58 38 58H36C34.895 58 34 58.896 34 60C34 61.104 34.895 62 36 62H38C39.104 62 40 61.104 40 60Z"/><path fill="#fff" d="M50 60C50 58.896 49.104 58 48 58H46C44.895 58 44 58.896 44 60C44 61.104 44.895 62 46 62H48C49.104 62 50 61.104 50 60Z"/><path fill="#fff" d="M60.732 71.268C60.178 70.312 58.959 69.983 58 70.536C57.044 71.089 56.716 72.311 57.268 73.268L58.268 75C58.639 75.642 59.311 76 60.002 76C60.341 76 60.685 75.914 61 75.732C61.956 75.179 62.284 73.957 61.732 73L60.732 71.268Z"/><path fill="#fff" d="M55.732 62.607C55.178 61.651 53.959 61.321 53 61.875C52.044 62.428 51.716 63.65 52.268 64.607L53.268 66.339C53.639 66.981 54.311 67.339 55.002 67.339C55.341 67.339 55.685 67.253 56 67.072C56.956 66.519 57.284 65.297 56.732 64.339L55.732 62.607Z"/><path fill="#fff" d="M58 67.072C58.315 67.254 58.659 67.339 58.998 67.339C59.689 67.339 60.361 66.981 60.732 66.339L61.732 64.607C62.284 63.65 61.956 62.427 61 61.875C60.04 61.321 58.819 61.651 58.268 62.607L57.268 64.339C56.716 65.297 57.044 66.52 58 67.072Z"/><path fill="#fff" d="M56 70.535C55.04 69.982 53.819 70.311 53.268 71.267L52.268 72.999C51.716 73.956 52.044 75.179 53 75.731C53.315 75.914 53.659 76 53.998 76C54.689 76 55.361 75.642 55.732 75L56.732 73.268C57.284 72.311 56.956 71.088 56 70.535Z"/><path fill="#fff" d="M55 68.804C55 67.7 54.104 66.804 53 66.804H51C49.895 66.804 49 67.7 49 68.804C49 69.908 49.895 70.804 51 70.804H53C54.104 70.804 55 69.908 55 68.804Z"/><path fill="#fff" d="M63 66.804H61C59.895 66.804 59 67.7 59 68.804C59 69.908 59.895 70.804 61 70.804H63C64.104 70.804 65 69.908 65 68.804C65 67.7 64.104 66.804 63 66.804Z"/></svg>