<svg width="96" height="96" viewBox="0 0 96 96" fill="none" xmlns="http://www.w3.org/2000/svg">
<path d="M69.24 40.488C72.173 37.886 74 34.094 74 30C74 28.896 73.104 28 72 28C66.486 28 62 23.514 62 18C62 16.896 61.104 16 60 16C52.922 16 47.069 21.284 46.143 28.111C39.295 28.848 33.61 33.599 31.689 40.183C31.112 40.079 30.507 40 30 40C23.935 40 19 44.935 19 51C19 57.065 23.935 62 30 62C31.104 62 32 61.104 32 60C32 58.896 31.104 58 30 58C26.141 58 23 54.859 23 51C23 47.141 26.141 44 30 44C30.277 44 30.723 44.068 31.193 44.162V46C31.193 47.104 32.088 48 33.193 48C34.298 48 35.193 47.104 35.193 46V42.781C36.266 36.528 41.629 32 48 32C54.37 32 59.733 36.528 60.807 42.782V46C60.807 47.104 61.703 48 62.807 48C63.911 48 64.807 47.104 64.807 46V44.162C65.277 44.068 65.723 44 66 44C69.859 44 73 47.141 73 51C73 54.859 69.859 58 66 58C64.895 58 64 58.896 64 60C64 61.104 64.895 62 66 62C72.065 62 77 57.065 77 51C77 46.062 73.728 41.875 69.24 40.488ZM50.174 28.15C50.933 24.111 54.126 20.92 58.168 20.168C59.102 26.153 63.843 30.896 69.828 31.832C69.213 35.078 66.988 37.838 63.966 39.158C61.811 33.21 56.519 28.952 50.174 28.15Z" fill="#1172AE"/>
<path d="M45.732 62.464C45.178 61.508 43.959 61.178 43 61.731C42.044 62.284 41.716 63.506 42.268 64.463L43.268 66.195C43.639 66.837 44.311 67.195 45.002 67.195C45.341 67.195 45.685 67.109 46 66.927C46.956 66.374 47.284 65.152 46.732 64.195L45.732 62.464Z" fill="white"/>
<path d="M40.732 53.804C40.178 52.847 38.959 52.519 38 53.072C37.044 53.625 36.716 54.847 37.268 55.804L38.268 57.536C38.639 58.178 39.311 58.536 40.002 58.536C40.341 58.536 40.685 58.45 41 58.269C41.956 57.716 42.284 56.494 41.732 55.536L40.732 53.804Z" fill="white"/>
<path d="M43 58.269C43.315 58.451 43.659 58.536 43.998 58.536C44.689 58.536 45.361 58.178 45.732 57.536L46.732 55.804C47.284 54.847 46.956 53.624 46 53.072C45.041 52.519 43.82 52.847 43.268 53.804L42.268 55.536C41.716 56.493 42.044 57.716 43 58.269Z" fill="white"/>
<path d="M41 61.731C40.041 61.177 38.82 61.507 38.268 62.464L37.268 64.196C36.716 65.153 37.044 66.376 38 66.928C38.315 67.11 38.659 67.196 38.998 67.196C39.689 67.196 40.361 66.838 40.732 66.196L41.732 64.464C42.284 63.507 41.956 62.284 41 61.731Z" fill="white"/>
<path d="M40 60C40 58.896 39.104 58 38 58H36C34.895 58 34 58.896 34 60C34 61.104 34.895 62 36 62H38C39.104 62 40 61.104 40 60Z" fill="white"/>
<path d="M50 60C50 58.896 49.104 58 48 58H46C44.895 58 44 58.896 44 60C44 61.104 44.895 62 46 62H48C49.104 62 50 61.104 50 60Z" fill="white"/>
<path d="M60.732 71.268C60.178 70.312 58.958 69.983 58 70.536C57.044 71.089 56.716 72.311 57.268 73.268L58.268 75C58.639 75.642 59.311 76 60.002 76C60.341 76 60.685 75.914 61 75.732C61.956 75.179 62.284 73.957 61.732 73L60.732 71.268Z" fill="white"/>
<path d="M55.732 62.607C55.178 61.651 53.958 61.321 53 61.875C52.044 62.428 51.716 63.65 52.268 64.607L53.268 66.339C53.639 66.981 54.311 67.339 55.002 67.339C55.341 67.339 55.685 67.253 56 67.072C56.956 66.519 57.284 65.297 56.732 64.339L55.732 62.607Z" fill="white"/>
<path d="M58 67.072C58.315 67.254 58.659 67.339 58.998 67.339C59.689 67.339 60.361 66.981 60.732 66.339L61.732 64.607C62.284 63.65 61.956 62.427 61 61.875C60.041 61.321 58.82 61.651 58.268 62.607L57.268 64.339C56.716 65.297 57.044 66.52 58 67.072Z" fill="white"/>
<path d="M56 70.535C55.041 69.982 53.82 70.311 53.268 71.267L52.268 72.999C51.716 73.956 52.044 75.179 53 75.731C53.315 75.914 53.659 76 53.998 76C54.689 76 55.361 75.642 55.732 75L56.732 73.268C57.284 72.311 56.956 71.088 56 70.535Z" fill="white"/>
<path d="M55 68.804C55 67.7 54.104 66.804 53 66.804H51C49.895 66.804 49 67.7 49 68.804C49 69.908 49.895 70.804 51 70.804H53C54.104 70.804 55 69.908 55 68.804Z" fill="white"/>
<path d="M63 66.804H61C59.895 66.804 59 67.7 59 68.804C59 69.908 59.895 70.804 61 70.804H63C64.104 70.804 65 69.908 65 68.804C65 67.7 64.104 66.804 63 66.804Z" fill="white"/>
</svg>
