<svg width="96" height="96" viewBox="0 0 96 96" fill="none" xmlns="http://www.w3.org/2000/svg">
<path d="M60 18C61.104 18 62 17.104 62 16V12C62 10.896 61.104 10 60 10C58.895 10 58 10.896 58 12V16C58 17.104 58.895 18 60 18Z" fill="#F1D624"/>
<path d="M84 34H80C78.895 34 78 34.896 78 36C78 37.104 78.895 38 80 38H84C85.104 38 86 37.104 86 36C86 34.896 85.104 34 84 34Z" fill="#F1D624"/>
<path d="M74.143 23.857C74.655 23.857 75.166 23.662 75.557 23.271L78.385 20.443C79.166 19.662 79.166 18.396 78.385 17.615C77.604 16.834 76.338 16.834 75.557 17.615L72.729 20.443C71.948 21.224 71.948 22.49 72.729 23.271C73.119 23.662 73.631 23.857 74.143 23.857Z" fill="#F1D624"/>
<path d="M44.443 23.271C44.834 23.662 45.345 23.857 45.857 23.857C46.369 23.857 46.88 23.662 47.271 23.271C48.052 22.49 48.052 21.224 47.271 20.443L44.443 17.615C43.662 16.834 42.396 16.834 41.615 17.615C40.834 18.396 40.834 19.662 41.615 20.443L44.443 23.271Z" fill="#F1D624"/>
<path d="M66 58L35.999 57.999L30 58C26.141 58 23 54.859 23 51C23 47.141 26.141 44 30 44C30.277 44 30.724 44.068 31.194 44.162V46C31.194 47.104 32.089 48 33.194 48C34.299 48 35.194 47.104 35.194 46V42.776C36.269 36.525 41.631 32 48 32C55.168 32 61 37.832 61 45V46C61 47.104 61.895 48 63 48C64.104 48 65 47.104 65 46V45C65 37.402 59.989 30.955 53.1 28.784C54.937 27.031 57.396 26 60 26C65.514 26 70 30.486 70 36C70 37.389 69.708 38.752 69.157 40.009C69.104 40.008 69.053 40 69 40C67.895 40 67 40.896 67 42C67 43.104 67.895 44 69 44C70.222 44 71.36 44.548 72.124 45.503C72.697 46.219 73 47.082 73 48C73 50.206 71.206 52 69 52H48C46.895 52 46 52.896 46 54C46 55.104 46.895 56 48 56H69C73.411 56 77 52.411 77 48C77 46.19 76.377 44.416 75.248 43.004C74.623 42.223 73.868 41.587 73.033 41.098C73.664 39.482 74 37.755 74 36C74 28.28 67.72 22 60 22C55.397 22 51.102 24.283 48.5 28.025C48.333 28.021 48.169 28 48 28C40.336 28 33.781 33.012 31.688 40.184C31.112 40.079 30.507 40 30 40C23.935 40 19 44.935 19 51C19 57.065 23.935 62 30 62L35.999 61.999L66 62C69.859 62 73 65.141 73 69C73 70.104 73.895 71 75 71C76.104 71 77 70.104 77 69C77 62.935 72.065 58 66 58Z" fill="#F1D624"/>
<path d="M65.999 64H30C28.895 64 28 64.896 28 66C28 67.104 28.895 68 30 68H65.999C66.551 68 66.999 68.448 66.999 69C66.999 69.552 66.551 70 65.999 70C64.894 70 63.999 70.896 63.999 72C63.999 73.104 64.894 74 65.999 74C68.756 74 70.999 71.757 70.999 69C70.999 66.243 68.756 64 65.999 64Z" fill="white"/>
<path d="M80 50C78.895 50 78 50.896 78 52C78 53.104 78.895 54 80 54C80.552 54 81 54.448 81 55C81 55.552 80.552 56 80 56H76C74.895 56 74 56.896 74 58C74 59.104 74.895 60 76 60H80C82.757 60 85 57.757 85 55C85 52.243 82.757 50 80 50Z" fill="white"/>
</svg>
