<svg width="96" height="96" viewBox="0 0 96 96" fill="none" xmlns="http://www.w3.org/2000/svg">
<path d="M71.83 42.343C71.049 43.124 71.049 44.39 71.829 45.171C72.584 45.927 72.999 46.931 72.999 48C72.999 50.206 71.205 52 68.999 52L47.999 51.999C46.894 51.999 45.999 52.895 45.999 53.999C45.999 55.103 46.894 55.999 47.999 55.999L68.999 56C73.41 56 76.999 52.411 76.999 48C76.999 45.863 76.168 43.854 74.659 42.344C73.878 41.563 72.611 41.563 71.83 42.343Z" fill="white"/>
<path d="M65.999 58L35.998 57.999L29.999 58C26.14 58 22.999 54.859 22.999 51C22.999 47.141 26.14 44 29.999 44C30.276 44 30.723 44.068 31.193 44.162V46C31.193 47.104 32.089 48 33.193 48C34.297 48 35.193 47.104 35.193 46V42.776C36.268 36.525 41.63 32 47.999 32C55.167 32 60.999 37.832 60.999 45V46C60.999 47.104 61.894 48 62.999 48C64.103 48 64.999 47.104 64.999 46V45C64.999 44.359 64.956 43.729 64.887 43.106C70.26 41.09 73.999 35.855 73.999 30C73.999 28.896 73.103 28 71.999 28C66.485 28 61.999 23.514 61.999 18C61.999 16.896 61.103 16 59.999 16C52.921 16 47.068 21.284 46.142 28.111C39.294 28.848 33.609 33.599 31.688 40.183C31.111 40.079 30.506 40 29.999 40C23.934 40 18.999 44.935 18.999 51C18.999 57.065 23.934 62 29.999 62L35.998 61.999L65.999 62C69.858 62 72.999 65.141 72.999 69C72.999 70.104 73.894 71 74.999 71C76.103 71 76.999 70.104 76.999 69C76.999 62.935 72.064 58 65.999 58ZM58.167 20.168C59.101 26.153 63.842 30.896 69.827 31.832C69.211 35.085 66.977 37.851 63.946 39.167C61.8 33.317 56.538 28.973 50.172 28.154C50.929 24.113 54.123 20.92 58.167 20.168Z" fill="#1172AE"/>
<path d="M65.998 64H29.999C28.894 64 27.999 64.896 27.999 66C27.999 67.104 28.894 68 29.999 68H65.998C66.55 68 66.998 68.448 66.998 69C66.998 69.552 66.55 70 65.998 70C64.893 70 63.998 70.896 63.998 72C63.998 73.104 64.893 74 65.998 74C68.755 74 70.998 71.757 70.998 69C70.998 66.243 68.755 64 65.998 64Z" fill="white"/>
<path d="M79.999 50C78.894 50 77.999 50.896 77.999 52C77.999 53.104 78.894 54 79.999 54C80.551 54 80.999 54.448 80.999 55C80.999 55.552 80.551 56 79.999 56H75.999C74.894 56 73.999 56.896 73.999 58C73.999 59.104 74.894 60 75.999 60H79.999C82.756 60 84.999 57.757 84.999 55C84.999 52.243 82.756 50 79.999 50Z" fill="white"/>
</svg>
