<svg xmlns="http://www.w3.org/2000/svg" width="36" height="36" fill="none" viewBox="0 0 36 36"><circle cx="18" cy="18" r="17.5" fill="#fff" stroke="#06283D"/><g clip-path="url(#clip0_31_1161)"><path fill="#06283D" d="M17.9989 9C13.0298 9 9.00001 13.0455 9.00001 18.036C8.99797 19.93 9.59121 21.7767 10.6959 23.3152C11.8005 24.8537 13.3607 26.0061 15.156 26.6096C15.606 26.6929 15.7703 26.4139 15.7703 26.1742C15.7703 25.9594 15.7624 25.3912 15.7579 24.6375C13.2548 25.1831 12.726 23.4259 12.726 23.4259C12.3176 22.3819 11.727 22.104 11.727 22.104C10.9091 21.5437 11.7878 21.555 11.7878 21.555C12.6911 21.6191 13.1659 22.4865 13.1659 22.4865C13.9691 23.8669 15.273 23.4686 15.786 23.2369C15.867 22.653 16.0999 22.2548 16.3575 22.0286C14.3595 21.8003 12.258 21.0251 12.258 17.5635C12.258 16.5769 12.609 15.7702 13.185 15.138C13.0916 14.9096 12.7834 13.9905 13.2728 12.7474C13.2728 12.7474 14.0288 12.5044 15.7478 13.6732C16.4821 13.4726 17.2399 13.3704 18.0011 13.3695C18.7624 13.371 19.5202 13.4735 20.2545 13.6744C21.9724 12.5055 22.7273 12.7485 22.7273 12.7485C23.2178 13.9928 22.9095 14.9107 22.8173 15.1391C23.3944 15.7714 23.742 16.578 23.742 17.5646C23.742 21.0352 21.6383 21.7991 19.6335 22.023C19.9564 22.302 20.2444 22.8532 20.2444 23.6959C20.2444 24.9041 20.2331 25.8784 20.2331 26.1742C20.2331 26.4161 20.3951 26.6974 20.8519 26.6085C22.6454 26.0036 24.2037 24.8507 25.3068 23.3126C26.4099 21.7745 27.0022 19.9288 27 18.036C27 13.0455 22.9703 9 17.9989 9Z"/></g><defs><clipPath id="clip0_31_1161"><rect width="18" height="18" fill="#fff" transform="translate(9 9)"/></clipPath></defs></svg>