<svg xmlns="http://www.w3.org/2000/svg" width="36" height="36" fill="none" viewBox="0 0 36 36"><circle cx="18" cy="18" r="17.5" fill="#fff" stroke="#06283D"/><g clip-path="url(#clip0_31_1157)"><path fill="#06283D" d="M13.0862 26.8051V15.1962H9.22757V26.8051H13.0862ZM11.1577 13.6114C12.5029 13.6114 13.3406 12.7201 13.3406 11.6059C13.3153 10.4669 12.5029 9.6001 11.1833 9.6001C9.86369 9.6001 9 10.4669 9 11.6059C9 12.7201 9.83728 13.6114 11.1324 13.6114H11.1577ZM15.2217 26.8051H19.08V20.3228C19.08 19.9764 19.1056 19.6292 19.2074 19.3815C19.4862 18.6879 20.1212 17.9702 21.188 17.9702C22.5837 17.9702 23.1425 19.0347 23.1425 20.5954V26.8051H27.0008V20.1488C27.0008 16.5834 25.0979 14.924 22.5588 14.924C20.4777 14.924 19.5635 16.089 19.0555 16.8797H19.0812V15.1966H15.2229C15.2734 16.284 15.2229 26.8055 15.2229 26.8055L15.2217 26.8051Z"/></g><defs><clipPath id="clip0_31_1157"><rect width="18" height="17.205" fill="#fff" transform="translate(9 9.6001)"/></clipPath></defs></svg>