<svg xmlns="http://www.w3.org/2000/svg" xmlns:svgjs="http://svgjs.com/svgjs" xmlns:xlink="http://www.w3.org/1999/xlink" width="512" height="512" x="0" y="0" version="1.1" viewBox="0 0 60 60" style="enable-background:new 0 0 512 512" xml:space="preserve"><g><path fill="#d5e7f7" d="m14.192 59.47a.5.5 0 0 1 -.258-.928l1.484-.9-3.044 1.758a.5.5 0 0 1 -.514-.857l20.5-12.735-23.542 13.592a.5.5 0 0 1 -.512-.858l20.983-12.936-23.896 13.794a.5.5 0 0 1 -.513-.858l25.463-15.735-28.175 16.266a.5.5 0 0 1 -.509-.86l13.235-7.99-13.52 7.805a.5.5 0 0 1 -.511-.859l24.9-15.245-24.483 14.132a.5.5 0 0 1 -.51-.86l24.03-14.691-23.52 13.578a.5.5 0 0 1 -.511-.858l27.792-17.111-27.281 15.75a.5.5 0 0 1 -.509-.864l19.37-11.763-18.861 10.893a.5.5 0 0 1 -.51-.859l22.375-13.645-21.865 12.623a.5.5 0 0 1 -.508-.86l12.872-7.762-12.364 7.138a.5.5 0 0 1 -.509-.865l19.216-11.664-18.707 10.801a.5.5 0 0 1 -.509-.86l15.445-9.337-14.936 8.623a.5.5 0 0 1 -.509-.86l18.662-11.323-18.153 10.48a.5.5 0 0 1 -.51-.86l24.1-14.734-23.59 13.617a.5.5 0 0 1 -.51-.859l24.113-14.745-23.603 13.627a.5.5 0 0 1 -.509-.861l15.578-9.419-15.069 8.7a.5.5 0 0 1 -.509-.861l14.429-8.723-13.92 8.038a.5.5 0 0 1 -.509-.861l16.47-10.007-15.961 9.215a.5.5 0 0 1 -.513-.857l24.285-15.076-23.772 13.723a.5.5 0 0 1 -.511-.858l17.692-10.9-17.181 9.922a.5.5 0 0 1 -.51-.859l9.837-6-9.327 5.383a.5.5 0 0 1 -.513-.858l15.112-9.375-14.599 8.428a.5.5 0 0 1 -.517-.855l17.257-10.907-16.74 9.662a.5.5 0 0 1 -.515-.856l12.693-7.979-12.178 7.035a.5.5 0 0 1 -.514-.858l7.469-4.654-6.955 4.012a.5.5 0 0 1 -.515-.857l6.817-4.273-6.3 3.638a.5.5 0 0 1 -.522-.852l11.009-7.169-10.489 6.054a.5.5 0 0 1 -.518-.855l5.1-3.253-4.582 2.644a.5.5 0 0 1 -.523-.852l6.215-4.063-5.692 3.285a.5.5 0 0 1 -.539-.841l8.569-6.074-8.03 4.636a.5.5 0 0 1 -.541-.84l5.606-4-5.065 2.919a.5.5 0 0 1 -.557-.827l4.69-3.658-4.133 2.386a.5.5 0 0 1 -.66-.148.5.5 0 0 1 .092-.67l2.643-2.187-2.075 1.199a.5.5 0 0 1 -.585-.8l1.116-1.01-.531.306a.5.5 0 0 1 -.654-.727l.67-.923a.5.5 0 0 1 -.23-.932l1.656-.956a.5.5 0 0 1 .654.726l-.56.771 2.598-1.497a.5.5 0 0 1 .586.8l-1.113 1 3.131-1.8a.5.5 0 0 1 .568.818l-2.644 2.182 5.2-3a.5.5 0 0 1 .558.827l-4.688 3.657 7.771-4.484a.5.5 0 0 1 .541.84l-5.6 4 8.384-4.84a.5.5 0 0 1 .539.84l-8.571 6.075 11.982-6.915a.5.5 0 0 1 .523.851l-6.211 4.059 8.51-4.91a.5.5 0 0 1 .518.854l-5.098 3.246 7.115-4.1a.5.5 0 0 1 .522.851l-11.011 7.169 13.896-8.02a.5.5 0 0 1 .516.856l-6.823 4.276 8.894-5.132a.5.5 0 0 1 .515.857l-7.467 4.651 9.543-5.508a.5.5 0 0 1 .516.855l-12.693 7.979 15.305-8.834a.5.5 0 0 1 .518.855l-17.246 10.901 20.362-11.756a.5.5 0 0 1 .513.857l-15.128 9.382 17.741-10.239a.5.5 0 0 1 .51.859l-9.838 6 11.885-6.859a.5.5 0 0 1 .512.858l-17.689 10.9 20.357-11.758a.5.5 0 0 1 .514.857l-24.281 15.071 27.594-15.928a.5.5 0 0 1 .51.86l-16.462 10 18.289-10.56a.5.5 0 0 1 .509.861l-14.448 8.733 14.774-8.529a.5.5 0 0 1 .509.86l-15.566 9.412 15.153-8.748a.5.5 0 0 1 .51.86l-24.1 14.734 23.59-13.617a.5.5 0 0 1 .51.859l-24.113 14.745 23.603-13.627a.5.5 0 0 1 .509.861l-18.639 11.308 18.13-10.466a.5.5 0 0 1 .509.86l-15.445 9.337 14.936-8.623a.5.5 0 0 1 .509.86l-19.216 11.668 18.707-10.8a.5.5 0 0 1 .508.861l-12.9 7.78 12.392-7.156a.5.5 0 0 1 .51.859l-22.375 13.645 21.865-12.624a.5.5 0 0 1 .509.861l-19.347 11.749 18.838-10.876a.5.5 0 0 1 .511.858l-27.791 17.111 27.28-15.75a.5.5 0 0 1 .51.859l-24.03 14.691 23.52-13.578a.5.5 0 0 1 .51.86l-24.9 15.251 24.39-14.083a.5.5 0 0 1 .509.86l-13.252 8 12.743-7.356a.5.5 0 0 1 .512.858l-25.458 15.733 24.946-14.401a.5.5 0 0 1 .512.858l-20.992 12.944 20.48-11.824a.5.5 0 0 1 .513.858l-20.488 12.726 19.975-11.532a.5.5 0 0 1 .509.861l-1.527.921 1.018-.586a.5.5 0 0 1 .509.86l-2.82 1.709 2.311-1.333a.5.5 0 0 1 .511.858l-8.01 4.913 7.5-4.329a.5.5 0 0 1 .517.856l-15.528 9.812 15.01-8.666a.5.5 0 0 1 .513.858l-7.783 4.835 7.27-4.2a.5.5 0 0 1 .523.852l-14.786 9.648 14.263-8.233a.5.5 0 0 1 .515.856l-4.762 2.99 4.247-2.452a.5.5 0 0 1 .528.848l-11.334 7.579 10.806-6.238a.5.5 0 0 1 .533.845l-9.678 6.658 9.145-5.279a.5.5 0 0 1 .525.849l-3.5 2.311 2.98-1.72a.5.5 0 0 1 .535.843l-4.882 3.4 4.342-2.516a.5.5 0 0 1 .532.846l-1.419.969.887-.512a.5.5 0 0 1 .56.824l-3.646 2.887 3.086-1.781a.5.5 0 0 1 .563.822l-1.427 1.15.864-.5a.5.5 0 0 1 .631.756l-1.3 1.526.653-.377a.5.5 0 1 1 .5.865l-3.15 1.825a.5.5 0 0 1 -.631-.756l1.3-1.527-3.958 2.283a.5.5 0 0 1 -.564-.822l1.428-1.149-3.417 1.971a.5.5 0 0 1 -.561-.824l3.649-2.884-6.43 3.708a.5.5 0 0 1 -.532-.845l1.417-.967-3.141 1.812a.5.5 0 0 1 -.535-.842l4.882-3.4-7.346 4.242a.5.5 0 0 1 -.525-.849l3.51-2.31-5.48 3.159a.5.5 0 0 1 -.533-.844l9.679-6.656-13 7.5a.5.5 0 0 1 -.529-.848l11.333-7.578-14.593 8.426a.5.5 0 0 1 -.516-.856l4.766-2.991-6.665 3.847a.5.5 0 0 1 -.523-.851l14.789-9.649-18.187 10.5a.5.5 0 0 1 -.514-.857l7.773-4.824-9.849 5.681a.5.5 0 0 1 -.518-.855l15.529-9.814-18.479 10.669a.5.5 0 0 1 -.512-.858l8.009-4.912-9.995 5.77a.5.5 0 0 1 -.509-.86l2.841-1.723-4.475 2.583a.5.5 0 0 1 -.25.07z" data-original="#d5e7f7"/><path fill="#cd4c60" d="m49.715 14.284a.5.5 0 0 1 -.324-.881l.706-.6-1.015.585a.5.5 0 0 1 -.573-.815l1.787-1.51-2.285 1.319a.5.5 0 0 1 -.6-.791l2.944-2.86-3.855 2.228a.5.5 0 0 1 -.6-.794l.579-.555-.813.47a.5.5 0 0 1 -.595-.795l.413-.392-.19.107a.5.5 0 0 1 -.623-.766l.566-.633a.5.5 0 0 1 -.071-.9l1.884-1.085a.5.5 0 0 1 .623.766l-.174.193 1.132-.652a.5.5 0 0 1 .595.8l-.414.392.762-.439a.5.5 0 0 1 .6.794l-.578.554 3.75-2.165a.5.5 0 0 1 .6.791l-2.946 2.85 3.645-2.1a.5.5 0 0 1 .573.815l-1.79 1.51.919-.531a.5.5 0 0 1 .574.814l-3.247 2.764a.5.5 0 0 1 -.226.588l-1.483.857a.489.489 0 0 1 -.25.067z" data-original="#cd4c60"/><path fill="#cd4c60" d="m29.74 34.308a.5.5 0 0 1 -.354-.853l2.573-2.591-3.445 1.99a.5.5 0 0 1 -.554-.831l.35-.266-.6.344a.5.5 0 0 1 -.563-.824l1.338-1.071-1.73 1a.5.5 0 0 1 -.578-.81l1.466-1.272-1.892 1.092a.5.5 0 0 1 -.589-.8l.26-.239-.105.06a.5.5 0 0 1 -.638-.747l.69-.853a.5.5 0 0 1 -.206-.931l1.884-1.088a.5.5 0 0 1 .638.747l-.532.658 1.685-.972a.5.5 0 0 1 .589.8l-.262.24 2.5-1.441a.5.5 0 0 1 .578.811l-1.464 1.269 2.913-1.681a.5.5 0 0 1 .563.823l-1.34 1.072 1.595-.92a.5.5 0 0 1 .553.831l-.348.266a.5.5 0 0 1 .6.789l-3.807 3.832c.008.012.015.024.021.035a.5.5 0 0 1 -.182.683l-1.354.781a.49.49 0 0 1 -.253.067z" data-original="#cd4c60"/><path fill="#cd4c60" d="m29.315 53.908a.5.5 0 0 1 -.315-.886l.968-.8-1.314.757a.5.5 0 0 1 -.578-.81l2.267-1.967-2.877 1.66a.5.5 0 0 1 -.581-.806l2.268-2.01-2.9 1.676a.5.5 0 0 1 -.592-.8l.442-.413-.572.329a.5.5 0 0 1 -.678-.691l1.025-1.7-.207.119a.5.5 0 1 1 -.5-.865l1.884-1.088a.5.5 0 0 1 .679.691l-1.034 1.706 2.652-1.531a.5.5 0 0 1 .592.8l-.442.415 3.438-1.985a.5.5 0 0 1 .581.807l-2.269 2.009 3.1-1.787a.5.5 0 0 1 .578.811l-2.267 1.967 2.023-1.167a.5.5 0 0 1 .568.818l-2.13 1.755a.492.492 0 0 1 .184.184.5.5 0 0 1 -.183.682l-3.56 2.056a.489.489 0 0 1 -.25.064z" data-original="#cd4c60"/><path fill="#cd4c60" d="m9.19 33.791a.5.5 0 0 1 -.336-.87l2.3-2.085-2.967 1.711a.5.5 0 0 1 -.578-.81l2.342-2.037-2.97 1.714a.5.5 0 0 1 -.568-.818l1.341-1.105-1.745 1.009a.5.5 0 0 1 -.63-.758l1.26-1.471-1.339.771a.5.5 0 0 1 -.625-.763l.587-.668a.5.5 0 0 1 -.094-.907l1.882-1.088a.5.5 0 0 1 .625.763l-.242.276 1.233-.712a.5.5 0 0 1 .63.758l-1.26 1.472 4.433-2.559a.5.5 0 0 1 .568.819l-1.337 1.105 2.244-1.3a.5.5 0 0 1 .579.81l-2.341 2.036 2.516-1.452a.5.5 0 0 1 .586.8l-2.3 2.085.165-.094a.5.5 0 1 1 .5.865l-4.209 2.436a.489.489 0 0 1 -.25.067z" data-original="#cd4c60"/><g fill="#262626"><path fill="#262626" d="m47.033 12.129c.8.749 2.2 2.872 3.434 2.14 1.469-1.115 2.7-2.67 4.12-3.869 2.8-3.342-1.519-6.7-4.474-3.84-1.685-1.362-4.242-1.6-5.342.732-1.017 2.158.879 3.538 2.262 4.837zm-1.505-4.053c.315-2.749 3.1-1.287 4.078-.369a.5.5 0 0 0 .617-.047 3.016 3.016 0 0 1 1.882-1.083c1.722-.116 3.173 1.684 1.8 3.232-1.306 1.132-2.482 2.488-3.8 3.569-1.073-1.178-2.35-2.25-3.537-3.328-.553-.55-1.147-1.041-1.04-1.974z" data-original="#262626"/><path fill="#262626" d="m34.241 25.922c-1.476-.961-2.954-.349-4.138.635-1.727-1.42-4.424-1.592-5.392.91-.823 2.126 1.019 3.43 2.374 4.7.827.777 2.175 2.871 3.425 2.073a28.323 28.323 0 0 0 4.149-3.954c1.058-1.35 1.207-3.306-.418-4.364zm-2.9 6.286a6.721 6.721 0 0 1 -1.235 1.17 44.921 44.921 0 0 0 -3.586-3.368c-.778-.751-1.683-1.772-.5-2.947 1.241-1.233 2.7-.2 3.638.685.168.158.474.01.608-.115a2.872 2.872 0 0 1 1.831-1.07c1.586-.161 3.255 1.617 1.885 3.163z" data-original="#262626"/><path fill="#262626" d="m34.03 45.9a3.535 3.535 0 0 0 -3.98.679c-1.676-1.271-4.3-1.581-5.377.729-1 2.138 1.084 3.573 2.435 4.842.876.823 2.175 2.848 3.53 2.015 2.175-1.765 7.518-5.765 3.392-8.265zm-2.818 6.39a8.6 8.6 0 0 0 -1.175 1.061 34.871 34.871 0 0 0 -3.418-3.2 2.383 2.383 0 0 1 -1.02-2c.252-2.179 2.929-1.949 3.96-.542a.706.706 0 0 0 .834-.058 2.532 2.532 0 0 1 2.28-1 1.95 1.95 0 0 1 1.1 3.34z" data-original="#262626"/><path fill="#262626" d="m7.166 32.138c.742.7 2.22 2.866 3.371 2.211 1.435-1.064 2.615-2.6 4-3.76 2.8-3.292-1.582-7.056-4.567-4.044-1.67-1.345-4.324-1.751-5.236.788-.778 2.167 1.053 3.51 2.432 4.805zm-1.12-4.969c1.235-1.153 2.689-.4 3.693.547a.385.385 0 0 0 .553.023 4.343 4.343 0 0 1 1.248-.97c1.753-.719 3.815 1.271 2.415 2.851-1.381 1.183-2.6 2.641-4.012 3.738-1.108-1.639-5.957-4.005-3.897-6.189z" data-original="#262626"/><path fill="#262626" d="m59.59 10.488c0-3.988 1.546-9.665-3.69-9.948-9.062-.491-18.286 0-27.359 0-8.35.182-16.784-.305-25.115-.001-4.858.701-3.016 8.742-3.016 12.279v32.8c-.746 13.324-1.93 14.982 12.333 13.842 14.821-.059 29.677.114 44.482-.06 2.445-.716 2.365-2.5 2.365-4.7zm-2.646 48.052c-17.877-.146-35.949.214-53.743 0-2.333-.911-1.611-3.913-1.611-5.853v-41.468c.07-4.181-2.153-10.873 4.57-9.759h41.009c3.791.14 12.114-2.241 11.241 4.063v44.694c0 1.736 1.048 7.543-1.466 8.323z" data-original="#262626"/><path fill="#262626" d="m29.235 10.063-3.454 3.454c-.4.4-.086 1.49.438.966l3.718-3.718 3.707 3.706c.452.452 1.119-.536.712-.942l-3.591-3.592 3.454-3.454c.4-.4.086-1.49-.438-.966l-3.718 3.718-3.707-3.706c-.452-.452-1.119.535-.712.942z" data-original="#262626"/><path fill="#262626" d="m46.254 34.386 3.659-3.659 3.587 3.587c.405.4 1.448-.181 1-.628l-3.774-3.773 3.527-3.527c.476-.476.051-1.331-.508-.773l-3.659 3.66-3.586-3.587c-.405-.4-1.448.181-1 .628l3.774 3.773-3.527 3.526c-.477.477-.047 1.332.507.773z" data-original="#262626"/><path fill="#262626" d="m53.476 44.728-3.456 3.456-3.606-3.606c-.4-.4-1.285.387-.828.844q1.8 1.8 3.6 3.6l-3.708 3.708c-.436.435.646.947 1.048.544l3.457-3.456 3.6 3.606c.4.4 1.285-.387.828-.844q-1.8-1.8-3.6-3.6l3.708-3.708c.441-.436-.641-.947-1.043-.544z" data-original="#262626"/><path fill="#262626" d="m9.267 10.09-3.647 3.647c-.557.557.28 1.006.76.526l3.53-3.53q1.8 1.8 3.605 3.6c.406.405 1.42-.225.97-.676l-3.752-3.747 3.647-3.647c.557-.557-.28-1.006-.76-.526l-3.53 3.53q-1.8-1.8-3.6-3.6c-.406-.405-1.42.225-.97.676z" data-original="#262626"/><path fill="#262626" d="m13.492 45.751-3.46 3.46-3.543-3.543c-.406-.406-1.427.214-.978.664q1.851 1.849 3.7 3.7l-3.719 3.719c-.482.482.619.894 1.016.5q1.729-1.731 3.46-3.46l3.543 3.543c.406.405 1.427-.214.978-.664l-3.7-3.7 3.719-3.719c.482-.484-.619-.896-1.016-.5z" data-original="#262626"/><path fill="#262626" d="m55.051 40.541h-13.484v-21.047h13.24c.568 0 1.125-.988.386-.988h-13.626v-13.67c0-.621-1.134-.243-1.134.328v13.342h-20.867v-13.676c0-.618-1.132-.231-1.132.34v13.336h-13.241c-.568 0-1.125.988-.386.988h13.627v21.047h-13.383c-.685 0-.888.918-.1.918h13.483v13.711c0 .618 1.132.231 1.132-.34v-13.371h20.867v13.7c0 .621 1.134.243 1.134-.328v-13.372h13.382c.685 0 .888-.918.102-.918zm-35.485 0v-21.047h20.867v21.047z" data-original="#262626"/></g></g></svg>