<svg width="36" height="36" viewBox="0 0 36 36" fill="none" xmlns="http://www.w3.org/2000/svg">
<circle cx="18" cy="18" r="17.5" fill="white" stroke="#06283D"/>
<path d="M27 12.4875C26.325 12.825 25.65 12.9375 24.8625 13.05C25.65 12.6 26.2125 11.925 26.4375 11.025C25.7625 11.475 24.975 11.7 24.075 11.925C23.4 11.25 22.3875 10.8 21.375 10.8C19.4625 10.8 17.775 12.4875 17.775 14.5125C17.775 14.85 17.775 15.075 17.8875 15.3C14.85 15.1875 12.0375 13.725 10.2375 11.475C9.9 12.0375 9.7875 12.6 9.7875 13.3875C9.7875 14.625 10.4625 15.75 11.475 16.425C10.9125 16.425 10.35 16.2 9.7875 15.975C9.7875 17.775 11.025 19.2375 12.7125 19.575C12.375 19.6875 12.0375 19.6875 11.7 19.6875C11.475 19.6875 11.25 19.6875 11.025 19.575C11.475 21.0375 12.825 22.1625 14.5125 22.1625C13.275 23.175 11.7 23.7375 9.9 23.7375C9.5625 23.7375 9.3375 23.7375 9 23.7375C10.6875 24.75 12.6 25.425 14.625 25.425C21.375 25.425 25.0875 19.8 25.0875 14.9625C25.0875 14.85 25.0875 14.625 25.0875 14.5125C25.875 13.95 26.55 13.275 27 12.4875Z" fill="#06283D"/>
</svg>
