<svg xmlns="http://www.w3.org/2000/svg" width="346.667" height="346.667" preserveAspectRatio="xMidYMid meet" version="1.0" viewBox="0 0 260 260"><metadata>Created by potrace 1.14, written by Peter Selinger 2001-2017</metadata><g fill="#000" stroke="none"><path d="M0 1300 l0 -1300 1300 0 1300 0 0 1300 0 1300 -1300 0 -1300 0 0 -1300z m918 -88 l2 -682 -25 0 -25 0 0 686 0 685 23 -3 22 -3 3 -683z m100 0 l2 -682 -25 0 -25 0 0 686 0 685 23 -3 22 -3 3 -683z m106 666 c7 -13 90 -188 182 -389 l169 -367 3 384 2 384 25 0 25 0 0 -681 0 -680 -27 3 c-24 3 -39 31 -202 382 l-176 380 -3 -382 -2 -382 -25 0 -25 0 -2 681 c-2 374 -1 683 1 685 12 12 42 1 55 -18z m506 -668 l0 -680 -25 0 -25 0 0 680 0 680 25 0 25 0 0 -680z m100 0 l0 -680 -25 0 -25 0 0 680 0 680 25 0 25 0 0 -680z" transform="translate(0.000000,260.000000) scale(0.100000,-0.100000)"/><path d="M1120 1708 c0 -51 15 -87 178 -437 177 -381 177 -381 180 -330 3 48 -8 75 -174 433 -97 209 -178 383 -180 385 -2 2 -4 -21 -4 -51z" transform="translate(0.000000,260.000000) scale(0.100000,-0.100000)"/><path d="M1120 1479 c0 -49 16 -89 177 -439 l178 -384 3 52 c3 50 -7 74 -174 435 -97 210 -178 384 -180 386 -2 2 -4 -20 -4 -50z" transform="translate(0.000000,260.000000) scale(0.100000,-0.100000)"/></g></svg>