<svg xmlns="http://www.w3.org/2000/svg" width="344" height="411" fill="none" viewBox="0 0 344 411"><g filter="url(#filter0_d_31_766)"><path fill="#6652E4" d="M32.1792 166.451C32.1792 88.0444 95.7401 24.4834 174.146 24.4834C252.553 24.4834 316.114 88.0443 316.114 166.451V382.002H32.1792V166.451Z"/><path stroke="#06283D" stroke-width="6" d="M35.1792 166.451C35.1792 89.7012 97.397 27.4834 174.146 27.4834C250.896 27.4834 313.114 89.7012 313.114 166.451V379.002H35.1792V166.451Z"/></g><g clip-path="url(#clip0_31_766)"><path stroke="#fff" stroke-miterlimit="10" stroke-width="2" d="M311.855 17.6348H306.583"/><path stroke="#fff" stroke-miterlimit="10" stroke-width="2" d="M309.214 20.2691V15"/><path stroke="#fff" stroke-miterlimit="10" stroke-width="2" d="M311.855 33.7417H306.583"/><path stroke="#fff" stroke-miterlimit="10" stroke-width="2" d="M309.214 36.3766V31.1074"/><path stroke="#fff" stroke-miterlimit="10" stroke-width="2" d="M311.855 49.8579H306.583"/><path stroke="#fff" stroke-miterlimit="10" stroke-width="2" d="M309.214 52.4928V47.2236"/><path stroke="#fff" stroke-miterlimit="10" stroke-width="2" d="M311.855 65.9653H306.583"/><path stroke="#fff" stroke-miterlimit="10" stroke-width="2" d="M309.214 68.5997V63.3306"/><path stroke="#fff" stroke-miterlimit="10" stroke-width="2" d="M311.855 82.0815H306.583"/><path stroke="#fff" stroke-miterlimit="10" stroke-width="2" d="M309.214 84.7073V79.4473"/><path stroke="#fff" stroke-miterlimit="10" stroke-width="2" d="M311.855 98.189H306.583"/><path stroke="#fff" stroke-miterlimit="10" stroke-width="2" d="M309.214 100.823V95.5542"/><path stroke="#fff" stroke-miterlimit="10" stroke-width="2" d="M295.32 17.6348H290.039"/><path stroke="#fff" stroke-miterlimit="10" stroke-width="2" d="M292.68 20.2691V15"/><path stroke="#fff" stroke-miterlimit="10" stroke-width="2" d="M295.32 33.7417H290.039"/><path stroke="#fff" stroke-miterlimit="10" stroke-width="2" d="M292.68 36.3766V31.1074"/><path stroke="#fff" stroke-miterlimit="10" stroke-width="2" d="M295.32 49.8579H290.039"/><path stroke="#fff" stroke-miterlimit="10" stroke-width="2" d="M292.68 52.4928V47.2236"/><path stroke="#fff" stroke-miterlimit="10" stroke-width="2" d="M295.32 65.9653H290.039"/><path stroke="#fff" stroke-miterlimit="10" stroke-width="2" d="M292.68 68.5997V63.3306"/><path stroke="#fff" stroke-miterlimit="10" stroke-width="2" d="M295.32 82.0815H290.039"/><path stroke="#fff" stroke-miterlimit="10" stroke-width="2" d="M292.68 84.7073V79.4473"/><path stroke="#fff" stroke-miterlimit="10" stroke-width="2" d="M295.32 98.189H290.039"/><path stroke="#fff" stroke-miterlimit="10" stroke-width="2" d="M292.68 100.823V95.5542"/><path stroke="#fff" stroke-miterlimit="10" stroke-width="2" d="M278.776 17.6348H273.504"/><path stroke="#fff" stroke-miterlimit="10" stroke-width="2" d="M276.136 20.2691V15"/><path stroke="#fff" stroke-miterlimit="10" stroke-width="2" d="M278.776 33.7417H273.504"/><path stroke="#fff" stroke-miterlimit="10" stroke-width="2" d="M276.136 36.3766V31.1074"/><path stroke="#fff" stroke-miterlimit="10" stroke-width="2" d="M278.776 49.8579H273.504"/><path stroke="#fff" stroke-miterlimit="10" stroke-width="2" d="M276.136 52.4928V47.2236"/><path stroke="#fff" stroke-miterlimit="10" stroke-width="2" d="M278.776 65.9653H273.504"/><path stroke="#fff" stroke-miterlimit="10" stroke-width="2" d="M276.136 68.5997V63.3306"/><path stroke="#fff" stroke-miterlimit="10" stroke-width="2" d="M278.776 82.0815H273.504"/><path stroke="#fff" stroke-miterlimit="10" stroke-width="2" d="M276.136 84.7073V79.4473"/><path stroke="#fff" stroke-miterlimit="10" stroke-width="2" d="M278.776 98.189H273.504"/><path stroke="#fff" stroke-miterlimit="10" stroke-width="2" d="M276.136 100.823V95.5542"/><path stroke="#fff" stroke-miterlimit="10" stroke-width="2" d="M262.242 17.6348H256.961"/><path stroke="#fff" stroke-miterlimit="10" stroke-width="2" d="M259.601 20.2691V15"/><path stroke="#fff" stroke-miterlimit="10" stroke-width="2" d="M262.242 33.7417H256.961"/><path stroke="#fff" stroke-miterlimit="10" stroke-width="2" d="M259.601 36.3766V31.1074"/><path stroke="#fff" stroke-miterlimit="10" stroke-width="2" d="M262.242 49.8579H256.961"/><path stroke="#fff" stroke-miterlimit="10" stroke-width="2" d="M259.601 52.4928V47.2236"/><path stroke="#fff" stroke-miterlimit="10" stroke-width="2" d="M262.242 65.9653H256.961"/><path stroke="#fff" stroke-miterlimit="10" stroke-width="2" d="M259.601 68.5997V63.3306"/><path stroke="#fff" stroke-miterlimit="10" stroke-width="2" d="M262.242 82.0815H256.961"/><path stroke="#fff" stroke-miterlimit="10" stroke-width="2" d="M259.601 84.7073V79.4473"/><path stroke="#fff" stroke-miterlimit="10" stroke-width="2" d="M262.242 98.189H256.961"/><path stroke="#fff" stroke-miterlimit="10" stroke-width="2" d="M259.601 100.823V95.5542"/></g><g clip-path="url(#clip1_31_766)"><path fill="#FF577F" d="M11.4615 409.698C10.2998 409.936 9.09349 409.824 7.99522 409.376C6.89695 408.928 5.95601 408.163 5.29142 407.179C4.62684 406.195 4.26845 405.035 4.26158 403.847C4.2547 402.659 4.59965 401.495 5.25281 400.504C8.28144 395.899 12.4032 395.022 14.864 394.496C16.6386 394.121 16.6717 394.064 16.9604 393.633C17.2491 393.202 17.2822 393.159 16.9273 391.357C16.454 388.887 15.6259 384.742 18.6545 380.143C21.6832 375.544 25.8049 374.662 28.2657 374.135C30.0403 373.761 30.0781 373.704 30.3621 373.268C30.646 372.831 30.6839 372.794 30.3337 370.996C29.8605 368.521 29.0276 364.382 32.0562 359.783C35.0849 355.183 39.2066 354.301 41.6674 353.775C43.442 353.396 43.4799 353.343 43.7638 352.907C44.0477 352.471 44.0856 352.433 43.7354 350.636C43.2622 348.161 42.4293 344.021 45.4627 339.417C48.4961 334.813 52.6084 333.936 55.0739 333.414C56.8485 333.035 56.8816 332.978 57.1702 332.542C58.0488 331.211 59.4188 330.285 60.979 329.967C62.5392 329.648 64.1617 329.964 65.4895 330.844C66.8174 331.725 67.7419 333.097 68.0596 334.661C68.3773 336.224 68.0622 337.85 67.1837 339.18C64.155 343.78 60.0332 344.661 57.5677 345.188C55.7979 345.562 55.76 345.619 55.4714 346.055C55.1827 346.492 55.1496 346.53 55.5045 348.327C55.9777 350.802 56.8059 354.965 53.7772 359.545C50.7486 364.126 46.6363 365.008 44.1661 365.529C42.3915 365.909 42.3536 365.966 42.0696 366.397C41.7857 366.829 41.7479 366.871 42.098 368.668C42.5713 371.143 43.4042 375.307 40.3755 379.887C37.3469 384.467 33.2251 385.368 30.7596 385.89C28.9897 386.269 28.9519 386.326 28.668 386.758C28.384 387.189 28.3462 387.232 28.6964 389.029C29.1696 391.504 29.9977 395.667 26.9691 400.248C23.9404 404.828 19.8234 405.729 17.3579 406.25C15.5833 406.63 15.5502 406.687 15.2662 407.118C14.8328 407.778 14.2736 408.345 13.6207 408.788C12.9677 409.231 12.234 409.54 11.4615 409.698Z"/><path stroke="#06283D" stroke-linecap="round" stroke-linejoin="round" stroke-width="4" d="M11.4615 409.698C10.2998 409.936 9.09349 409.824 7.99522 409.376C6.89695 408.928 5.95601 408.163 5.29142 407.179C4.62684 406.195 4.26845 405.035 4.26158 403.847C4.2547 402.659 4.59965 401.495 5.25281 400.504C8.28144 395.899 12.4032 395.022 14.864 394.496C16.6386 394.121 16.6717 394.064 16.9604 393.633C17.2491 393.202 17.2822 393.159 16.9273 391.357C16.454 388.887 15.6259 384.742 18.6545 380.143C21.6832 375.544 25.8049 374.662 28.2657 374.135C30.0403 373.761 30.0781 373.704 30.3621 373.268C30.646 372.831 30.6839 372.794 30.3337 370.996C29.8605 368.521 29.0276 364.382 32.0562 359.783C35.0849 355.183 39.2067 354.301 41.6674 353.775C43.442 353.396 43.4799 353.343 43.7638 352.907C44.0477 352.471 44.0856 352.433 43.7354 350.636C43.2622 348.161 42.4293 344.021 45.4627 339.417C48.4961 334.813 52.6084 333.936 55.0739 333.414C56.8485 333.035 56.8816 332.978 57.1702 332.542C58.0488 331.211 59.4188 330.285 60.979 329.967C62.5392 329.648 64.1617 329.964 65.4895 330.844C66.8174 331.725 67.7419 333.097 68.0596 334.661C68.3773 336.224 68.0622 337.85 67.1837 339.18C64.155 343.78 60.0332 344.661 57.5677 345.188C55.7979 345.562 55.76 345.619 55.4714 346.055C55.1827 346.492 55.1496 346.53 55.5045 348.327C55.9777 350.802 56.8059 354.965 53.7772 359.545C50.7486 364.126 46.6363 365.008 44.1661 365.529C42.3915 365.909 42.3536 365.966 42.0696 366.397C41.7857 366.829 41.7479 366.871 42.098 368.668C42.5713 371.143 43.4042 375.307 40.3755 379.887C37.3469 384.467 33.2251 385.368 30.7596 385.89C28.9897 386.269 28.9519 386.326 28.668 386.758C28.384 387.189 28.3462 387.232 28.6964 389.029C29.1696 391.504 29.9977 395.667 26.9691 400.248C23.9404 404.828 19.8234 405.729 17.3579 406.25C15.5833 406.63 15.5502 406.687 15.2662 407.118C14.8328 407.778 14.2736 408.345 13.6207 408.788C12.9677 409.231 12.234 409.54 11.4615 409.698V409.698Z"/><path fill="#F1D624" d="M8.14902 406.378C6.98728 406.617 5.78099 406.505 4.68272 406.057C3.58445 405.609 2.64351 404.844 1.97892 403.86C1.31434 402.876 0.955949 401.716 0.949075 400.528C0.942202 399.34 1.28715 398.176 1.94031 397.184C4.96894 392.58 9.09072 391.703 11.5515 391.177C13.3261 390.802 13.3592 390.745 13.6479 390.314C13.9366 389.882 13.9697 389.84 13.6148 388.038C13.1415 385.567 12.3134 381.423 15.342 376.824C18.3707 372.224 22.4924 371.342 24.9532 370.816C26.7278 370.441 26.7656 370.385 27.0496 369.948C27.3335 369.512 27.3714 369.474 27.0212 367.677C26.548 365.202 25.7151 361.063 28.7437 356.463C31.7724 351.864 35.8941 350.982 38.3549 350.456C40.1295 350.076 40.1674 350.024 40.4513 349.588C40.7352 349.152 40.7731 349.114 40.4229 347.317C39.9497 344.841 39.1168 340.702 42.1502 336.098C45.1836 331.494 49.2959 330.617 51.7614 330.095C53.536 329.716 53.5691 329.659 53.8577 329.223C54.7363 327.892 56.1063 326.966 57.6665 326.647C59.2267 326.329 60.8492 326.645 62.177 327.525C63.5049 328.405 64.4294 329.778 64.7471 331.341C65.0648 332.905 64.7497 334.53 63.8712 335.861C60.8425 340.46 56.7207 341.342 54.2552 341.868C52.4854 342.243 52.4475 342.3 52.1589 342.736C51.8702 343.172 51.8371 343.21 52.192 345.007C52.6652 347.483 53.4934 351.646 50.4647 356.226C47.4361 360.807 43.3238 361.688 40.8536 362.21C39.079 362.589 39.0411 362.646 38.7571 363.078C38.4732 363.509 38.4354 363.552 38.7855 365.349C39.2588 367.824 40.0917 371.987 37.063 376.568C34.0344 381.148 29.9126 382.049 27.4471 382.571C25.6772 382.95 25.6394 383.007 25.3555 383.438C25.0715 383.87 25.0337 383.912 25.3839 385.71C25.8571 388.185 26.6852 392.348 23.6566 396.928C20.6279 401.509 16.5109 402.41 14.0454 402.931C12.2708 403.31 12.2377 403.367 11.9537 403.799C11.5203 404.459 10.9611 405.026 10.3082 405.469C9.65523 405.911 8.92148 406.221 8.14902 406.378Z"/><path stroke="#06283D" stroke-linecap="round" stroke-linejoin="round" stroke-width="2" d="M8.14902 406.378C6.98728 406.617 5.78099 406.505 4.68272 406.057C3.58445 405.609 2.64351 404.844 1.97892 403.86C1.31434 402.876 0.955949 401.716 0.949075 400.528C0.942202 399.34 1.28715 398.176 1.94031 397.184C4.96894 392.58 9.09072 391.703 11.5515 391.177C13.3261 390.802 13.3592 390.745 13.6479 390.314C13.9366 389.882 13.9697 389.84 13.6148 388.038C13.1415 385.567 12.3134 381.423 15.342 376.824C18.3707 372.224 22.4924 371.342 24.9532 370.816C26.7278 370.441 26.7656 370.385 27.0496 369.948C27.3335 369.512 27.3714 369.474 27.0212 367.677C26.548 365.202 25.7151 361.063 28.7437 356.463C31.7724 351.864 35.8942 350.982 38.3549 350.456C40.1295 350.076 40.1674 350.024 40.4513 349.588C40.7352 349.152 40.7731 349.114 40.4229 347.317C39.9497 344.841 39.1168 340.702 42.1502 336.098C45.1836 331.494 49.2959 330.617 51.7614 330.095C53.536 329.716 53.5691 329.659 53.8577 329.223C54.7363 327.892 56.1063 326.966 57.6665 326.647C59.2267 326.329 60.8492 326.645 62.177 327.525C63.5049 328.405 64.4294 329.778 64.7471 331.341C65.0648 332.905 64.7497 334.53 63.8712 335.861C60.8425 340.46 56.7207 341.342 54.2552 341.868C52.4854 342.243 52.4475 342.3 52.1589 342.736C51.8702 343.172 51.8371 343.21 52.192 345.007C52.6652 347.483 53.4934 351.646 50.4647 356.226C47.4361 360.807 43.3238 361.688 40.8536 362.21C39.079 362.589 39.0411 362.646 38.7571 363.078C38.4732 363.509 38.4354 363.552 38.7855 365.349C39.2588 367.824 40.0917 371.987 37.063 376.568C34.0344 381.148 29.9126 382.049 27.4471 382.571C25.6772 382.95 25.6394 383.007 25.3555 383.438C25.0715 383.87 25.0337 383.912 25.3839 385.71C25.8571 388.185 26.6852 392.348 23.6566 396.928C20.6279 401.509 16.5109 402.41 14.0454 402.931C12.2708 403.31 12.2377 403.367 11.9537 403.799C11.5203 404.459 10.9611 405.026 10.3082 405.469C9.65523 405.911 8.92148 406.221 8.14902 406.378V406.378Z"/></g><path fill="#F1D624" d="M291.922 396.621C294.266 398.972 298.074 398.973 300.419 396.623L306.185 390.845C308.53 388.496 312.338 388.497 314.682 390.849L320.433 396.619C322.776 398.971 326.584 398.973 328.93 396.623L338.767 386.766C341.105 384.422 341.104 380.628 338.764 378.286L332.971 372.49C330.63 370.148 330.629 366.353 332.967 364.01L338.767 358.198C341.106 355.855 341.105 352.061 338.765 349.719L328.926 339.872C326.582 337.526 322.778 337.527 320.435 339.875L314.679 345.643C312.336 347.99 308.533 347.992 306.188 345.646L300.416 339.871C298.072 337.525 294.268 337.527 291.926 339.874L282.097 349.722C279.761 352.063 279.759 355.853 282.094 358.196L287.891 364.013C290.225 366.356 290.224 370.146 287.888 372.487L282.098 378.288C279.761 380.63 279.76 384.42 282.095 386.763L291.922 396.621Z"/><path fill="#F1D624" stroke="#fff" stroke-miterlimit="10" stroke-width="6" d="M291.922 396.621C294.266 398.972 298.074 398.973 300.419 396.623L306.185 390.845C308.53 388.496 312.338 388.497 314.682 390.849L320.433 396.619C322.776 398.971 326.584 398.973 328.93 396.623L338.767 386.766C341.105 384.422 341.104 380.628 338.764 378.286L332.971 372.49C330.63 370.148 330.629 366.353 332.967 364.01L338.767 358.198C341.106 355.855 341.105 352.061 338.765 349.719L328.926 339.872C326.582 337.526 322.778 337.527 320.435 339.875L314.679 345.643C312.336 347.99 308.533 347.992 306.188 345.646L300.416 339.871C298.072 337.525 294.268 337.527 291.926 339.874L282.097 349.722C279.761 352.063 279.759 355.853 282.094 358.196L287.891 364.013C290.225 366.356 290.224 370.146 287.888 372.487L282.098 378.288C279.761 380.63 279.76 384.42 282.095 386.763L291.922 396.621Z"/><defs><filter id="filter0_d_31_766" width="307.935" height="381.519" x="8.179" y=".483" color-interpolation-filters="sRGB" filterUnits="userSpaceOnUse"><feFlood flood-opacity="0" result="BackgroundImageFix"/><feColorMatrix in="SourceAlpha" result="hardAlpha" type="matrix" values="0 0 0 0 0 0 0 0 0 0 0 0 0 0 0 0 0 0 127 0"/><feOffset dx="-24" dy="-24"/><feComposite in2="hardAlpha" operator="out"/><feColorMatrix type="matrix" values="0 0 0 0 0.996078 0 0 0 0 0.803922 0 0 0 0 0.439216 0 0 0 1 0"/><feBlend in2="BackgroundImageFix" mode="normal" result="effect1_dropShadow_31_766"/><feBlend in="SourceGraphic" in2="effect1_dropShadow_31_766" mode="normal" result="shape"/></filter><clipPath id="clip0_31_766"><rect width="54.894" height="85.823" fill="#fff" transform="translate(256.961 15)"/></clipPath><clipPath id="clip1_31_766"><rect width="69.119" height="85.193" fill="#fff" transform="translate(0 325.576)"/></clipPath></defs></svg>