<svg xmlns="http://www.w3.org/2000/svg" width="24" height="24" fill="none" viewBox="0 0 24 24"><path fill="#06283D" d="M19.9857 12.0155C19.9857 12.2941 19.8928 12.5262 19.7071 12.7119L14.1047 18.3143L12.6964 19.7226C12.5107 19.9084 12.2785 20.0012 12 20.0012C11.7214 20.0012 11.4893 19.9084 11.3035 19.7226L9.89521 18.3143L4.29283 12.7119C4.10712 12.5262 4.01426 12.2941 4.01426 12.0155C4.01426 11.7369 4.10712 11.5048 4.29283 11.3191L5.70116 9.91074C5.88688 9.72503 6.11902 9.63217 6.39759 9.63217C6.67616 9.63217 6.90831 9.72503 7.09402 9.91074L10.019 12.8357V5.06669C10.019 4.79844 10.117 4.5663 10.3131 4.37027C10.5091 4.17423 10.7412 4.07622 11.0095 4.07622H12.9904C13.2587 4.07622 13.4908 4.17423 13.6869 4.37027C13.8829 4.5663 13.9809 4.79844 13.9809 5.06669V12.8357L16.9059 9.91074C17.102 9.71471 17.3341 9.61669 17.6024 9.61669C17.8706 9.61669 18.1028 9.71471 18.2988 9.91074L19.7071 11.3191C19.8928 11.5048 19.9857 11.7369 19.9857 12.0155ZM23.8857 12C23.8857 9.84368 23.3543 7.85499 22.2916 6.03396C21.2289 4.21292 19.7871 2.77106 17.966 1.70836C16.145 0.645662 14.1563 0.114313 12 0.114313C9.84362 0.114313 7.85493 0.645662 6.0339 1.70836C4.21287 2.77106 2.771 4.21292 1.70831 6.03396C0.645607 7.85499 0.114258 9.84368 0.114258 12C0.114258 14.1564 0.645607 16.1451 1.70831 17.9661C2.771 19.7871 4.21287 21.229 6.0339 22.2917C7.85493 23.3544 9.84362 23.8857 12 23.8857C14.1563 23.8857 16.145 23.3544 17.966 22.2917C19.7871 21.229 21.2289 19.7871 22.2916 17.9661C23.3543 16.1451 23.8857 14.1564 23.8857 12Z"/></svg>