<svg width="375" height="31" viewBox="0 0 375 31" fill="none" xmlns="http://www.w3.org/2000/svg">
<g clip-path="url(#clip0_31_826)">
<rect width="29.9992" height="29.9992" transform="matrix(1 0 0 -1 -7.99902 30.2803)" fill="white"/>
<path d="M-7.99902 15.2808L-7.99902 0.281159H7.00058V15.2808H-7.99902Z" fill="#06283D"/>
<path d="M22.0001 15.2807V30.2803L7.00049 30.2803V15.2807H22.0001Z" fill="#06283D"/>
</g>
<g clip-path="url(#clip1_31_826)">
<rect width="29.9992" height="29.9992" transform="matrix(1 0 0 -1 22.0002 30.2803)" fill="white"/>
<path d="M22.0002 15.2808L22.0002 0.281159H36.9998V15.2808H22.0002Z" fill="#06283D"/>
<path d="M51.9994 15.2807V30.2803L36.9998 30.2803V15.2807H51.9994Z" fill="#06283D"/>
</g>
<g clip-path="url(#clip2_31_826)">
<rect width="29.9992" height="29.9992" transform="matrix(1 0 0 -1 51.9993 30.2803)" fill="white"/>
<path d="M51.9993 15.2808L51.9993 0.281159H66.9989V15.2808H51.9993Z" fill="#06283D"/>
<path d="M81.9984 15.2807V30.2803L66.9988 30.2803V15.2807H81.9984Z" fill="#06283D"/>
</g>
<g clip-path="url(#clip3_31_826)">
<rect width="29.9992" height="29.9992" transform="matrix(1 0 0 -1 81.9985 30.2803)" fill="white"/>
<path d="M81.9985 15.2808L81.9985 0.281159H96.9981V15.2808H81.9985Z" fill="#06283D"/>
<path d="M111.998 15.2807V30.2803L96.998 30.2803V15.2807H111.998Z" fill="#06283D"/>
</g>
<g clip-path="url(#clip4_31_826)">
<rect width="29.9992" height="29.9992" transform="matrix(1 0 0 -1 111.998 30.2798)" fill="white"/>
<path d="M111.998 15.2803L111.998 0.280671H126.997V15.2803H111.998Z" fill="#06283D"/>
<path d="M141.997 15.2802V30.2798L126.997 30.2798V15.2802H141.997Z" fill="#06283D"/>
</g>
<g clip-path="url(#clip5_31_826)">
<rect width="29.9992" height="29.9992" transform="matrix(1 0 0 -1 141.997 30.2798)" fill="white"/>
<path d="M141.997 15.2803L141.997 0.280671H156.997V15.2803H141.997Z" fill="#06283D"/>
<path d="M171.996 15.2802V30.2798L156.997 30.2798V15.2802H171.996Z" fill="#06283D"/>
</g>
<g clip-path="url(#clip6_31_826)">
<rect width="29.9992" height="29.9992" transform="matrix(1 0 0 -1 171.996 30.2798)" fill="white"/>
<path d="M171.996 15.2803L171.996 0.280671H186.996V15.2803H171.996Z" fill="#06283D"/>
<path d="M201.995 15.2802V30.2798L186.996 30.2798V15.2802H201.995Z" fill="#06283D"/>
</g>
<g clip-path="url(#clip7_31_826)">
<rect width="29.9992" height="29.9992" transform="matrix(1 0 0 -1 201.995 30.2798)" fill="white"/>
<path d="M201.995 15.2803L201.995 0.280671H216.995V15.2803H201.995Z" fill="#06283D"/>
<path d="M231.994 15.2802V30.2798L216.995 30.2798V15.2802H231.994Z" fill="#06283D"/>
</g>
<g clip-path="url(#clip8_31_826)">
<rect width="29.9992" height="29.9992" transform="matrix(1 0 0 -1 231.995 30.2798)" fill="white"/>
<path d="M231.995 15.2803L231.995 0.280671H246.994V15.2803H231.995Z" fill="#06283D"/>
<path d="M261.994 15.2802V30.2798L246.994 30.2798V15.2802H261.994Z" fill="#06283D"/>
</g>
<g clip-path="url(#clip9_31_826)">
<rect width="29.9992" height="29.9992" transform="matrix(1 0 0 -1 261.994 30.2798)" fill="white"/>
<path d="M261.994 15.2803L261.994 0.280671H276.993V15.2803H261.994Z" fill="#06283D"/>
<path d="M291.993 15.2802V30.2798L276.993 30.2798V15.2802H291.993Z" fill="#06283D"/>
</g>
<g clip-path="url(#clip10_31_826)">
<rect width="29.9992" height="29.9992" transform="matrix(1 0 0 -1 291.993 30.2793)" fill="white"/>
<path d="M291.993 15.2798L291.993 0.280183H306.993V15.2798H291.993Z" fill="#06283D"/>
<path d="M321.992 15.2797V30.2793L306.992 30.2793V15.2797H321.992Z" fill="#06283D"/>
</g>
<g clip-path="url(#clip11_31_826)">
<rect width="29.9992" height="29.9992" transform="matrix(1 0 0 -1 321.992 30.2798)" fill="white"/>
<path d="M321.992 15.2803L321.992 0.280671H336.992V15.2803H321.992Z" fill="#06283D"/>
<path d="M351.991 15.2802V30.2798L336.992 30.2798V15.2802H351.991Z" fill="#06283D"/>
</g>
<g clip-path="url(#clip12_31_826)">
<rect width="29.9992" height="29.9992" transform="matrix(1 0 0 -1 351.991 30.2803)" fill="white"/>
<path d="M351.991 15.2808L351.991 0.281159H366.991V15.2808H351.991Z" fill="#06283D"/>
<path d="M381.991 15.2807V30.2803L366.991 30.2803V15.2807H381.991Z" fill="#06283D"/>
</g>
<defs>
<clipPath id="clip0_31_826">
<rect width="29.9992" height="29.9992" fill="white" transform="matrix(1 0 0 -1 -7.99902 30.2803)"/>
</clipPath>
<clipPath id="clip1_31_826">
<rect width="29.9992" height="29.9992" fill="white" transform="matrix(1 0 0 -1 22.0002 30.2803)"/>
</clipPath>
<clipPath id="clip2_31_826">
<rect width="29.9992" height="29.9992" fill="white" transform="matrix(1 0 0 -1 51.9993 30.2803)"/>
</clipPath>
<clipPath id="clip3_31_826">
<rect width="29.9992" height="29.9992" fill="white" transform="matrix(1 0 0 -1 81.9985 30.2803)"/>
</clipPath>
<clipPath id="clip4_31_826">
<rect width="29.9992" height="29.9992" fill="white" transform="matrix(1 0 0 -1 111.998 30.2798)"/>
</clipPath>
<clipPath id="clip5_31_826">
<rect width="29.9992" height="29.9992" fill="white" transform="matrix(1 0 0 -1 141.997 30.2798)"/>
</clipPath>
<clipPath id="clip6_31_826">
<rect width="29.9992" height="29.9992" fill="white" transform="matrix(1 0 0 -1 171.996 30.2798)"/>
</clipPath>
<clipPath id="clip7_31_826">
<rect width="29.9992" height="29.9992" fill="white" transform="matrix(1 0 0 -1 201.995 30.2798)"/>
</clipPath>
<clipPath id="clip8_31_826">
<rect width="29.9992" height="29.9992" fill="white" transform="matrix(1 0 0 -1 231.995 30.2798)"/>
</clipPath>
<clipPath id="clip9_31_826">
<rect width="29.9992" height="29.9992" fill="white" transform="matrix(1 0 0 -1 261.994 30.2798)"/>
</clipPath>
<clipPath id="clip10_31_826">
<rect width="29.9992" height="29.9992" fill="white" transform="matrix(1 0 0 -1 291.993 30.2793)"/>
</clipPath>
<clipPath id="clip11_31_826">
<rect width="29.9992" height="29.9992" fill="white" transform="matrix(1 0 0 -1 321.992 30.2798)"/>
</clipPath>
<clipPath id="clip12_31_826">
<rect width="29.9992" height="29.9992" fill="white" transform="matrix(1 0 0 -1 351.991 30.2803)"/>
</clipPath>
</defs>
</svg>
