<svg xmlns="http://www.w3.org/2000/svg" width="210" height="210" fill="none" viewBox="0 0 210 210"><circle cx="105" cy="105" r="103" fill="#fff" stroke="#06283D" stroke-width="4"/><path fill="#06283D" d="M28.6784 115.524C26.6184 115.524 24.7784 115.064 23.1584 114.144C21.5184 113.204 20.2484 111.934 19.3484 110.334C18.4284 108.714 17.9684 106.904 17.9684 104.904C17.9684 102.564 18.5684 100.514 19.7684 98.7541C20.9684 96.9941 22.6284 95.7641 24.7484 95.0641L24.7484 99.8941C23.7484 100.374 22.9984 101.054 22.4984 101.934C21.9984 102.794 21.7484 103.794 21.7484 104.934C21.7484 106.154 22.0384 107.244 22.6184 108.204C23.1784 109.144 23.9784 109.884 25.0184 110.424C26.0584 110.944 27.2784 111.204 28.6784 111.204C30.0584 111.204 31.2784 110.944 32.3384 110.424C33.3784 109.884 34.1884 109.144 34.7684 108.204C35.3284 107.244 35.6084 106.154 35.6084 104.934C35.6084 103.794 35.3584 102.794 34.8584 101.934C34.3384 101.054 33.5784 100.374 32.5784 99.8941L32.5784 95.0641C34.7184 95.7641 36.3884 96.9941 37.5884 98.7541C38.7684 100.494 39.3584 102.544 39.3584 104.904C39.3584 106.904 38.9084 108.714 38.0084 110.334C37.0884 111.934 35.8184 113.204 34.1984 114.144C32.5784 115.064 30.7384 115.524 28.6784 115.524Z"/><path fill="#06283D" d="M25.5183 69.1893L45.5507 76.0664L44.1675 80.0956L35.4565 77.1051L32.5148 85.6742L41.2257 88.6647L39.8523 92.6655L19.8199 85.7884L21.1933 81.7876L29.3085 84.5735L32.2502 76.0044L24.1351 73.2185L25.5183 69.1893Z"/><path fill="#06283D" d="M38.2422 55.7874L42.3852 59.012L46.7154 53.4486L49.3432 55.4939L45.013 61.0573L49.3927 64.4662L54.2757 58.1926L56.9746 60.2932L49.5119 69.8812L32.9636 57.0012L40.4263 47.4131L43.1252 49.5137L38.2422 55.7874Z"/><path fill="#06283D" d="M54.4809 47.7532C53.3542 46.0286 52.7329 44.2366 52.617 42.3772C52.5069 40.4901 52.8755 38.7323 53.7227 37.1037C54.5758 35.4475 55.8394 34.0724 57.5138 32.9785C59.4727 31.6987 61.5171 31.0797 63.6468 31.1217C65.7766 31.1637 67.7142 31.8806 69.4598 33.2725L65.4163 35.9143C64.4675 35.3397 63.488 35.0837 62.4778 35.1465C61.4844 35.1983 60.5105 35.5359 59.5561 36.1594C58.5348 36.8267 57.7809 37.6657 57.2944 38.6763C56.8138 39.6592 56.6318 40.7337 56.7486 41.8997C56.8821 43.0548 57.3317 44.2183 58.0974 45.3904C58.8522 46.5456 59.7372 47.4248 60.7522 48.0278C61.7731 48.6031 62.8357 48.8764 63.9398 48.8479C65.0498 48.7916 66.1155 48.4298 67.1368 47.7626C68.0912 47.139 68.7916 46.3828 69.2381 45.4938C69.6904 44.5772 69.844 43.569 69.6989 42.4693L73.7424 39.8276C74.3268 42.002 74.2105 44.0728 73.3935 46.04C72.5822 47.9796 71.1887 49.5947 69.213 50.8855C67.5386 51.9794 65.7772 52.5927 63.9288 52.7253C62.0861 52.8302 60.3283 52.4616 58.6553 51.6195C56.9991 50.7665 55.6076 49.4777 54.4809 47.7532Z"/><path fill="#06283D" d="M92.4617 41.3808L82.7845 34.2069L85.0749 43.2514L81.0034 44.2825L75.8629 23.9832L79.9344 22.9522L82.2395 32.0549L87.3212 21.0816L92.2361 19.837L86.4086 32.0203L97.6092 40.0773L92.4617 41.3808Z"/><path fill="#06283D" d="M109.559 40.8943C107.606 40.7324 105.85 40.1254 104.291 39.0731C102.733 38.0208 101.542 36.6478 100.719 34.954C99.8979 33.2404 99.5723 31.357 99.7424 29.3041C99.9109 27.271 100.54 25.4869 101.631 23.9517C102.723 22.3966 104.124 21.2283 105.835 20.4469C107.545 19.6655 109.377 19.3557 111.33 19.5176C113.303 19.6811 115.059 20.2881 116.598 21.3388C118.156 22.3911 119.336 23.7732 120.137 25.4852C120.96 27.179 121.288 29.0424 121.119 31.0754C120.949 33.1284 120.318 34.9324 119.226 36.4875C118.155 38.0244 116.765 39.1835 115.054 39.9649C113.344 40.7464 111.512 41.0561 109.559 40.8943ZM109.869 37.1571C111.124 37.2612 112.254 37.0738 113.257 36.595C114.261 36.0962 115.076 35.341 115.702 34.3292C116.328 33.3174 116.698 32.1139 116.814 30.7187C116.93 29.3234 116.761 28.0853 116.309 27.0043C115.858 25.9033 115.178 25.0341 114.267 24.3968C113.357 23.7594 112.274 23.3887 111.018 23.2846C109.762 23.1806 108.623 23.3671 107.6 23.8443C106.597 24.3231 105.783 25.0684 105.157 26.0802C104.533 27.0721 104.163 28.2656 104.048 29.6608C103.932 31.056 104.1 32.3041 104.55 33.4051C105.001 34.5061 105.681 35.3852 106.589 36.0425C107.52 36.6815 108.613 37.0531 109.869 37.1571Z"/><path fill="#06283D" d="M135.214 25.2224L130.008 37.0908C129.438 38.3912 129.339 39.538 129.711 40.5313C130.091 41.5062 130.895 42.2628 132.122 42.801C133.368 43.3474 134.478 43.4303 135.453 43.0499C136.436 42.6511 137.213 41.8016 137.783 40.5012L142.989 28.6328L146.863 30.3319L141.669 42.1729C140.954 43.803 139.99 45.0291 138.778 45.8514C137.592 46.6633 136.279 47.0921 134.839 47.1376C133.418 47.1913 131.984 46.9007 130.537 46.266C129.108 45.6394 127.932 44.7851 127.009 43.7032C126.105 42.6292 125.558 41.385 125.371 39.9705C125.191 38.5377 125.459 37.0063 126.174 35.3762L131.368 23.5352L135.214 25.2224Z"/><path fill="#06283D" d="M168.049 47.4278L165.753 49.9219L161.648 46.1426L149.761 59.0546L146.671 56.21L158.558 43.298L154.452 39.5188L156.748 37.0247L168.049 47.4278Z"/><path fill="#06283D" d="M190.858 102.595L170.204 106.041L169.513 101.898L183.923 99.4937L168.629 96.6017L168.026 92.9916L181.494 85.3L167.142 87.6948L166.446 83.5225L187.101 80.0759L187.945 85.1359L173.457 94.0016L190.019 97.5641L190.858 102.595Z"/><path fill="#06283D" d="M187.398 129.096L175.1 119.866L167.909 118.666L168.6 114.524L175.791 115.724L190.425 110.957L189.645 115.633L179.465 118.496L188.168 124.48L187.398 129.096Z"/><path fill="#06283D" d="M145.83 155.521L154.756 158.395L156.213 157.054L150.686 151.051L153.776 148.206L167.958 163.612L162.176 168.935C160.984 170.033 159.772 170.754 158.54 171.099C157.322 171.459 156.176 171.469 155.1 171.127C154.023 170.813 153.078 170.215 152.265 169.332C151.331 168.317 150.778 167.126 150.608 165.761C150.452 164.409 150.813 163.044 151.691 161.665L142.255 158.812L145.83 155.521ZM158.346 159.372L155.764 161.749C154.925 162.521 154.483 163.295 154.436 164.072C154.404 164.863 154.719 165.619 155.383 166.34C156.033 167.047 156.74 167.401 157.504 167.405C158.282 167.423 159.09 167.046 159.929 166.274L162.511 163.896L158.346 159.372Z"/><path fill="#06283D" d="M138.548 180.57L136.439 175.762L129.983 178.594L128.645 175.544L135.101 172.712L132.872 167.63L125.591 170.823L124.218 167.691L135.344 162.811L143.768 182.014L132.641 186.895L131.267 183.763L138.548 180.57Z"/><path fill="#06283D" d="M108.971 170.111C110.426 169.99 111.762 170.13 112.98 170.531C114.177 170.934 115.153 171.575 115.909 172.456C116.664 173.337 117.104 174.414 117.23 175.688L112.745 176.059C112.615 175.207 112.259 174.554 111.68 174.101C111.081 173.649 110.303 173.462 109.346 173.542C108.369 173.622 107.621 173.915 107.101 174.42C106.582 174.945 106.354 175.586 106.417 176.343C106.468 176.961 106.7 177.453 107.112 177.821C107.523 178.188 108.027 178.457 108.623 178.629C109.201 178.821 110 179.016 111.02 179.213C112.408 179.499 113.547 179.796 114.435 180.104C115.305 180.433 116.082 180.961 116.764 181.687C117.428 182.434 117.814 183.466 117.923 184.782C118.026 186.017 117.806 187.119 117.264 188.087C116.722 189.055 115.913 189.825 114.836 190.396C113.762 190.986 112.507 191.341 111.071 191.46C108.919 191.639 107.131 191.255 105.708 190.309C104.267 189.385 103.399 187.992 103.104 186.13L107.708 185.748C107.808 186.463 108.165 187.025 108.781 187.436C109.379 187.868 110.146 188.045 111.083 187.967C111.9 187.9 112.541 187.636 113.004 187.176C113.448 186.718 113.637 186.09 113.571 185.293C113.524 184.735 113.306 184.281 112.916 183.932C112.508 183.605 112.024 183.344 111.466 183.149C110.89 182.976 110.091 182.782 109.07 182.565C107.682 182.279 106.542 181.972 105.652 181.644C104.762 181.317 103.975 180.78 103.291 180.034C102.607 179.288 102.212 178.267 102.104 176.971C102.012 175.855 102.215 174.795 102.714 173.79C103.212 172.785 103.996 171.948 105.064 171.277C106.134 170.627 107.437 170.238 108.971 170.111Z"/><path fill="#06283D" d="M86.8078 189.745L89.9893 177.181C90.3379 175.805 90.2468 174.657 89.716 173.739C89.1803 172.84 88.263 172.226 86.964 171.897C85.6456 171.563 84.5369 171.664 83.6379 172.2C82.734 172.755 82.1077 173.721 81.7591 175.097L78.5776 187.661L74.4771 186.622L77.6512 174.088C78.0881 172.362 78.8369 170.994 79.8974 169.984C80.9337 168.988 82.158 168.349 83.5704 168.067C84.9635 167.78 86.4258 167.83 87.9574 168.218C89.4697 168.601 90.7702 169.25 91.8588 170.166C92.928 171.076 93.6716 172.213 94.0895 173.578C94.5024 174.961 94.4904 176.516 94.0534 178.242L90.8793 190.776L86.8078 189.745Z"/><path fill="#06283D" d="M47.63 171.198L59.0831 153.668L62.5992 155.965L55.1498 167.367L67.2957 159.033L69.9579 160.772L67.2301 175.259L74.6795 163.857L78.1956 166.154L66.7425 183.685L62.7492 181.076L65.6897 164.398L51.5982 173.79L47.63 171.198Z"/><path fill="#06283D" d="M39.8343 157.214L43.9773 153.989L39.6471 148.426L42.2749 146.38L46.6051 151.944L50.9848 148.535L46.1018 142.261L48.8007 140.161L56.2634 149.749L39.7151 162.629L32.2524 153.041L34.9513 150.94L39.8343 157.214Z"/><circle cx="105" cy="105" r="46" fill="#FF577F" stroke="#06283D" stroke-width="4"/><rect width="48" height="48" x="81" y="81" fill="#fff" rx="24"/><path fill="#06283D" d="M121.125 105.031C121.125 105.594 120.938 106.062 120.562 106.438L109.25 117.75L106.406 120.594C106.031 120.969 105.562 121.156 105 121.156C104.438 121.156 103.969 120.969 103.594 120.594L100.75 117.75L89.4375 106.438C89.0625 106.062 88.875 105.594 88.875 105.031C88.875 104.469 89.0625 104 89.4375 103.625L92.2812 100.781C92.6562 100.406 93.125 100.219 93.6875 100.219C94.25 100.219 94.7188 100.406 95.0938 100.781L101 106.688V91C101 90.4583 101.198 89.9896 101.594 89.5938C101.99 89.1979 102.458 89 103 89H107C107.542 89 108.01 89.1979 108.406 89.5938C108.802 89.9896 109 90.4583 109 91V106.688L114.906 100.781C115.302 100.385 115.771 100.188 116.312 100.188C116.854 100.188 117.323 100.385 117.719 100.781L120.562 103.625C120.938 104 121.125 104.469 121.125 105.031ZM129 105C129 100.646 127.927 96.6302 125.781 92.9531C123.635 89.276 120.724 86.3646 117.047 84.2188C113.37 82.0729 109.354 81 105 81C100.646 81 96.6302 82.0729 92.9531 84.2188C89.276 86.3646 86.3646 89.276 84.2188 92.9531C82.0729 96.6302 81 100.646 81 105C81 109.354 82.0729 113.37 84.2188 117.047C86.3646 120.724 89.276 123.635 92.9531 125.781C96.6302 127.927 100.646 129 105 129C109.354 129 113.37 127.927 117.047 125.781C120.724 123.635 123.635 120.724 125.781 117.047C127.927 113.37 129 109.354 129 105Z"/></svg>