<svg width="491" height="516" viewBox="0 0 491 516" fill="none" xmlns="http://www.w3.org/2000/svg">
<path d="M185.379 727.685C189.473 728.413 193.692 727.872 197.47 726.134C201.248 724.396 204.405 721.545 206.518 717.963C219.919 695.235 224.75 669.248 220.99 640.707C217.845 617.136 209.025 592.14 194.017 564.34C167.807 515.694 127.079 467.457 94.3744 428.704C79.4804 411.06 65.4069 394.396 55.4017 380.832C51.2742 375.384 47.5057 369.673 44.1201 363.735C49.2367 363.884 57.2933 365.001 69.6575 368.637C89.7136 374.529 113.53 384.594 138.76 395.262C168.878 408.005 200.034 421.181 227.645 428.316C243.77 432.454 257.353 434.186 269.193 433.617C284.953 432.853 297.875 427.918 307.619 418.97C343.059 386.372 304.644 317.779 260.168 238.357C243.678 208.905 226.619 178.449 215.976 153.59C202.848 122.952 205.048 113.412 205.572 111.896C208.307 110.494 217.093 108.705 240.191 121.653C259.94 132.709 282.89 150.444 305.043 167.655C328.313 185.698 350.215 202.75 370.613 214.171C381.188 220.098 413.369 238.107 438.838 220.405C456.957 207.811 462.769 186.382 456.25 156.725C451.692 136.049 441.562 112.512 431.784 89.75C422.668 68.5497 413.255 46.6428 409.597 29.6939C408.458 24.3825 406.258 11.7307 410.737 8.84695C414.474 6.43058 429.22 3.85463 458.29 11.3431C483.577 17.8628 551.825 40.807 639.376 112.968C718.04 177.834 786.948 262.829 838.502 358.777C841.065 363.541 845.415 367.091 850.595 368.647C855.775 370.203 861.361 369.637 866.124 367.075C870.886 364.513 874.435 360.165 875.993 354.986C877.55 349.808 876.989 344.222 874.432 339.458C820.383 238.893 748.067 149.692 665.29 81.4751C599.196 27.0154 527.404 -12.946 468.444 -28.151C432.593 -37.3948 405.768 -36.4829 388.607 -25.4268C383.347 -22.032 378.84 -17.5937 375.365 -12.3865C371.89 -7.17924 369.52 -1.31396 368.402 4.84628C366.499 14.4206 366.932 25.3627 369.736 38.3222C374.237 59.1236 384.447 82.877 394.316 105.855C403.352 126.873 412.64 148.666 416.434 165.547C417.631 170.949 419.944 183.863 415.557 186.918C414.6 187.579 407.58 188.115 390.487 178.575C372.755 168.647 351.981 152.519 329.999 135.433C306.661 117.31 282.583 98.5151 260.134 85.9773C246.938 78.58 235.36 73.884 224.739 71.6272C210.438 68.5839 197.629 69.9517 186.644 75.6963C181.767 78.2082 177.458 81.6943 173.983 85.9389C170.508 90.1834 167.94 95.0961 166.44 100.373C156.662 133.268 181.892 181.949 224.557 258.213C241.844 289.09 259.723 321.016 270.549 347.003C284.622 380.821 280.007 388.822 279.962 388.891C276.543 391.991 266.583 396.117 237.741 388.72C213.07 382.394 183.339 369.822 154.554 357.66C96.323 333.029 46.0232 311.76 15.449 329.541C11.5347 331.751 8.16199 334.806 5.57581 338.483C2.98962 342.16 1.255 346.367 0.498108 350.799C-3.62708 374.586 17.9219 401.383 63.1735 454.931C94.6707 492.237 133.826 538.672 158.087 583.592C183.875 631.463 188.216 668.586 171.351 697.184C169.991 699.491 169.099 702.044 168.725 704.696C168.352 707.348 168.504 710.048 169.174 712.641C169.844 715.234 171.018 717.67 172.629 719.81C174.24 721.949 176.257 723.75 178.564 725.109C180.661 726.374 182.97 727.247 185.379 727.685Z" fill="#06283D"/>
<path d="M195.635 723.126C199.729 723.854 203.948 723.313 207.726 721.575C211.504 719.837 214.661 716.986 216.773 713.404C230.175 690.676 235.006 664.689 231.246 636.148C228.101 612.577 219.281 587.581 204.273 559.781C178.063 511.135 137.335 462.898 104.63 424.145C89.7363 406.501 75.6628 389.837 65.6575 376.273C61.53 370.825 57.7615 365.114 54.376 359.176C59.4926 359.324 67.5492 360.441 79.9133 364.077C99.9695 369.97 123.786 380.035 149.016 390.703C179.134 403.446 210.289 416.622 237.901 423.757C254.025 427.895 267.609 429.627 279.449 429.057C295.209 428.294 308.131 423.359 317.875 414.411C353.315 381.813 314.9 313.22 270.424 233.798C253.934 204.346 236.875 173.89 226.232 149.031C213.104 118.393 215.303 108.853 215.828 107.337C218.563 105.935 227.349 104.146 250.447 117.094C270.196 128.15 293.146 145.885 315.299 163.096C338.569 181.139 360.471 198.191 380.869 209.612C391.444 215.539 423.625 233.547 449.094 215.846C467.213 203.252 473.024 181.823 466.506 152.166C461.948 131.49 451.817 107.953 442.04 85.191C432.924 63.9907 423.511 42.0837 419.853 25.1348C418.713 19.8234 416.514 7.17157 420.993 4.28787C424.73 1.87149 439.476 -0.704453 468.546 6.78404C493.833 13.3037 562.08 36.2479 649.632 108.409C728.295 173.275 797.204 258.27 848.757 354.218C851.321 358.982 855.671 362.532 860.851 364.088C866.031 365.644 871.617 365.078 876.38 362.516C881.141 359.954 884.691 355.606 886.249 350.427C887.806 345.249 887.245 339.663 884.687 334.899C830.638 234.334 758.323 145.133 675.546 76.916C609.452 22.4563 537.66 -17.5051 478.699 -32.7101C442.849 -41.9538 416.024 -41.042 398.862 -29.9859C393.603 -26.5911 389.096 -22.1528 385.621 -16.9455C382.146 -11.7383 379.776 -5.87304 378.658 0.287193C376.755 9.86152 377.188 20.8036 379.991 33.7631C384.55 54.5645 394.703 78.318 404.572 101.296C413.608 122.314 422.896 144.107 426.69 160.988C427.887 166.39 430.2 179.304 425.813 182.359C424.856 183.02 417.836 183.556 400.743 174.016C383.011 164.088 362.237 147.96 340.255 130.874C316.917 112.751 292.839 93.956 270.389 81.4182C257.193 74.0209 245.616 69.3249 234.995 67.0681C220.694 64.0249 207.885 65.3926 196.9 71.1372C192.023 73.6491 187.714 77.1352 184.239 81.3798C180.764 85.6243 178.196 90.537 176.695 95.8139C166.918 128.709 192.148 177.389 234.813 253.654C252.1 284.531 269.979 316.457 280.805 342.444C294.878 376.262 290.263 384.263 290.218 384.332C286.799 387.432 276.839 391.558 247.997 384.161C223.326 377.835 193.595 365.263 164.81 353.101C106.579 328.47 56.2791 307.201 25.7049 324.982C21.7906 327.192 18.4178 330.247 15.8317 333.924C13.2455 337.601 11.5109 341.808 10.754 346.24C6.62878 370.027 28.1777 396.824 73.4293 450.372C104.927 487.677 144.081 534.113 168.343 579.032C194.131 626.904 198.472 664.027 181.607 692.625C180.247 694.932 179.355 697.485 178.981 700.137C178.608 702.789 178.76 705.489 179.43 708.082C180.1 710.675 181.274 713.111 182.885 715.251C184.496 717.39 186.513 719.191 188.82 720.55C190.917 721.815 193.226 722.688 195.635 723.126Z" fill="white"/>
<path d="M195.635 723.126C199.729 723.854 203.948 723.313 207.726 721.575C211.504 719.837 214.661 716.986 216.773 713.404C230.175 690.676 235.006 664.689 231.246 636.148C228.101 612.577 219.281 587.581 204.273 559.781C178.063 511.135 137.335 462.898 104.63 424.145C89.7363 406.501 75.6628 389.837 65.6575 376.273C61.5301 370.825 57.7615 365.114 54.376 359.176C59.4925 359.324 67.5492 360.441 79.9133 364.077C99.9695 369.97 123.786 380.035 149.016 390.703C179.134 403.446 210.289 416.622 237.901 423.757C254.025 427.895 267.609 429.627 279.449 429.058C295.209 428.294 308.131 423.359 317.875 414.411C353.315 381.813 314.9 313.22 270.424 233.798C253.934 204.346 236.875 173.89 226.232 149.031C213.104 118.393 215.303 108.853 215.828 107.337C218.563 105.935 227.349 104.146 250.447 117.094C270.196 128.15 293.146 145.885 315.299 163.096C338.569 181.139 360.471 198.191 380.869 209.612C391.444 215.539 423.625 233.547 449.094 215.846C467.213 203.252 473.024 181.823 466.506 152.166C461.948 131.49 451.817 107.953 442.04 85.191C432.924 63.9907 423.511 42.0837 419.853 25.1348C418.713 19.8234 416.514 7.17157 420.993 4.28787C424.73 1.87149 439.476 -0.704454 468.546 6.78404C493.833 13.3037 562.08 36.2479 649.632 108.409C728.295 173.275 797.204 258.27 848.757 354.218C851.321 358.982 855.671 362.532 860.851 364.088C866.031 365.644 871.617 365.078 876.38 362.516C881.141 359.954 884.691 355.606 886.249 350.427C887.806 345.248 887.245 339.663 884.687 334.899C830.638 234.334 758.323 145.133 675.546 76.916C609.452 22.4563 537.66 -17.5051 478.699 -32.7101C442.849 -41.9538 416.024 -41.042 398.862 -29.9859C393.603 -26.5911 389.096 -22.1528 385.621 -16.9455C382.146 -11.7383 379.776 -5.87304 378.658 0.287194C376.755 9.86152 377.188 20.8036 379.991 33.7631C384.55 54.5645 394.703 78.318 404.572 101.296C413.608 122.314 422.896 144.107 426.69 160.988C427.887 166.39 430.2 179.304 425.813 182.359C424.856 183.02 417.836 183.556 400.743 174.016C383.011 164.088 362.237 147.96 340.255 130.874C316.917 112.751 292.839 93.956 270.389 81.4182C257.193 74.0209 245.616 69.3249 234.995 67.0681C220.694 64.0249 207.885 65.3926 196.9 71.1372C192.023 73.6491 187.714 77.1352 184.239 81.3798C180.764 85.6243 178.196 90.537 176.695 95.8139C166.918 128.709 192.148 177.389 234.813 253.654C252.1 284.531 269.979 316.457 280.805 342.444C294.878 376.262 290.263 384.263 290.218 384.332C286.799 387.432 276.839 391.558 247.997 384.161C223.326 377.835 193.595 365.263 164.81 353.101C106.579 328.47 56.279 307.201 25.7049 324.982C21.7906 327.192 18.4178 330.247 15.8317 333.924C13.2455 337.601 11.5109 341.808 10.754 346.24C6.62879 370.027 28.1777 396.824 73.4293 450.372C104.926 487.677 144.081 534.113 168.343 579.032C194.131 626.904 198.472 664.027 181.607 692.625C180.247 694.932 179.355 697.485 178.981 700.137C178.608 702.789 178.76 705.489 179.43 708.082C180.1 710.675 181.274 713.111 182.885 715.251C184.496 717.39 186.513 719.191 188.82 720.55C190.917 721.815 193.226 722.688 195.635 723.126V723.126Z" stroke="#06283D" stroke-width="4" stroke-linecap="round" stroke-linejoin="round"/>
<path d="M203.612 715.148C207.706 715.875 211.925 715.334 215.703 713.596C219.481 711.859 222.638 709.008 224.75 705.425C238.152 682.697 242.983 656.71 239.223 628.169C236.078 604.598 227.258 579.602 212.25 551.803C186.04 503.156 145.312 454.92 112.607 416.166C97.7133 398.522 83.6398 381.858 73.6346 368.295C69.5071 362.847 65.7386 357.136 62.353 351.198C67.4696 351.346 75.5262 352.463 87.8904 356.099C107.947 361.992 131.763 372.056 156.993 382.725C187.111 395.468 218.266 408.644 245.878 415.779C262.003 419.916 275.586 421.649 287.426 421.079C303.186 420.315 316.108 415.38 325.852 406.433C361.292 373.834 322.877 305.241 278.401 225.82C261.911 196.367 244.852 165.912 234.209 141.053C221.081 110.415 223.281 100.875 223.805 99.3588C226.54 97.9568 235.326 96.1673 258.424 109.115C278.173 120.172 301.123 137.907 323.276 155.118C346.546 173.161 368.448 190.212 388.846 201.633C399.421 207.56 431.602 225.569 457.071 207.868C475.19 195.273 481.001 173.845 474.483 144.187C469.925 123.511 459.794 99.9743 450.017 77.2124C440.901 56.0121 431.488 34.1052 427.83 17.1563C426.69 11.8449 424.491 -0.806946 428.97 -3.69064C432.707 -6.10702 447.453 -8.68297 476.523 -1.19448C501.81 5.32518 570.057 28.2694 657.609 100.43C736.272 165.296 805.181 250.291 856.734 346.24C859.298 351.003 863.648 354.553 868.828 356.109C874.008 357.665 879.594 357.1 884.357 354.537C889.118 351.975 892.668 347.627 894.226 342.449C895.783 337.27 895.222 331.685 892.664 326.92C838.616 226.355 766.3 137.155 683.523 68.9375C617.429 14.4778 545.637 -25.4836 486.676 -40.6886C450.826 -49.9324 424.001 -49.0205 406.839 -37.9644C401.58 -34.5696 397.073 -30.1313 393.598 -24.9241C390.123 -19.7168 387.753 -13.8516 386.635 -7.69132C384.732 1.88301 385.165 12.8251 387.969 25.7846C392.47 46.586 402.68 70.3394 412.549 93.3178C421.585 114.336 430.873 136.129 434.667 153.009C435.864 158.412 438.177 171.326 433.79 174.38C432.833 175.042 425.813 175.577 408.72 166.037C390.988 156.109 370.271 139.981 348.289 122.896C324.894 104.773 300.816 85.9775 278.366 73.4397C265.17 66.0424 253.593 61.3464 242.972 59.0896C228.671 56.0463 215.862 57.4141 204.877 63.1587C200 65.6706 195.691 69.1567 192.216 73.4013C188.741 77.6458 186.173 82.5585 184.672 87.8354C174.895 120.73 200.125 169.411 242.79 245.675C260.077 276.552 277.956 308.478 288.782 334.466C302.855 368.283 298.24 376.285 298.195 376.353C294.776 379.453 284.816 383.58 255.974 376.182C231.303 369.856 201.572 357.284 172.787 345.123C114.556 320.492 64.2561 299.223 33.6819 317.004C29.7676 319.214 26.3949 322.268 23.8087 325.945C21.2225 329.622 19.4879 333.83 18.731 338.261C14.6058 362.049 36.1548 388.845 81.4064 442.393C112.904 479.699 152.059 526.134 176.32 571.054C202.108 618.926 206.449 656.049 189.584 684.646C188.224 686.954 187.332 689.506 186.958 692.159C186.585 694.811 186.737 697.51 187.407 700.104C188.077 702.697 189.251 705.133 190.862 707.272C192.473 709.411 194.49 711.212 196.797 712.572C198.894 713.837 201.203 714.71 203.612 715.148Z" fill="white"/>
<path d="M203.612 715.148C207.706 715.875 211.925 715.334 215.703 713.597C219.481 711.859 222.638 709.008 224.751 705.425C238.152 682.697 242.983 656.71 239.223 628.169C236.078 604.598 227.258 579.602 212.25 551.803C186.04 503.156 145.312 454.92 112.607 416.166C97.7133 398.522 83.6399 381.858 73.6346 368.295C69.5071 362.847 65.7386 357.136 62.353 351.198C67.4696 351.346 75.5263 352.463 87.8904 356.099C107.947 361.992 131.763 372.056 156.993 382.725C187.111 395.468 218.267 408.644 245.878 415.779C262.002 419.916 275.586 421.649 287.426 421.079C303.186 420.315 316.108 415.38 325.852 406.433C361.292 373.834 322.877 305.241 278.401 225.82C261.911 196.367 244.852 165.912 234.209 141.053C221.081 110.415 223.281 100.875 223.805 99.3588C226.54 97.9568 235.326 96.1673 258.424 109.115C278.173 120.172 301.123 137.907 323.276 155.118C346.546 173.161 368.448 190.212 388.846 201.633C399.421 207.56 431.602 225.569 457.071 207.868C475.19 195.273 481.001 173.845 474.483 144.187C469.925 123.511 459.794 99.9743 450.017 77.2124C440.901 56.0121 431.488 34.1052 427.83 17.1563C426.69 11.8449 424.491 -0.806948 428.97 -3.69064C432.707 -6.10702 447.453 -8.68297 476.523 -1.19448C501.81 5.32518 570.057 28.2694 657.609 100.43C736.272 165.296 805.181 250.291 856.734 346.24C859.298 351.003 863.648 354.553 868.828 356.109C874.008 357.665 879.594 357.1 884.357 354.537C889.118 351.975 892.668 347.627 894.226 342.449C895.783 337.27 895.222 331.685 892.664 326.92C838.616 226.355 766.3 137.155 683.523 68.9375C617.429 14.4778 545.637 -25.4836 486.676 -40.6886C450.826 -49.9324 424.001 -49.0205 406.839 -37.9644C401.58 -34.5696 397.073 -30.1313 393.598 -24.9241C390.123 -19.7168 387.753 -13.8516 386.635 -7.69132C384.732 1.88301 385.165 12.8251 387.969 25.7846C392.47 46.586 402.68 70.3394 412.549 93.3178C421.585 114.336 430.873 136.129 434.667 153.009C435.864 158.412 438.177 171.326 433.79 174.38C432.833 175.042 425.813 175.577 408.72 166.037C390.988 156.109 370.271 139.981 348.289 122.896C324.894 104.773 300.816 85.9775 278.366 73.4397C265.17 66.0424 253.593 61.3464 242.972 59.0896C228.671 56.0463 215.862 57.4141 204.877 63.1587C200 65.6706 195.691 69.1567 192.216 73.4013C188.741 77.6458 186.173 82.5585 184.672 87.8354C174.895 120.73 200.125 169.411 242.79 245.675C260.077 276.552 277.956 308.478 288.782 334.466C302.855 368.283 298.24 376.285 298.195 376.353C294.776 379.453 284.816 383.58 255.974 376.182C231.303 369.856 201.572 357.284 172.787 345.123C114.556 320.492 64.2561 299.223 33.6819 317.004C29.7677 319.214 26.3949 322.268 23.8087 325.945C21.2225 329.622 19.4879 333.83 18.731 338.261C14.6058 362.049 36.1548 388.845 81.4063 442.393C112.904 479.699 152.059 526.134 176.32 571.054C202.108 618.926 206.449 656.049 189.584 684.647C188.224 686.954 187.332 689.506 186.958 692.159C186.585 694.811 186.737 697.51 187.407 700.104C188.077 702.697 189.251 705.133 190.862 707.272C192.473 709.411 194.49 711.212 196.797 712.572C198.894 713.837 201.203 714.71 203.612 715.148V715.148Z" stroke="#06283D" stroke-width="4" stroke-linecap="round" stroke-linejoin="round"/>
</svg>
