<svg width="155" height="154" viewBox="0 0 155 154" fill="none" xmlns="http://www.w3.org/2000/svg">
<rect x="9.21716" y="9" width="136" height="136" rx="68" fill="#47B5FF" stroke="#E4EDF3" stroke-width="18"/>
<g clip-path="url(#clip0_24_7664)">
<path fill-rule="evenodd" clip-rule="evenodd" d="M93.2012 102.296C87.9662 102.296 84.5822 99.8 82.9322 96.536L87.5222 93.878C88.7312 95.852 90.3002 97.301 93.0812 97.301C95.4152 97.301 96.9062 96.134 96.9062 94.523C96.9062 92.099 93.6722 91.151 91.3892 90.173C87.3212 88.442 84.6212 86.267 84.6212 81.674C84.6212 77.447 87.8432 74.225 92.8802 74.225C96.4622 74.225 99.0422 75.473 100.893 78.734L96.5042 81.554C95.5382 79.823 94.4912 79.139 92.8802 79.139C91.2272 79.139 90.1802 80.186 90.1802 81.554C90.1802 83.246 91.2272 83.93 93.6452 84.977C98.7122 87.149 102.546 88.856 102.546 94.442C102.546 99.518 98.5592 102.296 93.2012 102.296ZM80.2172 93.797C80.2172 99.638 76.6202 102.725 71.6252 102.725C67.1132 102.725 64.4102 101 63.0812 98H63.0032L67.5902 94.793C68.4752 96.362 69.2732 97.475 71.2052 97.475C73.0592 97.475 74.2172 96.536 74.2172 93.719V74H80.2172V93.797ZM47.2172 107H107.217V47H47.2172V107Z" fill="white"/>
</g>
<defs>
<clipPath id="clip0_24_7664">
<rect width="60" height="60" fill="white" transform="translate(47.2172 47)"/>
</clipPath>
</defs>
</svg>
