<svg xmlns="http://www.w3.org/2000/svg" width="179" height="36" fill="none" viewBox="0 0 179 36"><g filter="url(#filter0_d_31_238)"><rect width="121.041" height="31.107" fill="#FF577F" transform="translate(52.9634)"/><path fill="#fff" d="M61.9836 24.2939V6.79092H64.6676L68.2036 15.2183V6.79092H71.3562V24.2939H68.7787L65.2427 15.2183V24.2939H61.9836Z"/><path fill="#fff" d="M73.924 24.2939V6.79092H81.6776V9.42717H77.7369V13.7705H80.7404V16.45H77.7369V21.6793H81.7202V24.2939H73.924Z"/><path fill="#fff" d="M88.3932 24.5532C87.0867 24.5532 86.0501 24.3155 85.2832 23.8401C84.5306 23.3503 83.998 22.6733 83.6856 21.8089C83.3732 20.9302 83.217 19.9002 83.217 18.7189V12.4092C83.217 11.1991 83.3732 10.1619 83.6856 9.29752C83.998 8.41877 84.5306 7.7417 85.2832 7.26631C86.0501 6.79092 87.0867 6.55322 88.3932 6.55322C89.6713 6.55322 90.6653 6.76931 91.3754 7.20148C92.0996 7.61925 92.6108 8.20989 92.9091 8.97339C93.2073 9.7369 93.3564 10.6156 93.3564 11.6096V13.1223H89.6287V11.3719C89.6287 11.0262 89.6074 10.6949 89.5648 10.378C89.5364 10.061 89.437 9.80172 89.2665 9.60004C89.0961 9.38395 88.805 9.27591 88.3932 9.27591C87.9956 9.27591 87.6973 9.38395 87.4985 9.60004C87.3139 9.81613 87.1932 10.0898 87.1364 10.4212C87.0938 10.7381 87.0725 11.0766 87.0725 11.4368V19.6697C87.0725 20.0586 87.1009 20.4188 87.1577 20.7501C87.2287 21.067 87.3565 21.3263 87.5411 21.528C87.74 21.7153 88.024 21.8089 88.3932 21.8089C88.7908 21.8089 89.0748 21.7081 89.2452 21.5064C89.4156 21.2903 89.5222 21.0166 89.5648 20.6853C89.6074 20.3539 89.6287 20.0154 89.6287 19.6697V17.8329H93.3564V19.3455C93.3564 20.3395 93.2073 21.2327 92.9091 22.025C92.625 22.8029 92.1209 23.4224 91.3967 23.8834C90.6866 24.3299 89.6855 24.5532 88.3932 24.5532Z"/><path fill="#fff" d="M95.518 24.2939V6.79092H99.3309V13.8786H101.994V6.79092H105.828V24.2939H101.994V16.6445H99.3309V24.2939H95.518Z"/><path fill="#fff" d="M110.628 24.2939V17.1415L107.348 6.79092H110.948L112.588 12.3227L114.058 6.79092H117.508L114.292 17.1415V24.2939H110.628Z"/><path fill="#fff" d="M120.515 24.2939V9.66487H117.917V6.79092H126.927V9.66487H124.35V24.2939H120.515Z"/><path fill="#fff" d="M126.846 24.2939L130.105 6.79092H134.45L137.667 24.2939H134.152L133.577 20.5988H131.042L130.446 24.2939H126.846ZM131.383 18.2867H133.215L132.299 11.4584L131.383 18.2867Z"/><path fill="#fff" d="M139.264 24.2939V6.79092H143.076V24.2939H139.264Z"/><path fill="#fff" d="M145.649 24.2939V6.79092H149.462V21.6793H153.424V24.2939H145.649Z"/><path fill="#fff" d="M159.765 24.5532C158.473 24.5532 157.45 24.3227 156.697 23.8617C155.945 23.4008 155.405 22.7381 155.079 21.8738C154.752 21.0094 154.589 19.9794 154.589 18.7837V12.2795C154.589 11.0694 154.752 10.0394 155.079 9.18948C155.405 8.33954 155.945 7.69128 156.697 7.2447C157.45 6.78372 158.473 6.55322 159.765 6.55322C161.071 6.55322 162.101 6.78372 162.854 7.2447C163.62 7.69128 164.167 8.33954 164.494 9.18948C164.82 10.0394 164.984 11.0694 164.984 12.2795V18.7837C164.984 19.9794 164.82 21.0094 164.494 21.8738C164.167 22.7381 163.62 23.4008 162.854 23.8617C162.101 24.3227 161.071 24.5532 159.765 24.5532ZM159.765 21.8089C160.162 21.8089 160.454 21.7081 160.638 21.5064C160.823 21.3047 160.944 21.0454 161 20.7285C161.057 20.4116 161.086 20.0874 161.086 19.7561V11.3287C161.086 10.983 161.057 10.6589 161 10.3563C160.944 10.0394 160.823 9.78011 160.638 9.57843C160.454 9.37675 160.162 9.27591 159.765 9.27591C159.396 9.27591 159.119 9.37675 158.934 9.57843C158.749 9.78011 158.629 10.0394 158.572 10.3563C158.515 10.6589 158.487 10.983 158.487 11.3287V19.7561C158.487 20.0874 158.508 20.4116 158.551 20.7285C158.607 21.0454 158.721 21.3047 158.891 21.5064C159.076 21.7081 159.367 21.8089 159.765 21.8089Z"/></g><path fill="#06283D" d="M3.07712 6.91406H0L2.99395 26.2737H7.54032L10.5343 6.91406H7.73438L5.40575 22.706L3.07712 6.91406Z"/><path fill="#06283D" d="M11.9576 26.2737H20.0247V23.5081H15.007V6.91406H11.9576V26.2737Z"/><path fill="#06283D" d="M28.1157 6.91406H23.6525L20.5477 26.2737H23.3476L23.8743 22.7613H27.6167L28.1434 26.2737H31.2206L28.1157 6.91406ZM25.7317 10.3435L27.2009 20.134H24.2624L25.7317 10.3435Z"/><path fill="#06283D" d="M32.6407 26.2737H37.4642C40.5136 26.2737 42.0106 24.5867 42.0106 21.4891V11.6987C42.0106 8.60112 40.5136 6.91406 37.4642 6.91406H32.6407V26.2737ZM37.4088 9.67973C38.3791 9.67973 38.9612 10.1776 38.9612 11.5604V21.6274C38.9612 23.0102 38.3791 23.5081 37.4088 23.5081H35.6901V9.67973H37.4088Z"/><defs><filter id="filter0_d_31_238" width="125.041" height="35.107" x="52.963" y="0" color-interpolation-filters="sRGB" filterUnits="userSpaceOnUse"><feFlood flood-opacity="0" result="BackgroundImageFix"/><feColorMatrix in="SourceAlpha" result="hardAlpha" type="matrix" values="0 0 0 0 0 0 0 0 0 0 0 0 0 0 0 0 0 0 127 0"/><feOffset dx="4" dy="4"/><feComposite in2="hardAlpha" operator="out"/><feColorMatrix type="matrix" values="0 0 0 0 0 0 0 0 0 0 0 0 0 0 0 0 0 0 1 0"/><feBlend in2="BackgroundImageFix" mode="normal" result="effect1_dropShadow_31_238"/><feBlend in="SourceGraphic" in2="effect1_dropShadow_31_238" mode="normal" result="shape"/></filter></defs></svg>