<svg id="10015.io" viewBox="0 0 1200 630" xmlns="http://www.w3.org/2000/svg"><defs><pattern id="pattern" x="0" y="0" width="49" height="49" patternUnits="userSpaceOnUse" patternTransform="translate(30, 30) rotate(0) skewX(1)"><svg width="19" height="19" viewBox="0 0 100 100"><g fill="#47d3ff" opacity="1"><path d="M84.9475 44.3494C83.6342 35.9438 76.3471 29.4922 67.5781 29.4922C64.2793 29.4922 61.1094 30.4049 58.36 32.1072C54.1772 25.0775 46.6469 20.7031 38.2812 20.7031C25.358 20.7031 14.8438 31.2174 14.8438 44.1406C14.8438 44.2207 14.8437 44.3037 14.8467 44.3838C6.54102 45.7828 0 53.024 0 61.7188C0 71.4119 8.08027 79.2969 17.7734 79.2969H82.2266C91.9197 79.2969 100 71.4119 100 61.7188C100 52.9498 93.3531 45.6627 84.9475 44.3494V44.3494Z"></path></g></svg></pattern></defs><rect x="0" y="0" width="100%" height="100%" fill="#393952"></rect><rect x="0" y="0" width="100%" height="100%" fill="url(#pattern)"></rect></svg>