<svg width="154" height="154" viewBox="0 0 154 154" fill="none" xmlns="http://www.w3.org/2000/svg">
<rect x="9" y="9" width="136" height="136" rx="68" fill="#6652E4" stroke="#E4EDF3" stroke-width="18"/>
<path d="M76.7186 83.0107C80.0382 83.0107 82.7293 80.3196 82.7293 77C82.7293 73.6803 80.0382 70.9893 76.7186 70.9893C73.399 70.9893 70.7079 73.6803 70.7079 77C70.7079 80.3196 73.399 83.0107 76.7186 83.0107Z" fill="white"/>
<path d="M76.7186 89.3148C94.5312 89.3148 108.971 83.8013 108.971 77.0002C108.971 70.199 94.5312 64.6855 76.7186 64.6855C58.906 64.6855 44.466 70.199 44.466 77.0002C44.466 83.8013 58.906 89.3148 76.7186 89.3148Z" stroke="white" stroke-width="3"/>
<path d="M66.0538 83.1573C74.9601 98.5835 86.9549 108.332 92.8449 104.932C98.7349 101.531 96.2897 86.2689 87.3834 70.8427C78.4771 55.4165 66.4823 45.6679 60.5923 49.0684C54.7023 52.469 57.1475 67.7311 66.0538 83.1573Z" stroke="white" stroke-width="3"/>
<path d="M66.0538 70.8425C57.1475 86.2687 54.7023 101.531 60.5923 104.931C66.4823 108.332 78.4771 98.5833 87.3834 83.1571C96.2897 67.731 98.7349 52.4689 92.8449 49.0683C86.9549 45.6677 74.9601 55.4163 66.0538 70.8425Z" stroke="white" stroke-width="3"/>
</svg>
