<svg id="圖層_1" height="512" viewBox="0 0 500 500" width="512" xmlns="http://www.w3.org/2000/svg" data-name="圖層 1"><path d="m191.16 230.14c3.57 0 2.65-5.7-.39-5.7-3.57 0-2.64 5.7.39 5.7z" fill="#00e3ad"/><path d="m190.06 229.84a114.28 114.28 0 0 1 11 15.57l4.2-2.32q-5.25-7.78-9.79-16l-4.2 2.33a67.47 67.47 0 0 0 9.53 12.51c2.25 2.32 5.65-.25 3.74-3l-5.54-7.93c-2.25-3.23-3-4.65-.45-8.11l10.6-14.17 11.19-15c2.35-3.14 2.59-4.23 5.59-1.52q3.27 3 6.37 6.12a168.67 168.67 0 0 1 35.58 53.4c.77 1.83 4.59 4 4.92.61.69-7.05-2.2-12.93-6.15-18.6a223.07 223.07 0 0 0 -14.16-18.11 243.81 243.81 0 0 0 -17.14-17.93c-4-3.76-9.13-9.76-15.27-8.57s-11.05 9.73-14.39 14.41c-3.92 5.5-9 12.19-10.64 18.8s3.78 14.12 6.46 19.91l11.34 24.46 4.19-2.32-18.37-28.2-3.73 3a114.49 114.49 0 0 1 20.6 34.82l4.51-1.59c-5.27-7.79-16.62-1.79-11.5 6.61 2.13 3.5 6.5 4.73 9.85 2.08 4.37-3.45 2-10 .95-14.48-1.79-7.66-2.78-14.9.36-22.39a24.42 24.42 0 0 1 15.29-14.05c15.13-4.53 26 8.29 32.83 19.94l4.2-2.32a249.94 249.94 0 0 0 -47.61-54.31c-2.74-2.33-4.54 2-2.72 4.15l23.17 26.87 2.13-4.51a74.21 74.21 0 0 1 -28.28-21.7l-2.72 4.16a64.14 64.14 0 0 1 13 11.44c2.62 3 5.3-.91 3.28-3.64-3.29-4.44-7.89-15-14.54-10.15-7.16 5.19-13.38 12.37-18.95 19.17l4.27 3.9 15.64-25.53-4.7-3.36a139.1 139.1 0 0 1 -10.22 24.05c-1.33 2.47 2 5.8 4.28 3.9a32.82 32.82 0 0 0 9.22-12.3c1.2-2.73-2.84-6.51-4.63-3.36l-6.13 10.8c-1.28 2.25 2.24 6.24 4.27 3.9l4.91-5.66c2-2.33-1.35-6.57-3.92-4.44a28.54 28.54 0 0 0 -10.28 22l4.64-.84a8 8 0 0 1 -1.51-3.64l-4.51 1.58 7.17 15.95c1 2.31 5.17 2.16 4.65-.84a127.77 127.77 0 0 1 -1.67-14.85l-5 .1 2.88 12.36c.69 3 4.84 3.28 5-.1l.45-12.41c.1-2.71-4.68-4.78-5.06-1.35a40.09 40.09 0 0 0 -.06 8.76c.28 2.59 4.24 4.86 5.06 1.35l4.95-21.1-5.06-1.35a65.21 65.21 0 0 1 .45 12.8c-.19 2.89 4.32 5.93 5 2.06l2.12-11.34-5.11-1.32a15.43 15.43 0 0 0 1.18 5.71c.61 1.49 3.85 4.07 4.73 1.26l2.12-6.81-4.42-.51c2.72 4.89 11 3.14 15.64 3.25l-2.14-5.11-6.71 5.56 4.48 3.26v-.2l-4.92-.61c-.78-2.05-3.24.26-4.65 1.2a24.38 24.38 0 0 0 -4.64 3.83 12.4 12.4 0 0 0 -3.34 9.2c.06 1.7 3 4.77 4.51 2.54l1.38-2.1c1.6-2.44-1.28-6.79-3.92-4.45l-3.19 2.81 4.28 3.9a36.22 36.22 0 0 1 23.95-16.24c1.75-.34 2.15-2.68 1.25-4l-1.64-2.49c-1.11-1.65-3.16-2.48-4.42-.52-2.84 4.45-14.28-8.3-14-11.54.22-2.95-4.51-5.89-5-2.06l-1.2 8.85c-.32 2.35 3.76 6 4.83 2.71l.95-2.95-4.86-2a12.5 12.5 0 0 1 -3.79 9.78l2.42-.46a15.85 15.85 0 0 0 -15 3.09c-.71.57-.67 1.88-.45 2.65a67.91 67.91 0 0 0 9.86 20.17c1.32 1.87 4.58 1 4.18-1.5a23.45 23.45 0 0 1 5.63-19.73c3.45-3.79 9.79-5.85 8-12-1-3.38-5.89-2.92-4.82.85.29 1-5.73 5.2-6.64 6.15a27.55 27.55 0 0 0 -4.9 7.09 28.5 28.5 0 0 0 -2.4 17l4.19-1.5a58.29 58.29 0 0 1 -8.32-17.38l-.45 2.64a11.23 11.23 0 0 1 10.2-2.17 2.18 2.18 0 0 0 2.41-.46 17.62 17.62 0 0 0 5-13.58c-.09-2-3.88-5-4.86-2l-.95 2.94 4.82 2.71 1.21-8.85-5-2.06c-.54 7.21 4.67 11.43 9.63 15.81 2.3 2 4.48 5.15 7.78 5.18 2.9 0 4.82-1.74 6.28-4l-4.41-.52 1.66 2.46 1.26-4a40.57 40.57 0 0 0 -26.89 18.56c-1.48 2.35 2.06 5.87 4.27 3.9l3.16-2.8-4.04-4.46-1.38 2.11 4.5 2.54c-.19-5 4.88-8.07 8.72-10.18 2.36-1.29 4.85-2.37 3.64-5.54-.73-1.91-4.6-4-4.92-.61v.2c-.22 2.36 2.22 5.13 4.47 3.26l6.71-5.57c1.71-1.41-.17-5-2.16-5.07-1 0-11.06.09-11 .13-.76-1.36-3.7-2.8-4.41-.51l-2.12 6.8 4.72 1.25a7.51 7.51 0 0 1 -.9-4.22c-.07-2.67-4.43-4.82-5.06-1.36l-2.09 11.37 5 2.06a71.92 71.92 0 0 0 -.39-14.22c-.33-2.55-4.22-4.91-5.06-1.36l-4.94 21.1 5.06 1.36a34 34 0 0 1 0-7.34l-5.06-1.35-.51 12.43 4.95-.11-2.83-12.42c-.65-2.85-5.15-3.39-5 .11a127.77 127.77 0 0 0 1.67 14.85l4.64-.84-7.18-16c-1.33-3-5.31-1.62-4.51 1.58a18 18 0 0 0 2.14 5.12c1.4 2.31 4.58 2.19 4.65-.84a23.92 23.92 0 0 1 9.11-18.16l-3.92-4.44-4.91 5.65 4.28 3.9 6.13-10.79-4.63-3.36a29.85 29.85 0 0 1 -8.52 11.22l4.28 3.9a139.1 139.1 0 0 0 10.22-24c.87-2.72-2.66-6.57-4.63-3.36l-15.64 25.53c-1.36 2.22 2.33 6.28 4.28 3.9a141.56 141.56 0 0 1 12.7-13.67c1.07-1 2.14-2.08 3.29-3 1.51-1.2 2.47-2.45 4.17-1.44 2.1 1.24 4.7 6.34 6.13 8.28l3.28-3.64a70.71 70.71 0 0 0 -14.07-12.46c-3-2-4.49 1.94-2.72 4.15a80.72 80.72 0 0 0 30.65 23.42c3 1.3 3.57-2.79 2.1-4.5l-23.11-26.86-2.72 4.15a239.58 239.58 0 0 1 45.57 52c2 3.11 6.12 1 4.2-2.32-8.91-15.26-24.55-30.79-43.46-21.47-8.32 4.11-13.77 12.24-15.53 21.23a36.87 36.87 0 0 0 .16 14.16c.53 2.77 1.3 5.49 1.87 8.25.11.55 1.1 6.52-.57 6.6-2.89.14-.59-4.64 1.33-1.8 1.62 2.39 5.79 1.85 4.51-1.59a123.15 123.15 0 0 0 -22.17-37.65c-2.17-2.51-5.5.28-3.74 3l18.38 28.19c2 3.16 5.78 1.1 4.19-2.32l-8.09-17.48c-2.56-5.53-6.55-11.61-8.1-17.48-1.84-7 3.55-13.81 7.29-19.33 2.91-4.3 6.48-10.28 10.7-13.38 3.77-2.78 6.83-1.15 9.89 1.51 2.47 2.16 4.83 4.49 7.17 6.8q6.31 6.22 12.15 12.9t11.18 13.76c4 5.34 9.24 11.45 8.55 18.58l4.92.61c-10.2-24.38-25.58-46.79-45.58-64.2-4.89-4.26-7.2-2.08-10.7 2.61l-14.14 18.89-7.06 9.44c-1.38 1.84-3.49 4-4.09 6.29-.69 2.66.57 4.84 2 7 2.34 3.5 4.82 6.92 7.23 10.37l3.74-3a59.7 59.7 0 0 1 -8.61-11.2c-1.91-3.22-6-1-4.2 2.33q4.54 8.24 9.79 16c2.06 3.05 6.15 1 4.2-2.32a123.76 123.76 0 0 0 -11.94-16.89c-2.52-3-5.53 1-3.27 3.64z" fill="#00e3ad"/><path d="m222.12 196.73-2.43-.62c-2.23-.57-2.81 2.65-1.91 4l5.6 8.49 2.54 3.85 1.53 2.31q.8 2 1.56-.86c-3.9.59-7 4.72-8.87 7.9-1.56 2.61 2.74 6.38 4.63 3.35l3-4.72c1.4-2.25-1.56-5.14-3.77-4.3l-12.82 4.87c-3.09 1.17-6.48 1.8-7.3 5.44-.71 3.2.39 7.2 1 10.36a88.77 88.77 0 0 0 3.45 12.94c.43 1.25 2.31 3.37 3.87 2.2l.35-.26a2.65 2.65 0 0 0 .95-3c-.53-1.47-1.15-2.54-2.72-3a2.13 2.13 0 0 0 -2.42.46c-2.28 3.06-.93 7.68-.86 11.27a129.25 129.25 0 0 1 -.94 17.92l3-1.64a17.12 17.12 0 0 1 -5.84-5.38c-1.51-2.12-4.13-.76-4.18 1.5-.07 3 1.53 5.08 4.12 6.4 2.4 1.22 3.63-2.11 2.56-3.84-8.74-14.12-17.47-28.34-23.18-44l-4 2.24a186.87 186.87 0 0 1 20.17 31c1.47 2.85 2.94 9 6.69 9.78 2.89.62 4.3-2.18 3.52-4.59-1.07-3.33-6-2.88-4.82.85l.2.62.45-2.65c1.68.55 1.86.05.56-1.5-.52-1.08-1-2.16-1.59-3.23q-1.22-2.41-2.5-4.79-2.79-5.16-5.89-10.12a202.17 202.17 0 0 0 -13.51-19 2.33 2.33 0 0 0 -4.05 2.25c5.9 16.19 14.77 30.89 23.8 45.49l2.56-3.85v-.4l-4.18 1.5a23.23 23.23 0 0 0 8.2 7.09 2.11 2.11 0 0 0 3-1.64c.5-4.26.84-8.53 1-12.81q.1-3.27 0-6.54c0-1.33-1.05-6.48-.31-7.47l-2.41.46.56.16-2-2.25.21.59 1-3.05-.35.26 3.86 2.2a88.54 88.54 0 0 1 -2.71-8.97c-.54-2.34-2.36-7.73-1.63-10.27.82-2.86 5.57-3.59 8-4.49l10-3.8-3.76-4.3-3 4.72 4.63 3.35c.67-1.12 3.69-5.74 5.46-5.37a2.07 2.07 0 0 0 1.77-.64c2.25-2.54.74-5-.86-7.47-3-4.65-6.11-9.26-9.16-13.88l-1.9 4 2.43.63c3.39.86 2.5-5-.39-5.71z" fill="#00e3ad"/><path d="m208.87 244.52a.19.19 0 0 1 0 .1l-.13-.75a.71.71 0 0 1 0 .14v-.71a.28.28 0 0 1 0 .13l.2-.64a.67.67 0 0 1 -.06.12l.36-.54a1.37 1.37 0 0 1 -.16.18l.5-.41a.9.9 0 0 1 -.3.17l.61-.21a1.26 1.26 0 0 1 -.28.05h.65-.14l.65.17h-.13l.63.34a.32.32 0 0 1 -.12-.08l.56.51-.06-.07.46.66v-.05a3.65 3.65 0 0 0 -1.65-1.51 2.24 2.24 0 0 0 -1.91 0 2.27 2.27 0 0 0 -1.06 1.6 3.29 3.29 0 0 0 .42 2.19 4.22 4.22 0 0 0 1.18 1.34 3.32 3.32 0 0 0 1.44.59 2.92 2.92 0 0 0 1.77-.3 3.19 3.19 0 0 0 .7-.54 2.85 2.85 0 0 0 .54-.76 3.46 3.46 0 0 0 .12-2.55 3.93 3.93 0 0 0 -1.34-1.91 2.6 2.6 0 0 0 -1.92-.51 2.07 2.07 0 0 0 -1.47 1.16 3 3 0 0 0 -.1 2.1z" fill="#00e3ad"/><path d="m180.64 223.32a165.51 165.51 0 0 0 9.89-38.16l-2.31 1.84a64.23 64.23 0 0 1 15.22 5.7l-1.86-4.36a90 90 0 0 1 -20.86 32.33l4.28 3.9 14.64-30.29c1.08-2.24-2.33-6.43-4.27-3.9a133.65 133.65 0 0 0 -12.57 19.76l4.63 3.36a91.42 91.42 0 0 0 5.6-24.69c.24-2.94-4-5.85-5-2.06a171.11 171.11 0 0 0 -4.17 19.8c-.46 3.05 4.46 5.8 5 2.07a173.89 173.89 0 0 1 4.14-19.83l-5-2.06a86.53 86.53 0 0 1 -5.2 23.39c-1 2.72 2.93 6.63 4.63 3.36a125.93 125.93 0 0 1 11.86-18.68l-4.29-3.9-14.64 30.3c-1.14 2.34 2 6.12 4.27 3.9a93.32 93.32 0 0 0 21.57-33.42 3.52 3.52 0 0 0 -1.86-4.36 69.52 69.52 0 0 0 -16.52-6 2.09 2.09 0 0 0 -2.32 1.82 159.8 159.8 0 0 1 -9.5 36.86c-1.09 2.8 3.35 6.65 4.64 3.35z" fill="#00e3ad"/><path d="m193.81 189.74a6 6 0 0 0 -4.75 5.15 3.56 3.56 0 0 0 2.06 3.72 2.13 2.13 0 0 0 3-1.65s.09-.56.09-.56-.21.54 0 0a1.62 1.62 0 0 1 .22-.41c-.43.48 0 0 .1-.06s.44-.43.16-.18.13-.08.21-.12a2.34 2.34 0 0 1 .5-.25l-.25.09.36-.08c3.29-.63 1.33-6.26-1.69-5.68z" fill="#00e3ad"/><path d="m193.4 193.59a16.33 16.33 0 0 1 6.24 4.07c.92 1 2.56 1.54 3.6.4a3.17 3.17 0 0 0 -.32-4 23 23 0 0 0 -8.61-5.79c-3.54-1.33-3.82 4.26-.91 5.36z" fill="#00e3ad"/><g fill="#fd0"><path d="m463.82 88.94c-26.35 69.74-57.89 137.71-97.25 201.11q-15 24.13-31.5 47.24c-10.39 14.51-20.78 30.52-34.49 42.14-14.43 12.24-34.58 16.57-52.58 20.36a327.69 327.69 0 0 1 -60.47 6.62c-23.06.47-46.14-.64-69.19-1.37l-70.64-2.25c-7.15-.23-5.29 11.22.78 11.41 42.23 1.35 84.53 3.52 126.78 3.72 20.78.09 41.55-.86 62.09-4.18 18.91-3.05 39-7.05 56.33-15.62 16.65-8.24 27.8-23 38.68-37.52q17-22.69 32.46-46.49a992.55 992.55 0 0 0 56.65-99.38 1282.54 1282.54 0 0 0 51.61-119.07c2.12-5.62-6.77-13.33-9.26-6.72z"/><path d="m27 478.23a374 374 0 0 1 49.47-54.23c4.52-4.07-2.84-13.39-7.84-8.88a374.67 374.67 0 0 0 -49.47 54.24c-3.64 4.88 3.89 14.19 7.85 8.88z"/><path d="m129.81 487.44a521.78 521.78 0 0 1 48.92-63.64c4.08-4.56-3.37-13.88-7.84-8.89a539.07 539.07 0 0 0 -50.34 65.82c-3.3 5.07 5.36 12.7 9.26 6.71z"/><path d="m266.21 418.18a535.75 535.75 0 0 0 56.44 72.64c5.31 5.73 11.35-2.1 6.55-7.28a518.1 518.1 0 0 1 -54.6-70c-4.05-6.25-12.52-1.71-8.39 4.65z"/><path d="m271.5 416.21 52.41 72.15c1.61 2.21 5.25 2.88 7.2.8 2.22-2.37 1-5.85-.65-8.08l-52.41-72.15c-1.61-2.22-5.25-2.88-7.2-.81-2.22 2.38-1 5.85.65 8.09z"/><path d="m341.52 364.84q51.95 51.16 100.38 105.74c4.71 5.3 10-.43 7.48-6l-2.57-5.58c-3.15-6.89-11.5-2.13-8.4 4.65l2.57 5.62 7.47-6q-48.45-54.51-100.38-105.71c-5.54-5.45-11.61 2.3-6.55 7.28z"/><path d="m342.5 359.21q50.12 55.76 101.95 110c5.4 5.64 11.44-2.16 6.55-7.28q-51.83-54.23-101.95-110c-5.23-5.82-11.26 2-6.55 7.28z"/><path d="m463.11 144.92q-19.61 103-35.41 206.59-4.47 29.33-8.63 58.7c-.86 6.1 9 11.6 10.05 4.13q14.72-103.77 33.24-206.95 5.25-29.2 10.8-58.34c1.16-6.09-8.64-11.56-10.05-4.13z"/><path d="m323.54 450.65q36.6-10.31 74-17.19c6.58-1.21 2.65-12.47-3.38-11.36q-37.4 6.88-74 17.19c-6.47 1.82-2.49 13 3.38 11.36z"/><path d="m79.76 447.25a130.52 130.52 0 0 1 35.68 1.58c6.44 1.18 20.43 7.66 22.49-2.76 1.2-6.08-8.59-11.54-10.05-4.13 1.23-1.17 1.19-1.67-.12-1.49-1-.22-1.93-.46-2.89-.73-2.46-.62-4.92-1.25-7.41-1.76a133 133 0 0 0 -13.17-2 143 143 0 0 0 -27.91 0c-6.59.6-2.71 11.91 3.38 11.36z"/><path d="m118.24 439.86a80.29 80.29 0 0 1 22.5 2.88l-.93-2.18-3.06 6.23c-.67 1.36 1.52 3.28 2.31 1.68 1-2.07 4.32-5.73.17-7.05a1.06 1.06 0 0 0 -1.48.82l-.2 2.19c-.14 1.52 2.34 2.9 2.51 1l.2-2.18-1.49.82c-.53-.17-1.81 2.26-2 2.69l2.31 1.68 3.06-6.23a1.71 1.71 0 0 0 -.93-2.18 82.27 82.27 0 0 0 -23.21-3.03c-1.78 0-1.32 2.87.2 2.85z"/></g><path d="m283.81 188.76c-16.87-26.06-24.94-58.29-16.81-88.76 6.91-25.9 27.67-49.19 53.55-57.13 15.68-4.81 32.18-3.3 47.72 1.31 15.27 4.54 30.1 11.45 39 25.28 7.73 12 11.08 26.45 12.33 40.56 1.22 13.87.36 28.34-4.11 41.61-4.4 13.07-12.28 24.79-24.15 32.11-14.06 8.68-31.24 11.57-47.39 13.64-16.63 2.14-36.25 3.21-51.67-4.66-14-7.14-18-22.94-19.59-37.4-3.51-32.07 2.06-70.47 27.6-92.83 12.81-11.21 29.09-15.2 45.83-13.66 15.55 1.43 33.44 5.51 45.37 16.25 23.52 21.17 20.16 61.08 4.68 85.72s-47.47 41.29-76.62 35.2a36.49 36.49 0 0 1 -18.68-9.62c-5.49-5.53-11.54 2.24-6.55 7.28 24.94 25.15 67.2 15.45 92.07-4.59 27.44-22.12 39.24-61.36 27.91-94.9-5.83-17.24-17.58-30.8-34.3-38.17s-37.6-11.11-55.83-8c-38.2 6.54-57.34 44.86-61.46 80-2.18 18.57-2.06 39.17 4.06 57.05 5.95 17.4 18.64 28.57 36.48 32.81 19.66 4.67 41 2.07 60.53-1.79 17.22-3.4 34.46-9.4 46.57-22.7 21.67-23.79 23.36-61.1 16.44-91-3.73-16.1-11.25-31.58-23.91-42.51-14.14-12.21-34.5-18.55-52.76-20.86-33.48-4.16-64.25 12.93-82 41-18.88 29.85-18 68.17-4.88 100.07a141.86 141.86 0 0 0 12.17 23.31c4 6.25 12.52 1.71 8.4-4.66z" fill="#f19473"/><path d="m280.1 182.46c-20.46-14.54-27.23-41.59-24.44-65.52 3.12-26.8 17.74-52.44 42.88-64 13.33-6.11 28.85-7.78 42.92-3.33 7.2 2.28 7.77-8.83 1.83-10.71-29.33-9.27-61.45 2.85-79.57 27.24-17.9 24.1-23.46 57.23-15.05 86 4.59 15.74 13.65 30.06 27.11 39.63 6.38 4.53 9.65-5.52 4.32-9.32z" fill="#f19473"/><path d="m338.8 58.87c6.77 19.4 8.06 39.73 5.69 60-2.55 21.84-8.63 43.67-15.07 63.78-2.29 7.17-1.37 15.28 4.07 21 4.49 4.7 12.25 8.67 18.55 4.82 24.18-14.75 37.75-44.56 43.35-71.35 5.68-27.18 3.26-56.74-7.51-82.38l-20.88 16.55c1.2.86 2.35 1.76 3.53 2.65 2.63 2-.92-1.12.47.35 1.86 1.95 3.64 3.9 5.39 5.95 2.28 2.68-.95-1.69.24.21.65 1 1.34 2 2 3.09.75 1.27 1.45 2.56 2.12 3.86.24.46 2.1 4.18.94 1.79s.53 1.39.71 1.9c.51 1.39 1 2.8 1.39 4.22a71.51 71.51 0 0 1 1.77 7.21c-.74-3.94 0 .94.09 1.4.14 1.23.25 2.47.33 3.7s.14 2.47.16 3.71c0 .31-.09 5.16.08 1.64-.58 12.16-3.19 20.3-8.13 30.54-5.2 10.75-10.93 18.52-19.55 27.72-4.87 5.2-4.31 14.53-.83 20.31s10.43 11.85 17.66 10.05c23.34-5.8 40.19-24.79 48.11-47 9.3-26.06 9.64-57.56-11.59-78.11-9-8.72-19.81-15-29.57-22.76-10.96-8.65-21.96-16.72-35.85-19.61-24.9-5.23-51.28 8.41-66.4 27.77-16.58 21.22-22.31 48.84-18.68 75.3 2 14.43 5.78 29.25 12.67 42.18 7 13.22 20.05 25.54 35.79 26.22 29.14 1.26 41.78-33.89 46.69-57.05a133.58 133.58 0 0 0 2.26-40.14c-1.31-13.7-3.8-32-13-43-6.8-8.14-17-11.94-27-7.9-6.61 2.64-11.88 8.17-16.3 13.62a101.69 101.69 0 0 0 -18.63 36.78 98.6 98.6 0 0 0 -2.87 39.82c2.19 15.85 7 35.86 23.69 42.24a13.09 13.09 0 0 0 14.5-2.75c10.69-9.85 13.75-26.11 15.79-39.86a174 174 0 0 0 .58-47c-.9-7.22-5.22-15.38-12.55-18-6.37-2.27-13.61-.6-16.62 6a94.92 94.92 0 0 0 -8.39 38.66c-.19 14.42 4 35.71 22 37.14 5.42.43 10.4-1.94 12.71-7.05a116.91 116.91 0 0 0 10.16-48.28c0-8.66-7.84-18-16.46-19-9.43-1.12-14.06 7-14.1 15.2a80.41 80.41 0 0 1 -2 16.27 70.92 70.92 0 0 1 -5.4 15.71l12.71-7.05 1.86.5 7.09 5.15c.19.19 3.32 5.37 2.6 5.76.23-.12-.44-4.46-.49-5.23-.09-1.74-.14-3.5-.1-5.25 0 2.14.26-3 .33-3.58a72.47 72.47 0 0 1 2-10.31 84.75 84.75 0 0 1 3.32-8.44l-29.23-12.02a136.72 136.72 0 0 1 .09 36.59 140.71 140.71 0 0 1 -3.46 17.6c.72-2.67-.64 1.81-.7 1.95a36.89 36.89 0 0 1 -1.55 3.46c-.25.5-2 2.91-.64 1.18a29.63 29.63 0 0 1 -3.08 3.26l14.5-2.75a10.2 10.2 0 0 1 3 2.39l1.28 1.81q-1.14-2.25-.22-.17c1.33 2.17 0-.23-.27-1-.31-.95-.6-1.9-.87-2.86-.62-2.16-1.14-4.33-1.57-6.53.13.69.45 3.32.08.05-.17-1.49-.37-3-.49-4.45q-.25-3-.28-6c0-1 0-2 0-3 0 2.9 0 .42 0-.2a94.47 94.47 0 0 1 2.05-13.28c.28-1.22.6-2.42.93-3.63.67-2.45-.7 2 .13-.41.73-2.12 1.5-4.22 2.38-6.29a83 83 0 0 1 6.2-11.9c-1.33 2.1 1.83-2.51 2.11-2.88q1.81-2.37 3.8-4.61c.83-.93 1.68-1.84 2.56-2.72.2-.21 2.51-2.24 1.38-1.38s1.56-.82 1.77-1c1-.5.92-.46-.13.12q-6.33-.21-9.26-4.65c-.35-.5-1.73-4.25-1.18-2.12.27 1 .69 2.06 1 3.1q1.13 3.69 2 7.46a79.49 79.49 0 0 1 1.82 12.48 110.22 110.22 0 0 1 .3 13.72c.11-2.46-.12 1.15-.17 1.72-.1 1.14-.21 2.28-.34 3.42q-.49 4.26-1.3 8.48a87.53 87.53 0 0 1 -8.79 25.88c-.22.43-3 5.2-1.6 3.09a36.4 36.4 0 0 1 -4.12 5.14 11.36 11.36 0 0 1 -6.52 3.56l-.71.09c1.32-.09 1.09-.19-.7-.3.54.26 2.52 1-.51-.27-.62-.26-2.48-1.57-.36-.12a23 23 0 0 1 -2.49-1.89c3.11 2.82-2.36-4.17-.17-.49-.57-1-1.15-1.91-1.67-2.9s-2.15-4.7-.93-1.7a111 111 0 0 1 -4.6-14.13c-.29-1.14-.57-2.29-.83-3.44-.15-.64-.89-4.33-.4-1.62-.47-2.61-.79-5.25-1.05-7.89-1.66-17.28 2.35-35.54 12.16-48.09a70.5 70.5 0 0 1 7.94-8.62c.72-.66 1.45-1.31 2.19-1.94-1.92 1.63.48-.35 1-.71a61 61 0 0 1 5.48-3.55c6.88-4 14-6.85 22.46-6.21a25.28 25.28 0 0 1 10.89 2.79c2.92 1.3 1.21.59.54.2 1.17.68 2.3 1.44 3.42 2.2 2.27 1.54 4.45 3.19 6.61 4.88 7.36 5.76 14.82 11.2 22.44 16.63 2.09 1.49 4.11 3 6.11 4.66.64.51 2.14 2.33 0 0 1 1.11 2.05 2.24 3.09 3.33.74.78 1.53 2.74-.08-.25.62 1.14 1.26 2.32 1.92 3.44 1.35 2.28-.84-3.83.16.64.09.39 1.23 4.45.72 2.32-.57-2.4.31 2.55.3 2.45.13 1.32.2 2.65.23 4 0 .38 0 3.69 0 1.87 0-1.34-.27 2.85-.35 3.46q-.44 3.59-1.18 7.1c-.24 1.18-.52 2.35-.81 3.51s-.88 3.14-.21 1a80.1 80.1 0 0 1 -5.63 13.46q-.68 1.29-1.41 2.55c-.07.12-2.55 3.94-1 1.64a66.87 66.87 0 0 1 -4.38 5.67c-1.55 1.79-3.25 3.41-4.94 5.06-.32.32-2.19 1.88-.19.28a41.13 41.13 0 0 1 -3.41 2.42 47.94 47.94 0 0 1 -5.48 3 35 35 0 0 1 -3.23 1.36c2.46-.85-1.18.19-1.76.34l16.98 30.5c20.41-21.79 34.13-49.57 34.63-79.75.47-28.68-13.18-58.08-36.72-74.78-4.93-3.5-11.78-4.63-16.72-.56a15.65 15.65 0 0 0 -4.19 17.08 121.44 121.44 0 0 1 5.67 16.62c.4 1.54.77 3.1 1.11 4.66.09.39.85 4.57.51 2.47s.29 2.1.34 2.5c.22 1.58.4 3.17.56 4.76.28 2.91.46 5.84.54 8.77 0 1.33.05 2.66 0 4 0 .11-.13 5.19 0 2.12a118.94 118.94 0 0 1 -2.19 17.44c-.51 2.61-1.11 5.21-1.79 7.78-.05.22-1.36 4.67-.6 2.27q-.72 2.28-1.55 4.53a119 119 0 0 1 -7.17 16 64.32 64.32 0 0 1 -8 12.23 66.59 66.59 0 0 1 -6 6.58c.05 0-3.46 3-1.87 1.74a44.5 44.5 0 0 1 -4 2.66l22.62 25.82c15.37-48 27.73-99.71 10.52-149.06-2.7-7.91-10.24-16.16-19.5-14.48-8.72 1.59-12.07 11.95-9.4 19.59z" fill="#f19473"/><path d="m247.69 268.73a19 19 0 0 1 -1.37-2.67c0-.06-.68-3.41-.38-3.18 0 0-5.39 2.57-5.52 2.61-1.25.33-1-2.11-.84-.33a24.7 24.7 0 0 0 2 3c3.9 6.19 8.2 12.28 13.5 17.36 11.36 10.88 26 17 41.84 14.79 14.2-1.95 25.4-11.05 33.72-22.23 4-5.41 7.55-11.16 11.49-16.62a133.51 133.51 0 0 1 13.41-15.2c13-13.29 18.65-30.7 7-46.91l-10.9 16.65a21.4 21.4 0 0 1 8.23 11.12c1.47 4.6 5.38 9.12 10.43 9.72a8.44 8.44 0 0 0 9.27-7.28l2.23-19.89-18.45.52a92.86 92.86 0 0 1 6.42 19.66c1.25 6.56-1.23 10.42-5.39 15.26-10.36 12-21.34 23.57-32.49 34.86l17.1 15.6a414.4 414.4 0 0 0 22.68-44.37c4.2-9.57-7.79-24.21-17.1-15.6a68.83 68.83 0 0 0 -18.42 28.4 13.75 13.75 0 0 0 3.85 15c3.62 3.19 9.59 4.84 13.27.59a184.34 184.34 0 0 0 20.89-29.69l-19.32-10.84-6.12 34.3c-1.79 10 13 22.87 19.31 10.84l3.71-7c2.31-4.37.36-10.53-2.71-14-2.7-3.05-8.49-6-12.37-3.22-9.51 6.78-19 13.63-28.53 20.32-8.31 5.82-17.11 11.58-27.45 12.61-20.94 2.09-38.51-14.91-52.68-27.86-7.55-6.87-17 2.64-13.95 11a88.69 88.69 0 0 0 25.76 37.65c5.84 5 12.65 9.14 20.27 10.63 7.28 1.43 14.87.13 21.9-1.94 25.66-7.57 47.73-24.92 55.2-51.32 2.14-7.58-5.84-16.51-13.43-15.49a26.86 26.86 0 0 0 -18.82 11.42c-4.64 7-.94 19.61 8.62 20.29l5.81.41-11-12.69c.16 3.75-1 6.72-2.93 9.91-4.19 7.06 2.88 17 10.05 18.13a31.49 31.49 0 0 0 14.53-1l-9.19-21.85a13.32 13.32 0 0 1 -6.78 2.16c-5.9-.06-9.79 4.17-9.4 10.13.33 5.24 5 12.63 11 12.69s11.51-.93 16.84-4c4.78-2.75 5.19-9.09 3.2-13.68-1.82-4.19-7.1-9.86-12.39-8.18a18.73 18.73 0 0 1 -9.35.85l10 18.13a37 37 0 0 0 4.78-20.78c-.24-5.56-5.05-12.27-11-12.69l-5.81-.41 8.63 20.29c2.52-3.79 5.31-5.88 9.86-6.49l-13.42-15.48c-5 17.74-22.41 30.25-39.09 36-4.86 1.67-10.44 3.38-15.61 3.22s-9-2.83-12.72-5.93a55.34 55.34 0 0 1 -16.33-23.45l-14 11c18.12 16.47 38.72 33.09 64.64 32.13 11.81-.44 22.57-5.64 32.24-12.11 10.88-7.29 21.4-15.15 32.06-22.75l-14.97-17.11-3.71 7 19.31 10.84 6.12-34.3c1.83-10.23-12.64-22.56-19.31-10.84a158.11 158.11 0 0 1 -18 25.34l17.1 15.6a56.61 56.61 0 0 1 15.59-24.1l-17.11-15.6a416.25 416.25 0 0 1 -22.68 44.37c-5.41 9.19 8.51 24.31 17.1 15.6q10.11-10.24 19.87-20.82c6.24-6.78 13.09-13.51 18.07-21.3 10.75-16.83 1.9-38.23-5.36-54.74-3.41-7.73-17.29-9.85-18.45.53l-2.23 19.89 19.69 2.43a51.5 51.5 0 0 0 -18.9-26.36c-4.07-2.95-9.95-3-12.86 1.52-3.22 5-1.18 10.65 2 15.08-1.19-1.67-.63.7-.88 1.91a17.41 17.41 0 0 1 -3.78 7.26c-4.24 5.22-9.44 9.56-13.77 14.71-8.28 9.86-14 21.76-23.16 30.89-8.55 8.5-21.64 11.91-32.88 6.74-12.33-5.68-15.46-19-25-27.43-7.17-6.36-18.63-7.55-23 2.7-3.65 8.55-.65 19.76 3.92 27.34 2.79 4.63 8.77 8.86 14.22 5.84 5.22-2.89 5.35-10.54 2.58-15.15z" fill="#f19473"/><path d="m281.57 231.1a99.33 99.33 0 0 1 15.06-20c1.34-1.37 2.05-2.54 4.12-2.59 1.41 0 3.69 1.53 5.13 2a80.91 80.91 0 0 0 12 3.23c7.39 1.4 15.06.95 22.39 2.64a21.82 21.82 0 0 1 3.55 1.11q.93-4.8-1.32-3.46c-1.48 0-4.25 1.75-5.65 2.31l-11.85 4.8c-5.59 2.26-.42 11.62 4.6 10.93l6.66-.92c6.69-.93 2.6-11.9-3.38-11.36a40.51 40.51 0 0 0 -29.75 17.38c-2.64 3.87 1.65 13.43 6.83 9.69l6.64-4.79-6.83-9.68a91.6 91.6 0 0 0 -17 18.19c-2.17 3.1-4 6.35-6 9.57-1 1.58-1.28 2.93-3.11 2.5-1.65-.4-2.82-3-3.46-4.34l-2.51 8a27.42 27.42 0 0 0 17.26-13.55c2.51-4.51-5.08-12.87-8.55-7.8l-2.55 3.73 8.55 7.8c6.81-10.64-1.56-22.15-9.27-29.36-5.65-5.27-11.57 2.2-6.55 7.28l12.1 12.26c3.86 3.91 9.84 1.21 8.1-4.49l-6-19.69-9 3.17a79.81 79.81 0 0 1 7.82 15.42c2 5.39 9.75 7 9.91-.21l.69-29.28-10.19-1.28 3.21 32.77c.63 6.4 10.54 9.19 10.19 1.28a66.83 66.83 0 0 1 3.8-25.65l-9.73-4 2.49 16.51c.94 6.24 10 9.34 10.18 1.27.1-4.67.78-7.32 5.72-7.57 5.89-.29 11.8-.31 17.69-.46 6.39-.17 2.7-10.66-2.08-11.39-5.55-.84-12.42-3.1-18.05-2-5.44 1.05-7.47 6.59-5.46 11.42 5.52 13.28 23.21 3 31.78-.84 5.13-2.3.9-10.37-3.3-11a235.7 235.7 0 0 1 -35.44-7.63c-5-1.5-7.23 3.63-5.11 7.68a69.52 69.52 0 0 0 14.62 19.18l-1.75-5.7 1.23-1.67c-1.88-.43-3.34.9-4.23 2.35-5.43 8.8-10.73 17.65-14.06 27.49-1.46 4.32 4.21 13 8.55 7.8a158.06 158.06 0 0 1 28.12-26.7c5.11-3.75-.78-14.2-5.82-10.49a167.78 167.78 0 0 0 -30.14 28.31l8.55 7.8c3.33-9.84 8.63-18.7 14.06-27.5l-4.36 2.43c4.31 1 6.88-1.83 8-5.61a6.56 6.56 0 0 0 -1.75-5.7 59.75 59.75 0 0 1 -12.78-16.56l-5.11 7.68a254 254 0 0 0 38.06 8.33l-3.3-11c-2.81 1.26-5.63 2.47-8.48 3.6-1.52.59-3 1.17-4.57 1.72-.56.2-4 1-4.2 1.27l.12 4.68 1.14-.06a21.17 21.17 0 0 0 4 .57l10.3 1.57-2.08-11.39-13.77.36c-3.51.09-7.21-.19-10.34 1.7-5.4 3.26-6 10.43-6.11 16.06l10.2 1.29-2.45-16.51c-.56-3.7-7.48-10.29-9.73-4a80.79 80.79 0 0 0 -4.72 31.08l10.19 1.28-3.21-32.77c-.63-6.44-10-9.19-10.19-1.28l-.68 29.28 9.91-.21a93.9 93.9 0 0 0 -9.06-18.38c-3.25-5.05-11.12-3.67-9 3.17l6 19.7 8.1-4.49-12.1-12.26-6.55 7.28c4.28 4 10.54 9.14 6.56 15.37-2.85 4.45 5.14 12.78 8.55 7.8l2.55-3.74-8.55-7.8a18.48 18.48 0 0 1 -11.36 8.97c-3.75 1-4 5-2.51 8 4.33 8.95 15.95 16.8 22.9 6.09 3.29-5.05 6.07-10.21 9.92-14.91a92.55 92.55 0 0 1 13-12.88c4.16-3.42-2.22-13-6.83-9.69l-6.63 4.78 6.83 9.69a33.59 33.59 0 0 1 25.28-14.9l-3.38-11.36-6.66.92 4.6 10.93c5.61-2.27 11.45-4.26 16.92-6.84 4.18-2 6.77-5.55 5.41-10.35-3-10.52-18.67-10.27-27.2-11a71.92 71.92 0 0 1 -18.2-3.67c-4.53-1.6-9.33-4.86-14-2.05-4.4 2.65-8.15 7.74-11.32 11.69a114.92 114.92 0 0 0 -10.07 14.94c-3 5.27 5.71 12.93 9.27 6.71z" fill="#f19473"/><path d="m97.47 369c-1.11-2.64-1.84-7.13 2.48-5.46s7.87 4.75 12.61 6c9 2.38 18.6.92 27.45-1.64 21.32-6.15 42.08-15.12 62.89-22.78l31.89-11.75c8.15-3 17.53-6.33 18.47-16.35 2.09-22.25-32-13.9-43.8-11.68a216.92 216.92 0 0 0 -65.58 23.85l7.54 8.61a192.4 192.4 0 0 0 13.34-38.31c2.27-9.78 3.86-25.5 16.3-27.31 6.34-.93 6.89 2.73 8.71 7.88a23.2 23.2 0 0 0 9.62 12.4c10.69 6.61 22.69 3.59 33.62-.68l-6.18-1.61 12.44 17.08 5.43-8.3c-12.9-8.54-28.26-6.62-42.33-2.23a320.56 320.56 0 0 0 -48.52 19.92l7.54 8.6 18.5-48.46-9.66-5.43a220.25 220.25 0 0 1 -4.59 31.31c-1.1 5 7.58 11.72 9.65 5.43q5-15.24 8.9-30.81l-10.11-2.71 1.23 23.43c.27 5.17 9.27 9.79 10.11 2.71l2.68-22.41-9.85-1.22 8.35 21.71c2.5 6.52 11.07 6.1 9.64-1.7l-2-10.8-8.1 4.49 12 12.49 2.88-9.35a160.75 160.75 0 0 0 -26.36 2.54c-6.65 1.23-2.62 12.11 3.38 11.36a268.52 268.52 0 0 1 29.44-2.11c6.29-.1 5.23-7.26 1.77-10.37a97 97 0 0 1 -17.81-21.49l-7.47 6a28.51 28.51 0 0 1 5.86 14.71c.69 6.45 11 9.07 10.18 1.28a44.89 44.89 0 0 0 -9.49-23.26c-4.15-5.34-10.79.55-7.47 6a117.58 117.58 0 0 0 21.95 26.09l1.77-10.37a293.51 293.51 0 0 0 -32 2.17l3.38 11.36a144.77 144.77 0 0 1 23.77-2.49c5-.09 6.05-6 2.88-9.34l-12-12.49c-4.18-4.35-9.09-1-8.1 4.49l2 10.8 9.64-1.7-8.34-21.71c-1.5-3.89-9.05-7.93-9.85-1.21l-2.68 22.41 10.12 2.7-1.23-23.45c-.28-5.42-8.43-9.51-10.12-2.7q-3.52 14.26-8.11 28.22l9.66 5.42a220.25 220.25 0 0 0 4.59-31.31 7.2 7.2 0 0 0 -3.49-7.07c-2.08-1.14-5.18-.93-6.17 1.65l-18.5 48.47c-1.62 4.25 2.54 11.13 7.54 8.6a321.64 321.64 0 0 1 42.94-18c11.68-3.89 26.6-8.24 37.79-.83 6.19 4.1 8.66-3.86 5.43-8.3l-12.44-17.08a5.24 5.24 0 0 0 -6.19-1.61c-6.25 2.44-13.56 5-20.31 3.12-6.41-1.77-7.13-6-9.22-11.55-3.92-10.47-14.49-14.85-24.78-10.63-11.06 4.53-14.55 16.72-16.9 27.37a194.82 194.82 0 0 1 -13.82 41.49c-1.94 4.13 2.79 11.26 7.54 8.61a206 206 0 0 1 81.71-25.62c1.58-.16 11.22-1.92 12.12 0a19.6 19.6 0 0 1 -2.7 3.51 20.56 20.56 0 0 1 -6 3.13c-19.56 7.77-39.55 14.59-59.3 21.87-9.95 3.66-19.88 7.38-29.84 11-8.32 3-17.33 6-26.29 5.73a27 27 0 0 1 -13.79-4.33c-3.72-2.27-7.81-4.48-12.28-3.1-7.7 2.39-8.24 12.46-5.6 18.77 1.07 2.56 3.32 5.46 6.51 4.83 2.77-.54 4.19-4 3.13-6.53z" fill="#f19473"/><path d="m143.63 333.06a3.2 3.2 0 0 0 -3.45 2.34c-.06.18-.11.36-.18.54a1.82 1.82 0 0 0 -.15.32c0-.08.37-.46.13-.22.06-.07.49-.3.2-.18l.95-.17 1.54.87a2.63 2.63 0 0 1 .64 1.38 1.9 1.9 0 0 1 -2 2.45 2.15 2.15 0 0 0 1.76-.64 2.6 2.6 0 0 0 .59-1.9 3.69 3.69 0 0 0 -.91-2.14 2.84 2.84 0 0 0 -1.84-1 2.34 2.34 0 0 0 -2.38 1.27 3.49 3.49 0 0 0 -.27 1.72 4.12 4.12 0 0 0 3.21 3.71 3 3 0 0 0 3.06-1.89c.14-.3.21-.63.33-.94 0-.09.09-.19.14-.28-.23.32-.26.38-.09.17-.34.23-.39.28-.18.14-.91.06-1.16.11-.73.18 1.44.29 2.48-1.23 2.35-2.53a3.5 3.5 0 0 0 -2.74-3.17z" fill="#f19473"/><path d="m164.56 310.26-.09.72a3.56 3.56 0 0 0 .41 2.19 2.66 2.66 0 0 0 .75.91 2.44 2.44 0 0 0 .9.61 2.21 2.21 0 0 0 1.91-.06l.5-.4a2.39 2.39 0 0 0 .56-1.19l.09-.72a3.56 3.56 0 0 0 -.41-2.19 2.66 2.66 0 0 0 -.75-.91 2.44 2.44 0 0 0 -.9-.61 2.21 2.21 0 0 0 -1.91.06l-.5.4a2.39 2.39 0 0 0 -.56 1.19z" fill="#f19473"/><path d="m163.55 333.51c10.84-.75 21-4.44 31.22-7.88l31.56-10.63c3.18-1.07 1.18-6.64-1.69-5.68l-31.56 10.68c-10.21 3.44-20.38 7.13-31.22 7.88-3.28.22-1.35 5.89 1.69 5.68z" fill="#f19473"/><path d="m245.19 308.44 19.6 16.19 2.21-4.63a65.75 65.75 0 0 1 -18.78-17.24l-3.28 3.64c5.94 6.48 12.12 13.06 19.79 17.51 8 4.66 16.53 5.63 25.63 4.3 20.31-3 40.18-10.24 58.18-20l-3.42-4.84c-13.35 14.26-26.71 28.53-40.43 42.45-13.15 13.35-25.35 26.81-44.24 31.3-18.48 4.4-38 5.69-56.93 6.93-19.63 1.29-39.29 1.74-59 1.93-10.47.1-21.82 1.35-32.21-.11-10.08-1.41-13.9-10.67-17-19.2-.58-1.59-3.82-4-4.73-1.25a23 23 0 0 0 7.42 25.58 2.29 2.29 0 0 0 3.49-2.75l-3-7.29-4.49 1.56c5 10.45 17.48 16.2 28.58 12.36 2.93-1 1.66-5.25-1-5.69a91 91 0 0 0 -20.46-.94c-3.11.19-1.48 5.48 1 5.69 40.61 3.41 81.46 1.95 121.93-2.42 18.25-2 37.67-3.21 55.06-9.48 14.76-5.33 26.37-15.6 36.07-27.69 11-13.68 19.74-29 31.05-42.37l-3.92-4.44a256.91 256.91 0 0 1 -65.92 64.4c-2.61 1.76.05 6.71 2.91 5.25a125.92 125.92 0 0 0 27.6-19.19c2.07-1.88-.66-5.13-2.81-5.06l-5.24.18c-3.26.11-1.34 5.78 1.69 5.68l5.24-.18-2.8-5.06a120.68 120.68 0 0 1 -26.6 18.36l2.91 5.25a260.49 260.49 0 0 0 66.93-65.17c1.71-2.4-1.7-7.07-3.92-4.44-18.76 22.25-31.53 52.8-58.87 66.21-16.52 8.1-36.25 9.24-54.26 11.32-19.8 2.3-39.68 3.94-59.6 4.67a562.71 562.71 0 0 1 -67.85-1.51l1 5.7a85.34 85.34 0 0 1 19.16 1l-1-5.7c-8.8 3.05-18.59-.46-22.69-9-1.35-2.8-5.83-1.57-4.51 1.59l3 7.29 3.49-2.76a16 16 0 0 1 -5-17.53l-4.72-1.26c2.38 6.59 5 13.51 10.22 18.45 6.35 6.06 14.39 5.89 22.66 5.85 21.08-.09 42.16-.23 63.23-1.11a584 584 0 0 0 64-5.76c9-1.37 18.14-3.21 26.32-7.37 8.44-4.3 15.28-11.05 21.95-17.64 17.22-17 33.69-34.6 50.17-52.19 1.84-2-.87-6.23-3.42-4.85a180.12 180.12 0 0 1 -51.65 18.62c-9.2 1.78-18.14 2.52-26.68-2.12-7.49-4.06-13.4-10.51-19.08-16.72-2.72-3-5.3.9-3.28 3.64a70.16 70.16 0 0 0 19.9 18.25c3.42 2.1 4.61-2.63 2.16-4.65l-19.61-16.2c-3-2.49-4.65 2.6-2.15 4.66z" fill="#f19473"/><path d="m245.5 320.66a12.82 12.82 0 0 1 -4 15.16c-7 5.29-1.48 17.07 6.9 16.39 12.28-1 19.06-15.08 14.95-26l-8.6 9.3 4.93 2.54c5.28 2.72 8.95-2.5 9-7.07a31.5 31.5 0 0 0 -1.88-11.09l-12.15 6.73c12.53 13 31 13.75 47.52 8.86a136 136 0 0 0 50.16-28c6.26-5.43-2.86-18.57-10.25-14.54-14.49 7.9-24.2 21.14-34.51 33.59-11.26 13.59-24.16 23.77-40.56 30.52-17.2 7.09-36 9.79-54.41 11.11-19.9 1.43-39.92 1.66-59.85 2.51-18 .76-38 .86-53-10.55-6.36-4.83-12 1.75-10.47 8.26 4.56 18.9 24.12 25.09 41.4 24 9.78-.59 19.55-2.09 29.3-3.05 9.93-1 19.87-1.95 29.76-3.29 19.64-2.66 38.91-7.13 57.07-15.21 17.75-7.89 34.08-18.54 50.3-29.12l-8.76-15.71c-47.7 33.76-109.29 27.29-164 37.8l5.06 17a560.73 560.73 0 0 0 66.24-20.31q15.77-5.91 31.15-12.81c10.08-4.52 20.6-10.45 31.93-10.68l-5-16.43q-19 14.13-39.15 26.48c-7.21 4.41-1.25 18.29 6.9 16.39a322.35 322.35 0 0 0 58.39-19.73l-10.2-14.51c-1.07 1.57.9.18-1.12.52-1 .16-2 .15-3 .33a13 13 0 0 0 -7.05 3.22c-4.35 4.23-2.94 9.88-4.64 15.07-3.64 11.17-16.66 16.12-26.47 20.27-5.88 2.49-3.12 12.32 1.13 14.86 16.75 10 36.5 10.7 54.45 3.34 17.42-7.15 30.54-21.51 40.47-37.07 4.89-7.66-8.12-19.11-13.89-10.07-14.8 23.23-46.55 46.55-74.55 29.83l1.13 14.86c11.64-4.93 23.13-10.61 29.72-21.95a30.51 30.51 0 0 0 3.28-8.38 36.37 36.37 0 0 0 .62-4.52c.06-.61.66-3.16.12-2.61s1.08.09 1.34.1a15.38 15.38 0 0 0 3.51-.42 10.65 10.65 0 0 0 6.69-4.05c4.44-6.53-1.8-18.32-10.25-14.53a301.67 301.67 0 0 1 -54.73 18.43l6.9 16.39q20.16-12.35 39.15-26.47c5.65-4.21 3-16.59-5-16.43-11.79.23-22.17 4.18-32.79 9s-21.58 9.58-32.59 13.85a532.39 532.39 0 0 1 -67.82 21c-9.81 2.35-4 18.76 5.06 17 56.07-10.76 118.77-4.47 167.67-39.08 7.69-5.44-.72-21-8.72-15.75-14.72 9.6-29.5 19.24-45.37 26.84-15.62 7.49-32.07 12-49.13 14.83-17.23 2.83-34.66 4.11-52 6-10.18 1.11-34.61 6.81-38.14-7.82l-10.41 8.31c14.59 11.08 32.76 14 50.66 13.95 20 0 40.17-1.25 60.17-2.1 38.3-1.61 79.37-8.09 107.23-37 13-13.51 22.6-31.06 39.51-40.28l-10.24-14.53a122.91 122.91 0 0 1 -40.65 23.43c-10.38 3.5-26.73 7.21-35.44-1.84-5.59-5.8-15.19-1.77-12.15 6.73a17.12 17.12 0 0 1 1.07 6.62l9-7.08-4.93-2.54c-5.88-3-10.56 4.13-8.6 9.31 1.35 3.58-2.35 6.13-5.56 6.39l6.9 16.39a28.67 28.67 0 0 0 9.79-33.44c-1.55-3.92-5-8.09-9.77-7.24-4.24.75-6.18 6-4.7 9.79z" fill="#f19473"/><path d="m486.29 91.46c-2-2.51-5.62-4.23-8.38-5.69-3.92-2.08-8.09-3.8-12.59-3.65a2 2 0 0 0 -1.47 1.16q-6.62 17.28-13.78 34.34c.43-13.27-.92-26.52-5.43-39.2a111.27 111.27 0 0 0 -23.26-38.31c-21-22.66-50.74-36-81.73-35.43-31.38.6-62.28 13.05-83.58 36.46a106.15 106.15 0 0 0 -26.86 81.29c3.24 31.22 20.26 60.54 46.74 77.39l-10.17 15.77a2.24 2.24 0 0 0 -.35 1.28l-.76-1a292.31 292.31 0 0 0 -42.78-45.19 2.22 2.22 0 0 0 -3.39.65q-4.16 6.41-8.42 12.74a3.2 3.2 0 0 0 -.66-.53 100.59 100.59 0 0 0 -32.64-12.23c-1.53-.29-2.35 1.24-2.35 2.53a187.11 187.11 0 0 1 -5.9 47.52 3.07 3.07 0 0 0 1.23 3.13 4 4 0 0 0 .38 1.81c4.76 10.34 10.58 20.1 16.32 29.91-7.69-2.06-15.68-3.58-23.36-.7-9 3.35-11.52 11.42-14.06 19.84-6.61 21.9-13 43.92-16 66.65a2.41 2.41 0 0 0 0 .6c-7.43 1.76-15 2.68-22.57 1.29s-10.37-10.32-18-11.3c-9.29-1.21-12.16 9.35-12 16.5.26 12.14 2.53 25.56 7.17 36.81a24.38 24.38 0 0 0 5.23 7.84c-15.35 0-30.7.07-46 .46-1.69-1.08-4.22-.09-3.54 2.72-.27-1.11-.2.63-.22.84-.09 1.09-.22 2.17-.33 3.25-.24 2.33-.49 4.67-.68 7-.25 2.94-1.26 7.55.39 10.24a3.16 3.16 0 0 0 2.94 1.68c3.47-.1 6.94-.16 10.41-.22-9.84 10.86-19.99 21.46-29.84 32.29-4.63 5.09-12.24 11.24-13.33 18.52-.87 5.81 3.46 10.26 8.69 11.79 15.72 4.61 26.69-12.05 35.79-21.85q5.64-6.08 11.32-12.12a1.08 1.08 0 0 1 .19 0 491.76 491.76 0 0 1 63.94 7.09q-3.75 4.89-7.45 9.8c-3.66 4.89-8.42 10.29-8.83 16.68-.71 11.14 11.9 15.83 20.87 12 5.87-2.48 10-7.66 13.73-12.57q7.11-9.29 14.3-18.53c10.47-13.4 21-26.73 31.34-40.25a2.92 2.92 0 0 0 .21-2.89c7.32-.24 14.63-.57 21.93-1a357.43 357.43 0 0 0 39.67-4.23c0 .07.08.14.13.21l27.5 38.35 14 19.45c4.29 6 8.31 12.71 13.93 17.56 7.23 6.23 22.06 8.57 25.48-3.19 1.78-6.14-1.6-12.33-4.94-17.26-3.95-5.83-8.1-11.53-12.21-17.24 27.11-3.46 54.09-8.37 81-13.32a2 2 0 0 0 1.12-.58c6.58 7.3 13.08 14.67 19.42 22.19 5.63 6.68 11.9 14.81 21.22 15.8 9.74 1 18.3-5.83 16-16.13-1.16-5.17-4.43-9.57-7.56-13.73-3.83-5.07-7.84-10-11.92-14.89-3.35-4-6.77-7.94-10.21-11.85.36-1.38.5-2.92.73-4.11 1-5 1.91-10 2.83-15 3.24-17.74 6.34-35.51 9.41-53.28q13.17-76.35 25.17-152.9c4.23-27.14 8.32-54.31 12-81.54a3.05 3.05 0 0 0 -.26-1.61c.23-.6.45-1.2.68-1.79 1.59-4.08 3.27-8.12 4.78-12.22.69-2.21 1.23-3.88-.38-5.9zm-215.88 127.54 10.46-16.22.55.32c3.28 1.79 3.58-3.9.91-5.36-25-13.65-41.93-39.4-47-67.22a100.63 100.63 0 0 1 19-78.1c17.3-22.66 43.76-37 71.85-40.86 30.24-4.13 60 4 83.27 23.9a105 105 0 0 1 27.75 37.21c8.23 18.66 9.06 38.69 6.58 58.68a2.88 2.88 0 0 0 0 .88q-10.78 24.77-22.72 49.08a2.11 2.11 0 0 0 -2.16.5c-10.52 9.74-23.22 16.36-37.48 18.4-1.5.22-1.9 1.51-1.62 2.8a3.3 3.3 0 0 0 .66 2.76 68.35 68.35 0 0 1 13 27.83c0 .09.05.16.07.25q-13.74 24.63-28.67 48.59a1.83 1.83 0 0 0 -1.94.66c-13.16 15.39-33.26 26.47-52.41 32.38-9 2.78-18.93 4.77-28.37 3-12.38-2.29-23.66-11.88-32.36-20.41-8.95-8.75-19.07-18.62-25.16-29.66-5.17-9.37-4-23.9 4.77-31.17 11.87-9.82 25.93 4.55 32 13.95 5.87 9.16 11.58 21.63 23.09 24.75 12.9 3.5 19.46-9.27 25.45-18.13a73.13 73.13 0 0 1 32.73-26.43c2.89-1.2 0-6.46-2.91-5.24a76.15 76.15 0 0 0 -31 23.47c-7.57 9.73-16.16 30.07-30.83 16.67a42.35 42.35 0 0 1 -5.65-6.48 1.75 1.75 0 0 0 1.28-.39c3.11-2.41 8.4-5.15 10.4-8.69 1.8-3.18-.05-6.36-1.7-9.14-4.46-7.48-9.36-14.72-14.52-21.74a2.16 2.16 0 0 0 2.68-.84zm126.53 8.69a75.39 75.39 0 0 0 -10.79-22.26 72.05 72.05 0 0 0 29.47-13.16q-9.03 17.81-18.68 35.37zm-175.33-50.69a285.35 285.35 0 0 1 33.89 35q8 9.78 15 20.26 3.38 5 6.55 10.22c1.83 3 2.87 4.41-.3 6.91-2.06 1.62-4.14 3.21-6.21 4.82a2.51 2.51 0 0 0 -.94 1.87c-5-7.86-9.15-16.46-17.05-22-8.61-6.08-21.62-8.2-29 .82-6.07 7.37-9.11 19.26-6.33 28.5a46.47 46.47 0 0 0 6.12 12.42l-6.23 3a213.89 213.89 0 0 0 -30.3-51.88q18.19-24.44 34.8-49.94zm-17.8 101.11c-8.17-17.23-19.11-33-27.53-50.06l5.8.07a2.74 2.74 0 0 0 .73-.1 3.24 3.24 0 0 0 .7 2.59 203.88 203.88 0 0 1 28.34 48.12zm-24.31-100.63a93 93 0 0 1 27.77 10.69q-11.9 17.51-24.56 34.45a2.33 2.33 0 0 0 -1-.25l-7.87-.09a192.29 192.29 0 0 0 5.66-44.8zm-90.67 195.58a120.16 120.16 0 0 1 -2.73-16c-.54-5.33-2-13.24 2.49-17.19 6.19-5.44 12.17 6.37 17.86 8.53 6 2.29 13.11 2 19.41 1.33 11.37-1.13 22.4-5.4 33.28-8.68l42.14-12.74q20.1-6.07 40.21-12.12c3.22-1 1.23-6.56-1.69-5.68-29.38 8.81-58.73 17.74-88.1 26.59-4.33 1.31-8.74 2.75-13.2 4 2.59-17.86 7.15-35.32 12.24-52.62 1.36-4.64 2.73-9.28 4.16-13.9 1.35-4.34 2.84-8.8 6.67-11.61 7.93-5.83 18.61-3 27.2-.57a2.71 2.71 0 0 0 1.34.06c3.65 6.36 7.17 12.79 10.24 19.47a3.12 3.12 0 0 0 2.3 1.69l11.92.91a2.39 2.39 0 0 0 2.92.7l9.43-4.59c4.64 5.86 10.06 11.24 14.85 16.28 9.44 9.93 20 19.23 32.69 24.75 8.94 3.9 18.83 3.7 28.26 1.85a122.91 122.91 0 0 0 50.78-23.34q-8.4 12.93-17.15 25.63c-6.4 9.29-12.9 18.52-19.62 27.58-6.09 8.22-12.63 16.46-21 22.54-14.76 10.77-34.41 12.8-52.14 14.5-32.29 3.1-64.91 3.14-97.31 3.3-13.11.07-26.21 0-39.32 0a2.48 2.48 0 0 0 -1.74-.44c-11.11 1.64-14.45-12.19-16.39-20.23zm-42.96 90.94c-4.69 5.12-9.48 11.31-16.61 12.93-2.73.62-6.82.79-9.29-.83-5-3.27 0-8.47 2.54-11.41 4.52-5.25 9.27-10.31 14-15.38 9.15-9.85 18.38-19.62 27.32-29.66q11.64-.08 23.28 0-3.84 4.19-7.71 8.35a1.85 1.85 0 0 0 -1 1.06q-9.14 9.86-18.4 19.65-7.08 7.6-14.13 15.29zm104.21-31a2.46 2.46 0 0 0 -1.35-.54l-61.56-4.13c1.89-2 3.78-4.09 5.65-6.14a2.52 2.52 0 0 0 .48-2.43c21.56.24 43.12.74 64.66.67h1.75q-4.77 6.25-9.63 12.57zm-15 17.32a491.51 491.51 0 0 0 -61.57-7.32q4.36-4.65 8.71-9.32l64 4.29-8.22 10.48-1.82 2.35a2.6 2.6 0 0 0 -1.13-.53zm28.26 5.57q-7.62 9.74-15.14 19.57c-4.22 5.53-8.94 12.61-16.3 14-3 .55-7.33.31-9.39-2.26-3.37-4.22 1.27-10.18 3.74-13.62 4.6-6.41 9.5-12.62 14.34-18.85 8.86-11.41 17.81-22.75 26.45-34.33q12.13-.1 24.28-.42c-9.24 12.02-18.65 23.91-28.01 35.86zm8.79-41.28c-2.08 0-4.16 0-6.24.05a1.71 1.71 0 0 0 -1.6 0c-33.34.22-66.67-.66-100-.64q-8.72 0-17.42.2c0-.72.06-1.44.11-2.16.15-2.35.4-4.7.64-7 .16-1.57.52-3.36.69-5.11 65.1-1.66 130.59 2.39 195.54-3.57 17.57-1.62 37.09-3.51 52.23-13.26 8.82-5.68 15.84-13.64 22.17-21.91 7.13-9.31 13.85-19 20.52-28.6a1159.52 1159.52 0 0 0 74.08-122.61q16.55-31.58 31.15-64.15 7.37-16.48 14.22-33.19 3.26-7.93 6.39-15.92c.7-1.79 1.88-7.51 3.27-8.42s3.33.18 4.88.79c3.17 1.26 5.92 3.8 8.95 5.13-.43 1-.68 2.17-1 3.07q-4.59 11.75-8.84 23.59a594.74 594.74 0 0 1 -28.35 65.62c-21.53 42.89-47.36 83.44-74.36 123.06-13.19 19.36-26.45 38.73-40.19 57.7-6.6 9.12-13.81 18.18-23.18 24.61-9.66 6.63-20.92 10.2-32.14 13.18-32.85 8.69-67.85 9.08-101.55 9.49zm241.63-14.1c-19.09-20.63-38.81-40.69-57.33-61.84 5-7.48 10-15 15.09-22.37 28.79-42.15 56.41-85.31 79-131.17.82-1.66 1.61-3.34 2.41-5q-.53 3.1-1.06 6.21-5 29-10.15 58-11.43 64.59-23 129.16-1.93 10.84-3.86 21.7c-.38 1.71-.81 3.48-1.13 5.26zm-124.32 6.09a100.76 100.76 0 0 0 11.22-4.73c10.46-5.23 18.9-13.11 26.19-22.17 3.63-4.51 7.15-9.15 10.6-13.84 16 18.15 32.66 35.62 49.13 53.29-25.65 5.14-51.46 9.77-76.95 15.66-6.8-9.42-13.56-18.81-20.22-28.26zm44.81 78.4c-1.59 3.71-6.08 4.93-9.76 4.55-8.33-.85-13.51-10-17.91-16.12l-14.78-20.56q-14.15-19.68-28.28-39.35c1.9-.39 3.79-.79 5.67-1.23 5.17-1.22 10.38-2.56 15.49-4.17 7.37 10.49 14.86 20.88 22.35 31.27.09.14.19.27.29.4l6.89 9.55c5.23 7.26 10.52 14.49 15.58 21.87 2.53 3.7 6.52 9.02 4.46 13.79zm-15.88-38.07-5-7c25.41-5.79 51.11-10.4 76.65-15.54a2.17 2.17 0 0 0 1-.51q4.47 4.83 8.91 9.7c-27.05 5.02-54.24 9.95-81.56 13.35zm128.27-1.22c3.59 4.58 9.05 10.15 9.57 16.18.57 6.56-6.07 9.36-11.63 8.82-9.31-.89-16.17-12-21.54-18.55-11.69-14.37-24.41-27.79-37.1-41.28-15.2-16.16-30.65-32.13-45.31-48.79-.1-.11-.2-.19-.3-.29 4.51-6.26 8.91-12.62 13.25-19 30.5 34.74 64.47 66.49 93.06 102.91zm7-186.06c-7.19 43.81-14.57 87.59-22.44 131.29-1.19 6.61-2.38 13.22-3.65 19.82-.25 1.32-.51 2.65-.78 4q-4.15-4.65-8.38-9.24c.53-8.3 3-16.89 4.43-25.05q5.32-29.9 10.68-59.79c7.79-43.66 15.64-87.31 23.15-131 1.18-6.85 2.36-13.7 3.44-20.56.28-1.77 1-4.22.85-6.32q4.08-9.15 7.86-18.44c1.61-4 3.12-8 4.61-12-6.03 42.49-12.85 84.91-19.8 127.29z" fill="#3a2236"/><path d="m304.72 120.49a91.94 91.94 0 0 1 2-20.53c.7-3.35-4.68-6.35-5.53-2.27a99.29 99.29 0 0 0 -2.07 22.09c.05 3.62 5.67 5.01 5.6.71z" fill="#3a2236"/><path d="m363.65 124.53 2.1-21.34c.33-3.34-5.13-6.38-5.53-2.27l-2.1 21.34c-.33 3.34 5.13 6.38 5.53 2.27z" fill="#3a2236"/></svg>