<svg xmlns="http://www.w3.org/2000/svg" width="1920" height="2085" fill="none" viewBox="0 0 1920 2085"><rect width="2068.76" height="1043" x="-152" fill="#E4EDF3"/><mask id="mask0_18_7433" style="mask-type:alpha" width="2069" height="1043" x="-152" y="0" maskUnits="userSpaceOnUse"><rect width="2068.76" height="1043" x="-152" fill="#E4EDF3"/></mask><g mask="url(#mask0_18_7433)"><g opacity=".6"><path fill="#fff" d="M62.3323 -106.67H59.1321V1233.71H62.3323V-106.67Z"/><path fill="#fff" d="M132.713 -106.67H129.513V1233.71H132.713V-106.67Z"/><path fill="#fff" d="M203.094 -106.67H199.894V1233.71H203.094V-106.67Z"/><path fill="#fff" d="M273.464 -106.67H270.264V1233.71H273.464V-106.67Z"/><path fill="#fff" d="M343.845 -106.67H340.645V1233.71H343.845V-106.67Z"/><path fill="#fff" d="M414.226 -106.67H411.026V1233.71H414.226V-106.67Z"/><path fill="#fff" d="M484.596 -106.67H481.396V1233.71H484.596V-106.67Z"/><path fill="#fff" d="M554.977 -106.67H551.777V1233.71H554.977V-106.67Z"/><path fill="#fff" d="M625.358 -106.67H622.158V1233.71H625.358V-106.67Z"/><path fill="#fff" d="M695.739 -106.67H692.539V1233.71H695.739V-106.67Z"/><path fill="#fff" d="M766.109 -106.67H762.909V1233.71H766.109V-106.67Z"/><path fill="#fff" d="M836.49 -106.67H833.29V1233.71H836.49V-106.67Z"/><path fill="#fff" d="M906.871 -106.67H903.671V1233.71H906.871V-106.67Z"/><path fill="#fff" d="M977.241 -106.67H974.041V1233.71H977.241V-106.67Z"/><path fill="#fff" d="M1047.62 -106.67H1044.42V1233.71H1047.62V-106.67Z"/><path fill="#fff" d="M1118 -106.67H1114.8V1233.71H1118V-106.67Z"/><path fill="#fff" d="M1188.38 1019.37H-152V1022.57H1188.38V1019.37Z"/><path fill="#fff" d="M1188.38 949H-152V952.201H1188.38V949Z"/><path fill="#fff" d="M1188.38 878.62H-152V881.82H1188.38V878.62Z"/><path fill="#fff" d="M1188.38 808.239H-152V811.439H1188.38V808.239Z"/><path fill="#fff" d="M1188.38 737.869H-152V741.069H1188.38V737.869Z"/><path fill="#fff" d="M1188.38 667.488H-152V670.688H1188.38V667.488Z"/><path fill="#fff" d="M1188.38 597.106H-152V600.307H1188.38V597.106Z"/><path fill="#fff" d="M1188.38 526.726H-152V529.926H1188.38V526.726Z"/><path fill="#fff" d="M1188.38 456.355H-152V459.556H1188.38V456.355Z"/><path fill="#fff" d="M1188.38 385.975H-152V389.175H1188.38V385.975Z"/><path fill="#fff" d="M1188.38 315.594H-152V318.794H1188.38V315.594Z"/><path fill="#fff" d="M1188.38 245.223H-152V248.423H1188.38V245.223Z"/><path fill="#fff" d="M1188.38 174.843H-152V178.043H1188.38V174.843Z"/><path fill="#fff" d="M1188.38 104.462H-152V107.662H1188.38V104.462Z"/><path fill="#fff" d="M1188.38 34.0806H-152V37.2807H1188.38V34.0806Z"/></g><g opacity=".6"><path fill="#fff" d="M1891.43 1233.71H1894.63V-106.67H1891.43V1233.71Z"/><path fill="#fff" d="M1821.06 1233.71H1824.26V-106.67H1821.06V1233.71Z"/><path fill="#fff" d="M1750.68 1233.71H1753.88V-106.67H1750.68V1233.71Z"/><path fill="#fff" d="M1680.3 1233.71H1683.5V-106.67H1680.3V1233.71Z"/><path fill="#fff" d="M1609.92 1233.71H1613.12V-106.67H1609.92V1233.71Z"/><path fill="#fff" d="M1539.55 1233.71H1542.75V-106.67H1539.55V1233.71Z"/><path fill="#fff" d="M1469.16 1233.71H1472.36V-106.67H1469.16V1233.71Z"/><path fill="#fff" d="M1398.78 1233.71H1401.98V-106.67H1398.78V1233.71Z"/><path fill="#fff" d="M1328.41 1233.71H1331.61V-106.67H1328.41V1233.71Z"/><path fill="#fff" d="M1258.03 1233.71H1261.23V-106.67H1258.03V1233.71Z"/><path fill="#fff" d="M1187.65 1233.71H1190.85V-106.67H1187.65V1233.71Z"/><path fill="#fff" d="M1117.27 37.2915H2457.66V34.0914H1117.27V37.2915Z"/><path fill="#fff" d="M1117.27 107.673H2457.66V104.473H1117.27V107.673Z"/><path fill="#fff" d="M1117.27 178.043H2457.66V174.843H1117.27V178.043Z"/><path fill="#fff" d="M1117.27 248.424H2457.66V245.224H1117.27V248.424Z"/><path fill="#fff" d="M1117.27 318.805H2457.66V315.605H1117.27V318.805Z"/><path fill="#fff" d="M1117.27 389.175H2457.66V385.975H1117.27V389.175Z"/><path fill="#fff" d="M1117.27 459.556H2457.66V456.356H1117.27V459.556Z"/><path fill="#fff" d="M1117.27 529.937H2457.66V526.736H1117.27V529.937Z"/><path fill="#fff" d="M1117.27 600.317H2457.66V597.117H1117.27V600.317Z"/><path fill="#fff" d="M1117.27 670.688H2457.66V667.487H1117.27V670.688Z"/><path fill="#fff" d="M1117.27 741.068H2457.66V737.868H1117.27V741.068Z"/><path fill="#fff" d="M1117.27 811.45H2457.66V808.25H1117.27V811.45Z"/><path fill="#fff" d="M1117.27 881.82H2457.66V878.62H1117.27V881.82Z"/><path fill="#fff" d="M1117.27 952.201H2457.66V949.001H1117.27V952.201Z"/><path fill="#fff" d="M1117.27 1022.58H2457.66V1019.38H1117.27V1022.58Z"/></g></g><path fill="#F1D624" d="M0 993L1920 795V1887L0 2085V993Z"/><path fill="#06283D" d="M1113.28 1582.81C1121.63 1584.29 1130.24 1583.19 1137.95 1579.64C1145.66 1576.1 1152.1 1570.28 1156.42 1562.97C1183.76 1516.59 1193.62 1463.56 1185.95 1405.32C1179.53 1357.22 1161.53 1306.22 1130.91 1249.49C1077.42 1150.22 994.316 1051.79 927.578 972.712C897.186 936.708 868.468 902.704 848.051 875.026C839.629 863.909 831.939 852.255 825.03 840.138C835.471 840.441 851.911 842.72 877.141 850.139C918.068 862.164 966.667 882.701 1018.15 904.471C1079.61 930.474 1143.18 957.361 1199.53 971.921C1232.43 980.364 1260.15 983.899 1284.31 982.736C1316.47 981.178 1342.84 971.107 1362.72 952.849C1435.04 886.33 1356.65 746.36 1265.89 584.294C1232.24 524.194 1197.43 462.047 1175.72 411.32C1148.93 348.801 1153.42 329.334 1154.49 326.241C1160.07 323.38 1177.99 319.728 1225.13 346.15C1265.43 368.711 1312.26 404.901 1357.46 440.021C1404.95 476.84 1449.64 511.634 1491.27 534.94C1512.84 547.034 1578.51 583.782 1630.48 547.662C1667.46 521.961 1679.32 478.235 1666.01 417.717C1656.71 375.526 1636.04 327.497 1616.09 281.049C1597.49 237.788 1578.28 193.085 1570.82 158.5C1568.49 147.662 1564 121.845 1573.14 115.96C1580.77 111.029 1610.86 105.773 1670.18 121.054C1721.78 134.358 1861.04 181.177 2039.7 328.427C2200.22 460.791 2340.83 634.23 2446.03 830.021C2451.26 839.741 2460.14 846.985 2470.71 850.16C2481.28 853.335 2492.68 852.182 2502.4 846.953C2512.11 841.724 2519.35 832.852 2522.53 822.285C2525.71 811.717 2524.57 800.32 2519.35 790.597C2409.06 585.387 2261.49 403.366 2092.58 264.164C1957.71 153.034 1811.21 71.4898 1690.9 40.463C1617.74 21.6003 1563 23.461 1527.98 46.0218C1517.25 52.9491 1508.05 62.0059 1500.96 72.6317C1493.87 83.2574 1489.03 95.226 1486.75 107.796C1482.87 127.334 1483.75 149.662 1489.47 176.107C1498.66 218.554 1519.49 267.024 1539.63 313.914C1558.07 356.802 1577.02 401.273 1584.77 435.719C1587.21 446.743 1591.93 473.095 1582.98 479.328C1581.02 480.677 1566.7 481.77 1531.82 462.303C1495.64 442.045 1453.25 409.134 1408.39 374.27C1360.77 337.288 1311.63 298.935 1265.82 273.351C1238.9 258.256 1215.27 248.673 1193.6 244.068C1164.41 237.858 1138.28 240.649 1115.86 252.372C1105.91 257.497 1097.12 264.611 1090.03 273.272C1082.93 281.934 1077.7 291.958 1074.63 302.726C1054.68 369.85 1106.16 469.188 1193.23 624.811C1228.5 687.818 1264.99 752.965 1287.08 805.995C1315.79 875.003 1306.38 891.33 1306.28 891.47C1299.31 897.796 1278.98 906.216 1220.13 891.121C1169.79 878.212 1109.12 852.558 1050.38 827.741C931.555 777.48 828.914 734.079 766.525 770.363C758.537 774.872 751.655 781.105 746.378 788.608C741.1 796.112 737.561 804.697 736.016 813.74C727.599 862.28 771.571 916.961 863.91 1026.23C928.183 1102.35 1008.08 1197.11 1057.59 1288.77C1110.21 1386.46 1119.07 1462.21 1084.66 1520.57C1081.88 1525.27 1080.06 1530.48 1079.3 1535.9C1078.54 1541.31 1078.85 1546.82 1080.21 1552.11C1081.58 1557.4 1083.98 1562.37 1087.26 1566.74C1090.55 1571.1 1094.67 1574.78 1099.37 1577.55C1103.65 1580.13 1108.36 1581.91 1113.28 1582.81V1582.81Z"/><path fill="#fff" d="M1134.21 1573.5C1142.56 1574.99 1151.17 1573.88 1158.88 1570.34C1166.59 1566.79 1173.03 1560.97 1177.34 1553.66C1204.69 1507.29 1214.55 1454.26 1206.88 1396.02C1200.46 1347.92 1182.46 1296.91 1151.83 1240.19C1098.35 1140.92 1015.24 1042.49 948.506 963.409C918.114 927.404 889.396 893.4 868.979 865.723C860.557 854.606 852.867 842.952 845.959 830.835C856.399 831.137 872.84 833.417 898.07 840.836C938.996 852.861 987.595 873.398 1039.08 895.168C1100.54 921.171 1164.11 948.058 1220.46 962.618C1253.36 971.061 1281.08 974.596 1305.24 973.433C1337.4 971.875 1363.77 961.804 1383.65 943.546C1455.97 877.026 1377.58 737.056 1286.82 574.991C1253.17 514.891 1218.36 452.744 1196.64 402.017C1169.86 339.498 1174.34 320.031 1175.41 316.937C1180.99 314.077 1198.92 310.425 1246.06 336.847C1286.36 359.407 1333.19 395.598 1378.39 430.718C1425.88 467.536 1470.57 502.331 1512.19 525.636C1533.77 537.731 1599.44 574.479 1651.41 538.359C1688.38 512.658 1700.24 468.932 1686.94 408.413C1677.64 366.222 1656.97 318.193 1637.02 271.746C1618.42 228.485 1599.21 183.782 1591.74 149.197C1589.42 138.358 1584.93 112.541 1594.07 106.657C1601.7 101.726 1631.79 96.4697 1691.11 111.751C1742.7 125.054 1881.97 171.874 2060.63 319.124C2221.14 451.488 2361.76 624.927 2466.96 820.718C2472.19 830.438 2481.06 837.682 2491.63 840.857C2502.21 844.032 2513.6 842.878 2523.32 837.65C2533.04 832.421 2540.28 823.549 2543.46 812.981C2546.64 802.414 2545.49 791.017 2540.27 781.294C2429.98 576.084 2282.42 394.063 2113.5 254.86C1978.63 143.731 1832.14 62.1866 1711.82 31.1597C1638.67 12.2971 1583.93 14.1578 1548.91 36.7186C1538.18 43.6459 1528.98 52.7027 1521.89 63.3285C1514.8 73.9542 1509.96 85.9228 1507.68 98.4932C1503.8 118.03 1504.68 140.359 1510.4 166.804C1519.7 209.25 1540.42 257.721 1560.56 304.61C1579 347.499 1597.95 391.969 1605.7 426.415C1608.14 437.44 1612.86 463.792 1603.9 470.025C1601.95 471.374 1587.63 472.467 1552.75 453C1516.56 432.742 1474.17 399.831 1429.32 364.966C1381.69 327.985 1332.56 289.632 1286.75 264.048C1259.82 248.953 1236.2 239.37 1214.53 234.765C1185.34 228.555 1159.21 231.346 1136.79 243.068C1126.84 248.194 1118.05 255.308 1110.95 263.969C1103.86 272.63 1098.62 282.655 1095.56 293.423C1075.61 360.547 1127.09 459.884 1214.15 615.507C1249.43 678.515 1285.91 743.662 1308 796.691C1336.72 865.699 1327.31 882.027 1327.21 882.167C1320.24 888.493 1299.91 896.912 1241.06 881.818C1190.71 868.909 1130.05 843.255 1071.31 818.438C952.483 768.176 849.842 724.776 787.453 761.059C779.466 765.569 772.583 771.802 767.306 779.305C762.029 786.808 758.489 795.394 756.944 804.437C748.527 852.977 792.499 907.658 884.838 1016.93C949.111 1093.05 1029.01 1187.81 1078.52 1279.47C1131.14 1377.15 1140 1452.91 1105.58 1511.26C1102.81 1515.97 1100.99 1521.18 1100.23 1526.59C1099.46 1532 1099.77 1537.51 1101.14 1542.8C1102.51 1548.1 1104.9 1553.07 1108.19 1557.43C1111.48 1561.8 1115.59 1565.47 1120.3 1568.25C1124.58 1570.83 1129.29 1572.61 1134.21 1573.5V1573.5Z"/><path stroke="#06283D" stroke-linecap="round" stroke-linejoin="round" stroke-width="4" d="M1134.21 1573.5C1142.56 1574.99 1151.17 1573.88 1158.88 1570.34C1166.59 1566.79 1173.03 1560.97 1177.34 1553.66C1204.69 1507.29 1214.55 1454.26 1206.88 1396.02C1200.46 1347.92 1182.46 1296.91 1151.83 1240.19C1098.35 1140.92 1015.24 1042.49 948.506 963.409C918.114 927.404 889.396 893.4 868.979 865.723C860.557 854.606 852.867 842.952 845.959 830.835C856.399 831.137 872.84 833.417 898.07 840.836C938.996 852.861 987.595 873.398 1039.08 895.168C1100.54 921.171 1164.11 948.058 1220.46 962.618C1253.36 971.061 1281.08 974.596 1305.24 973.433C1337.4 971.875 1363.77 961.804 1383.65 943.546C1455.97 877.026 1377.58 737.056 1286.82 574.991C1253.17 514.891 1218.36 452.744 1196.64 402.017C1169.86 339.498 1174.34 320.031 1175.41 316.937C1180.99 314.077 1198.92 310.425 1246.06 336.847C1286.36 359.407 1333.19 395.598 1378.39 430.718C1425.88 467.536 1470.57 502.331 1512.19 525.636C1533.77 537.731 1599.44 574.479 1651.41 538.359C1688.38 512.658 1700.24 468.932 1686.94 408.413C1677.64 366.222 1656.97 318.193 1637.02 271.746C1618.42 228.485 1599.21 183.782 1591.74 149.197C1589.42 138.358 1584.93 112.541 1594.07 106.657C1601.7 101.726 1631.79 96.4697 1691.11 111.751C1742.7 125.054 1881.97 171.874 2060.63 319.124C2221.14 451.488 2361.76 624.927 2466.96 820.718C2472.19 830.438 2481.06 837.682 2491.63 840.857C2502.21 844.032 2513.6 842.878 2523.32 837.65C2533.04 832.421 2540.28 823.549 2543.46 812.981C2546.64 802.414 2545.49 791.017 2540.27 781.294C2429.98 576.084 2282.42 394.063 2113.5 254.86C1978.63 143.731 1832.14 62.1866 1711.82 31.1597C1638.67 12.2971 1583.93 14.1578 1548.91 36.7186C1538.18 43.6459 1528.98 52.7027 1521.89 63.3285C1514.8 73.9542 1509.96 85.9228 1507.68 98.4932C1503.8 118.03 1504.68 140.359 1510.4 166.804C1519.7 209.25 1540.42 257.721 1560.56 304.61C1579 347.499 1597.95 391.969 1605.7 426.415C1608.14 437.44 1612.86 463.792 1603.9 470.025C1601.95 471.374 1587.63 472.467 1552.75 453C1516.56 432.742 1474.17 399.831 1429.32 364.966C1381.69 327.985 1332.56 289.632 1286.75 264.048C1259.82 248.953 1236.2 239.37 1214.53 234.765C1185.34 228.555 1159.21 231.346 1136.79 243.068C1126.84 248.194 1118.05 255.308 1110.95 263.969C1103.86 272.63 1098.62 282.655 1095.56 293.423C1075.61 360.547 1127.09 459.884 1214.15 615.507C1249.43 678.515 1285.91 743.662 1308 796.691C1336.72 865.699 1327.31 882.027 1327.21 882.167C1320.24 888.493 1299.91 896.912 1241.06 881.818C1190.71 868.909 1130.05 843.255 1071.31 818.438C952.483 768.176 849.842 724.776 787.453 761.059C779.466 765.569 772.583 771.802 767.306 779.305C762.029 786.808 758.489 795.394 756.944 804.437C748.527 852.977 792.499 907.658 884.838 1016.93C949.111 1093.05 1029.01 1187.81 1078.52 1279.47C1131.14 1377.15 1140 1452.91 1105.58 1511.26C1102.81 1515.97 1100.99 1521.18 1100.23 1526.59C1099.46 1532 1099.77 1537.51 1101.14 1542.8C1102.51 1548.1 1104.9 1553.07 1108.19 1557.43C1111.48 1561.8 1115.59 1565.47 1120.3 1568.25C1124.58 1570.83 1129.29 1572.61 1134.21 1573.5V1573.5Z"/><path fill="#fff" d="M1150.49 1557.22C1158.84 1558.71 1167.45 1557.6 1175.16 1554.06C1182.87 1550.51 1189.31 1544.69 1193.62 1537.38C1220.97 1491.01 1230.83 1437.98 1223.15 1379.74C1216.73 1331.64 1198.74 1280.63 1168.11 1223.9C1114.63 1124.64 1031.52 1026.21 964.784 947.128C934.392 911.124 905.673 877.12 885.257 849.442C876.834 838.325 869.145 826.671 862.236 814.554C872.677 814.857 889.117 817.136 914.347 824.555C955.273 836.58 1003.87 857.117 1055.36 878.887C1116.81 904.89 1180.39 931.777 1236.73 946.337C1269.64 954.78 1297.35 958.315 1321.52 957.152C1353.67 955.594 1380.04 945.523 1399.93 927.265C1472.24 860.746 1393.86 720.776 1303.1 558.71C1269.45 498.61 1234.64 436.463 1212.92 385.736C1186.13 323.217 1190.62 303.75 1191.69 300.657C1197.27 297.796 1215.2 294.144 1262.34 320.566C1302.63 343.127 1349.47 379.317 1394.67 414.437C1442.15 451.256 1486.85 486.05 1528.47 509.356C1550.05 521.45 1615.72 558.198 1667.69 522.078C1704.66 496.377 1716.52 452.651 1703.22 392.133C1693.92 349.942 1673.25 301.913 1653.3 255.465C1634.69 212.204 1615.49 167.502 1608.02 132.916C1605.7 122.078 1601.21 96.2606 1610.35 90.3762C1617.97 85.4454 1648.06 80.1889 1707.38 95.4698C1758.98 108.774 1898.25 155.593 2076.9 302.843C2237.42 435.207 2378.04 608.646 2483.23 804.437C2488.47 814.157 2497.34 821.401 2507.91 824.576C2518.48 827.751 2529.88 826.598 2539.6 821.369C2549.32 816.14 2556.56 807.268 2559.74 796.701C2562.92 786.133 2561.77 774.736 2556.55 765.014C2446.26 559.803 2298.69 377.782 2129.78 238.58C1994.91 127.45 1848.42 45.9059 1728.1 14.879C1654.95 -3.9837 1600.21 -2.12299 1565.19 20.4378C1554.46 27.3652 1545.26 36.4219 1538.17 47.0477C1531.08 57.6735 1526.24 69.642 1523.96 82.2125C1520.08 101.75 1520.96 124.078 1526.68 150.523C1535.87 192.97 1556.7 241.44 1576.84 288.33C1595.28 331.218 1614.23 375.689 1621.97 410.135C1624.41 421.159 1629.13 447.511 1620.18 453.744C1618.23 455.093 1603.9 456.187 1569.02 436.719C1532.84 416.461 1490.57 383.55 1445.71 348.686C1397.97 311.705 1348.84 273.351 1303.03 247.767C1276.1 232.672 1252.48 223.089 1230.8 218.484C1201.62 212.274 1175.48 215.065 1153.07 226.788C1143.12 231.913 1134.32 239.027 1127.23 247.688C1120.14 256.35 1114.9 266.374 1111.84 277.142C1091.89 344.266 1143.37 443.604 1230.43 599.227C1265.71 662.234 1302.19 727.381 1324.28 780.411C1353 849.419 1343.58 865.746 1343.49 865.886C1336.51 872.212 1316.19 880.632 1257.34 865.537C1206.99 852.628 1146.32 826.974 1087.59 802.157C968.76 751.896 866.119 708.495 803.73 744.779C795.743 749.288 788.861 755.521 783.583 763.024C778.306 770.528 774.766 779.113 773.222 788.156C764.804 836.696 808.776 891.377 901.116 1000.65C965.388 1076.77 1045.29 1171.53 1094.79 1263.19C1147.42 1360.87 1156.28 1436.63 1121.86 1494.98C1119.09 1499.69 1117.26 1504.9 1116.5 1510.31C1115.74 1515.72 1116.05 1521.23 1117.42 1526.52C1118.79 1531.82 1121.18 1536.79 1124.47 1541.15C1127.76 1545.52 1131.87 1549.19 1136.58 1551.97C1140.86 1554.55 1145.57 1556.33 1150.49 1557.22V1557.22Z"/><path stroke="#06283D" stroke-linecap="round" stroke-linejoin="round" stroke-width="4" d="M1150.49 1557.22C1158.84 1558.71 1167.45 1557.6 1175.16 1554.06C1182.87 1550.51 1189.31 1544.69 1193.62 1537.38C1220.97 1491.01 1230.83 1437.98 1223.15 1379.74C1216.73 1331.64 1198.74 1280.63 1168.11 1223.9C1114.63 1124.64 1031.52 1026.21 964.784 947.128C934.392 911.124 905.673 877.12 885.257 849.442C876.834 838.325 869.145 826.671 862.236 814.554C872.677 814.857 889.117 817.136 914.347 824.555C955.273 836.58 1003.87 857.117 1055.36 878.887C1116.81 904.89 1180.39 931.777 1236.73 946.337C1269.64 954.78 1297.35 958.315 1321.52 957.152C1353.67 955.594 1380.04 945.523 1399.93 927.265C1472.24 860.746 1393.86 720.776 1303.1 558.71C1269.45 498.61 1234.64 436.463 1212.92 385.736C1186.13 323.217 1190.62 303.75 1191.69 300.657C1197.27 297.796 1215.2 294.144 1262.34 320.566C1302.63 343.127 1349.47 379.317 1394.67 414.437C1442.15 451.256 1486.85 486.05 1528.47 509.356C1550.05 521.45 1615.72 558.198 1667.69 522.078C1704.66 496.377 1716.52 452.651 1703.22 392.133C1693.92 349.942 1673.25 301.913 1653.3 255.465C1634.69 212.204 1615.49 167.502 1608.02 132.916C1605.7 122.078 1601.21 96.2606 1610.35 90.3762C1617.97 85.4454 1648.06 80.1889 1707.38 95.4698C1758.98 108.774 1898.25 155.593 2076.9 302.843C2237.42 435.207 2378.04 608.646 2483.23 804.437C2488.47 814.157 2497.34 821.401 2507.91 824.576C2518.48 827.751 2529.88 826.598 2539.6 821.369C2549.32 816.14 2556.56 807.268 2559.74 796.701C2562.92 786.133 2561.77 774.736 2556.55 765.014C2446.26 559.803 2298.69 377.782 2129.78 238.58C1994.91 127.45 1848.42 45.9059 1728.1 14.879C1654.95 -3.9837 1600.21 -2.12299 1565.19 20.4378C1554.46 27.3652 1545.26 36.4219 1538.17 47.0477C1531.08 57.6735 1526.24 69.642 1523.96 82.2125C1520.08 101.75 1520.96 124.078 1526.68 150.523C1535.87 192.97 1556.7 241.44 1576.84 288.33C1595.28 331.218 1614.23 375.689 1621.97 410.135C1624.41 421.159 1629.13 447.511 1620.18 453.744C1618.23 455.093 1603.9 456.187 1569.02 436.719C1532.84 416.461 1490.57 383.55 1445.71 348.686C1397.97 311.705 1348.84 273.351 1303.03 247.767C1276.1 232.672 1252.48 223.089 1230.8 218.484C1201.62 212.274 1175.48 215.065 1153.07 226.788C1143.12 231.913 1134.32 239.027 1127.23 247.688C1120.14 256.35 1114.9 266.374 1111.84 277.142C1091.89 344.266 1143.37 443.604 1230.43 599.227C1265.71 662.234 1302.19 727.381 1324.28 780.411C1353 849.419 1343.58 865.746 1343.49 865.886C1336.51 872.212 1316.19 880.632 1257.34 865.537C1206.99 852.628 1146.32 826.974 1087.59 802.157C968.76 751.896 866.119 708.495 803.73 744.779C795.743 749.288 788.861 755.521 783.583 763.024C778.306 770.528 774.766 779.113 773.222 788.156C764.804 836.696 808.776 891.377 901.116 1000.65C965.388 1076.77 1045.29 1171.53 1094.79 1263.19C1147.42 1360.87 1156.28 1436.63 1121.86 1494.98C1119.09 1499.69 1117.26 1504.9 1116.5 1510.31C1115.74 1515.72 1116.05 1521.23 1117.42 1526.52C1118.79 1531.82 1121.18 1536.79 1124.47 1541.15C1127.76 1545.52 1131.87 1549.19 1136.58 1551.97C1140.86 1554.55 1145.57 1556.33 1150.49 1557.22V1557.22Z"/></svg>