<svg width="450" height="347" viewBox="0 0 375 347" fill="none" xmlns="http://www.w3.org/2000/svg">
<path d="M76.0213 516.097C78.7383 516.58 81.5381 516.22 84.0453 515.067C86.5525 513.914 88.6474 512.022 90.0493 509.645C98.9426 494.562 102.149 477.316 99.6535 458.376C97.5663 442.734 91.7131 426.146 81.7535 407.698C64.3603 375.415 37.3326 343.404 15.6288 317.687C5.74493 305.978 -3.59448 294.919 -10.2342 285.918C-12.9733 282.303 -15.4742 278.513 -17.7209 274.572C-14.3254 274.671 -8.97882 275.412 -0.773743 277.825C12.5359 281.735 28.3411 288.414 45.084 295.494C65.0711 303.951 85.7465 312.695 104.07 317.43C114.771 320.175 123.785 321.325 131.642 320.947C142.101 320.44 150.676 317.165 157.142 311.227C180.661 289.594 155.168 244.074 125.653 191.369C114.71 171.824 103.389 151.613 96.3261 135.116C87.6143 114.784 89.0739 108.453 89.4217 107.447C91.2367 106.517 97.0672 105.329 112.396 113.922C125.501 121.259 140.732 133.028 155.433 144.45C170.875 156.423 185.41 167.739 198.946 175.318C205.964 179.251 227.32 191.202 244.222 179.456C256.246 171.098 260.103 156.877 255.777 137.196C252.752 123.475 246.029 107.855 239.541 92.7502C233.491 78.6812 227.244 64.1433 224.817 52.8957C224.061 49.3709 222.601 40.9749 225.573 39.0613C228.054 37.4577 237.839 35.7483 257.131 40.7178C273.911 45.0443 319.202 60.2706 377.303 108.158C429.506 151.204 475.235 207.609 509.446 271.282C511.148 274.443 514.035 276.799 517.472 277.832C520.91 278.864 524.616 278.489 527.777 276.789C530.937 275.088 533.293 272.203 534.326 268.766C535.36 265.33 534.987 261.623 533.29 258.461C497.422 191.724 449.432 132.529 394.5 87.2587C350.638 51.1182 302.996 24.599 263.869 14.5087C240.078 8.37434 222.276 8.97947 210.887 16.3165C207.397 18.5694 204.406 21.5147 202.1 24.9703C199.794 28.426 198.221 32.3183 197.479 36.4063C196.216 42.7601 196.504 50.0214 198.364 58.6216C201.351 72.4258 208.127 88.1891 214.676 103.438C220.673 117.386 226.836 131.848 229.354 143.05C230.148 146.636 231.684 155.206 228.772 157.233C228.137 157.672 223.478 158.027 212.135 151.696C200.368 145.108 186.582 134.405 171.994 123.066C156.507 111.04 140.528 98.5668 125.63 90.2465C116.873 85.3375 109.19 82.2212 102.142 80.7235C92.6508 78.7039 84.1508 79.6116 76.8607 83.4238C73.6247 85.0908 70.7651 87.4042 68.4588 90.221C66.1526 93.0378 64.4488 96.2979 63.4528 99.7998C56.9644 121.629 73.7073 153.935 102.02 204.545C113.492 225.036 125.358 246.223 132.542 263.468C141.881 285.911 138.819 291.221 138.788 291.266C136.52 293.323 129.91 296.061 110.77 291.152C94.3977 286.954 74.6677 278.611 55.5653 270.541C16.9221 254.195 -16.4579 240.081 -36.7476 251.88C-39.3452 253.347 -41.5834 255.374 -43.2996 257.814C-45.0159 260.254 -46.167 263.046 -46.6693 265.987C-49.4069 281.773 -35.1065 299.556 -5.07666 335.091C15.8255 359.848 41.8095 390.664 57.9096 420.473C75.0231 452.242 77.9043 476.878 66.7121 495.856C65.8096 497.387 65.2175 499.081 64.9696 500.841C64.7218 502.601 64.823 504.392 65.2675 506.113C65.7121 507.834 66.4912 509.451 67.5604 510.87C68.6296 512.29 69.968 513.485 71.4991 514.387C72.8903 515.227 74.4227 515.806 76.0213 516.097Z" fill="#06283D"/>
<path d="M82.8272 513.071C85.5443 513.554 88.344 513.195 90.8512 512.042C93.3584 510.889 95.4533 508.997 96.8553 506.619C105.749 491.537 108.955 474.291 106.459 455.351C104.372 439.709 98.519 423.121 88.5594 404.672C71.1662 372.389 44.1385 340.379 22.4348 314.661C12.5508 302.952 3.21143 291.894 -3.42828 282.893C-6.16736 279.277 -8.66821 275.487 -10.915 271.547C-7.51947 271.645 -2.17291 272.387 6.03217 274.799C19.3418 278.71 35.147 285.389 51.8899 292.469C71.877 300.925 92.5524 309.669 110.876 314.404C121.576 317.15 130.591 318.3 138.448 317.921C148.907 317.415 157.482 314.14 163.948 308.202C187.467 286.569 161.974 241.049 132.459 188.344C121.516 168.798 110.195 148.587 103.132 132.09C94.4203 111.759 95.8798 105.428 96.2276 104.422C98.0426 103.491 103.873 102.304 119.202 110.896C132.307 118.233 147.538 130.003 162.239 141.424C177.681 153.398 192.216 164.714 205.752 172.293C212.77 176.226 234.126 188.177 251.028 176.43C263.052 168.072 266.909 153.852 262.583 134.171C259.558 120.45 252.835 104.83 246.347 89.7248C240.297 75.6558 234.05 61.1179 231.623 49.8703C230.867 46.3455 229.407 37.9496 232.379 36.0359C234.86 34.4323 244.645 32.7229 263.937 37.6924C280.717 42.019 326.008 57.2452 384.109 105.133C436.311 148.179 482.041 204.583 516.252 268.257C517.954 271.418 520.84 273.774 524.278 274.806C527.716 275.839 531.422 275.464 534.583 273.763C537.743 272.063 540.099 269.177 541.132 265.741C542.166 262.304 541.793 258.598 540.096 255.436C504.228 188.699 456.238 129.504 401.306 84.2333C357.444 48.0928 309.802 21.5736 270.675 11.4833C246.884 5.34895 229.082 5.95408 217.693 13.2911C214.203 15.544 211.212 18.4893 208.906 21.945C206.6 25.4006 205.027 29.2929 204.285 33.3809C203.022 39.7347 203.31 46.996 205.17 55.5963C208.195 69.4005 214.933 85.1637 221.482 100.413C227.479 114.361 233.642 128.823 236.16 140.025C236.954 143.61 238.489 152.18 235.578 154.207C234.943 154.646 230.284 155.002 218.941 148.671C207.174 142.082 193.388 131.379 178.8 120.041C163.313 108.014 147.334 95.5415 132.436 87.2211C123.679 82.3121 115.995 79.1958 108.947 77.6981C99.4567 75.6785 90.9567 76.5862 83.6666 80.3984C80.4306 82.0654 77.571 84.3788 75.2647 87.1956C72.9585 90.0124 71.2547 93.2725 70.2587 96.7744C63.7703 118.604 80.5132 150.91 108.826 201.52C120.298 222.011 132.164 243.197 139.348 260.443C148.687 282.885 145.624 288.195 145.594 288.241C143.326 290.298 136.716 293.036 117.576 288.127C101.204 283.929 81.4736 275.586 62.3712 267.515C23.7279 251.17 -9.65204 237.055 -29.9417 248.855C-32.5392 250.322 -34.7775 252.349 -36.4937 254.789C-38.21 257.229 -39.3611 260.021 -39.8634 262.962C-42.601 278.748 -28.3007 296.531 1.72925 332.066C22.6314 356.823 48.6154 387.638 64.7155 417.448C81.829 449.216 84.7102 473.852 73.518 492.83C72.6155 494.361 72.0234 496.055 71.7755 497.815C71.5277 499.575 71.6289 501.367 72.0735 503.088C72.518 504.809 73.2971 506.425 74.3663 507.845C75.4355 509.265 76.7739 510.46 78.305 511.362C79.6962 512.201 81.2286 512.781 82.8272 513.071Z" fill="white"/>
<path d="M82.8272 513.071C85.5442 513.554 88.344 513.195 90.8512 512.042C93.3584 510.889 95.4533 508.997 96.8553 506.619C105.749 491.537 108.955 474.291 106.459 455.351C104.372 439.709 98.519 423.121 88.5595 404.672C71.1662 372.389 44.1386 340.379 22.4348 314.661C12.5509 302.952 3.21143 291.894 -3.42826 282.893C-6.16735 279.277 -8.66821 275.487 -10.9149 271.547C-7.51948 271.645 -2.17292 272.387 6.03217 274.799C19.3418 278.71 35.147 285.389 51.8899 292.469C71.8771 300.925 92.5524 309.669 110.876 314.404C121.576 317.15 130.591 318.3 138.448 317.921C148.907 317.415 157.482 314.14 163.948 308.202C187.467 286.569 161.974 241.049 132.459 188.344C121.516 168.798 110.195 148.587 103.132 132.09C94.4202 111.759 95.8798 105.428 96.2276 104.422C98.0426 103.491 103.873 102.304 119.202 110.896C132.307 118.233 147.538 130.003 162.239 141.424C177.681 153.398 192.216 164.714 205.752 172.293C212.77 176.226 234.126 188.177 251.028 176.43C263.052 168.072 266.909 153.852 262.583 134.171C259.558 120.45 252.835 104.83 246.347 89.7248C240.297 75.6558 234.05 61.1179 231.623 49.8703C230.867 46.3455 229.407 37.9496 232.379 36.0359C234.86 34.4323 244.645 32.7229 263.937 37.6924C280.717 42.019 326.008 57.2452 384.109 105.133C436.311 148.179 482.041 204.583 516.252 268.257C517.954 271.418 520.84 273.774 524.278 274.806C527.716 275.839 531.422 275.464 534.583 273.763C537.743 272.063 540.099 269.177 541.132 265.741C542.166 262.304 541.793 258.598 540.096 255.436C504.228 188.699 456.238 129.504 401.306 84.2333C357.444 48.0928 309.802 21.5736 270.675 11.4833C246.884 5.34895 229.082 5.95408 217.693 13.2911C214.203 15.544 211.212 18.4893 208.906 21.945C206.6 25.4006 205.027 29.2929 204.285 33.3809C203.022 39.7347 203.31 46.996 205.17 55.5963C208.195 69.4005 214.933 85.1637 221.482 100.413C227.479 114.361 233.642 128.823 236.16 140.025C236.954 143.61 238.489 152.18 235.578 154.207C234.943 154.646 230.284 155.002 218.941 148.671C207.174 142.082 193.388 131.379 178.8 120.041C163.313 108.014 147.334 95.5415 132.436 87.2211C123.679 82.3121 115.995 79.1958 108.947 77.6981C99.4567 75.6785 90.9567 76.5862 83.6666 80.3984C80.4306 82.0654 77.571 84.3788 75.2648 87.1956C72.9585 90.0124 71.2547 93.2725 70.2587 96.7744C63.7703 118.604 80.5132 150.91 108.826 201.52C120.298 222.011 132.164 243.197 139.348 260.443C148.687 282.885 145.624 288.195 145.594 288.241C143.326 290.298 136.716 293.036 117.576 288.127C101.204 283.929 81.4736 275.586 62.3712 267.515C23.7279 251.17 -9.65203 237.055 -29.9417 248.855C-32.5392 250.322 -34.7775 252.349 -36.4937 254.789C-38.21 257.229 -39.3611 260.021 -39.8634 262.962C-42.6009 278.748 -28.3006 296.531 1.72923 332.066C22.6314 356.823 48.6154 387.638 64.7155 417.448C81.829 449.216 84.7102 473.852 73.518 492.83C72.6155 494.361 72.0234 496.055 71.7755 497.815C71.5277 499.575 71.6289 501.367 72.0734 503.088C72.518 504.809 73.2971 506.425 74.3663 507.845C75.4355 509.265 76.7739 510.46 78.305 511.362C79.6962 512.201 81.2286 512.781 82.8272 513.071V513.071Z" stroke="#06283D" stroke-width="4" stroke-linecap="round" stroke-linejoin="round"/>
<path d="M88.1209 507.776C90.838 508.259 93.6377 507.9 96.1449 506.747C98.6521 505.594 100.747 503.702 102.149 501.324C111.042 486.242 114.249 468.996 111.753 450.056C109.666 434.414 103.813 417.826 93.8531 399.377C76.4599 367.095 49.4322 335.084 27.7285 309.366C17.8445 297.657 8.50511 286.599 1.86542 277.598C-0.873671 273.982 -3.37454 270.192 -5.62128 266.252C-2.22581 266.35 3.12078 267.092 11.3259 269.504C24.6355 273.415 40.4407 280.094 57.1836 287.174C77.1708 295.63 97.8461 304.374 116.169 309.109C126.87 311.855 135.884 313.005 143.742 312.627C154.2 312.12 162.776 308.845 169.242 302.907C192.76 281.274 167.268 235.754 137.752 183.049C126.81 163.503 115.489 143.292 108.426 126.796C99.714 106.464 101.173 100.133 101.521 99.1266C103.336 98.1962 109.167 97.0087 124.496 105.601C137.601 112.938 152.831 124.708 167.533 136.129C182.975 148.103 197.509 159.419 211.046 166.998C218.064 170.931 239.42 182.882 256.321 171.135C268.345 162.777 272.202 148.557 267.877 128.876C264.852 115.155 258.129 99.535 251.64 84.4298C245.591 70.3609 239.344 55.823 236.917 44.5754C236.16 41.0506 234.701 32.6546 237.673 30.741C240.153 29.1374 249.939 27.4279 269.23 32.3975C286.011 36.724 331.302 51.9503 389.403 99.8376C441.605 142.884 487.334 199.288 521.546 262.962C523.247 266.123 526.134 268.479 529.572 269.511C533.009 270.544 536.716 270.169 539.877 268.468C543.037 266.768 545.392 263.882 546.426 260.446C547.46 257.009 547.087 253.303 545.39 250.141C509.522 183.404 461.532 124.209 406.599 78.9384C362.738 42.7979 315.096 16.2787 275.968 6.18839C252.177 0.0540299 234.376 0.659157 222.987 7.99618C219.497 10.249 216.506 13.1944 214.199 16.65C211.893 20.1057 210.321 23.998 209.579 28.086C208.316 34.4397 208.603 41.7011 210.464 50.3013C213.451 64.1055 220.227 79.8688 226.776 95.1177C232.772 109.066 238.936 123.528 241.454 134.73C242.248 138.315 243.783 146.885 240.872 148.912C240.236 149.351 235.578 149.707 224.235 143.376C212.468 136.787 198.719 126.085 184.132 114.746C168.606 102.719 152.627 90.2465 137.73 81.9262C128.972 77.0172 121.289 73.9008 114.241 72.4032C104.75 70.3836 96.2504 71.2913 88.9603 75.1035C85.7243 76.7705 82.8647 79.0839 80.5584 81.9007C78.2522 84.7174 76.5484 87.9776 75.5524 91.4795C69.064 113.309 85.8069 145.615 114.12 196.225C125.592 216.716 137.457 237.902 144.641 255.148C153.981 277.59 150.918 282.9 150.888 282.946C148.619 285.003 142.01 287.741 122.87 282.832C106.497 278.634 86.7673 270.291 67.6649 262.22C29.0216 245.875 -4.35832 231.76 -24.6479 243.56C-27.2455 245.027 -29.4838 247.054 -31.2 249.494C-32.9163 251.934 -34.0674 254.726 -34.5697 257.667C-37.3073 273.453 -23.0069 291.236 7.02295 326.771C27.9251 351.528 53.9091 382.343 70.0092 412.153C87.1227 443.922 90.0039 468.557 78.8117 487.535C77.9092 489.066 77.3171 490.76 77.0692 492.52C76.8214 494.28 76.9226 496.072 77.3672 497.793C77.8117 499.514 78.5908 501.13 79.66 502.55C80.7292 503.97 82.0676 505.165 83.5987 506.067C84.9899 506.907 86.5223 507.486 88.1209 507.776Z" fill="white"/>
<path d="M88.1209 507.776C90.8379 508.259 93.6377 507.9 96.1449 506.747C98.6521 505.594 100.747 503.702 102.149 501.324C111.042 486.242 114.249 468.996 111.753 450.056C109.666 434.414 103.813 417.826 93.8532 399.377C76.4599 367.095 49.4323 335.084 27.7285 309.367C17.8446 297.658 8.50513 286.599 1.86544 277.598C-0.87365 273.982 -3.37451 270.192 -5.62125 266.252C-2.22578 266.35 3.12079 267.092 11.3259 269.504C24.6355 273.415 40.4407 280.094 57.1836 287.174C77.1708 295.63 97.8461 304.374 116.169 309.109C126.87 311.855 135.884 313.005 143.742 312.627C154.2 312.12 162.776 308.845 169.242 302.907C192.76 281.274 167.268 235.754 137.752 183.049C126.81 163.503 115.489 143.292 108.426 126.796C99.7139 106.464 101.173 100.133 101.521 99.1266C103.336 98.1962 109.167 97.0087 124.496 105.601C137.601 112.938 152.831 124.708 167.533 136.129C182.975 148.103 197.509 159.419 211.046 166.998C218.064 170.931 239.42 182.882 256.321 171.135C268.345 162.777 272.202 148.557 267.877 128.876C264.852 115.155 258.129 99.5351 251.64 84.4299C245.591 70.3609 239.344 55.823 236.917 44.5754C236.16 41.0506 234.701 32.6546 237.673 30.741C240.153 29.1374 249.939 27.4279 269.23 32.3975C286.011 36.724 331.302 51.9503 389.403 99.8376C441.605 142.884 487.334 199.288 521.546 262.962C523.247 266.123 526.134 268.479 529.572 269.511C533.009 270.544 536.716 270.169 539.877 268.468C543.037 266.768 545.392 263.882 546.426 260.446C547.46 257.009 547.087 253.303 545.39 250.141C509.522 183.404 461.532 124.209 406.599 78.9384C362.738 42.7979 315.096 16.2787 275.968 6.18839C252.177 0.0540304 234.376 0.659157 222.987 7.99618C219.497 10.249 216.506 13.1944 214.199 16.65C211.893 20.1057 210.321 23.998 209.579 28.086C208.316 34.4397 208.603 41.7011 210.464 50.3013C213.451 64.1055 220.227 79.8688 226.776 95.1177C232.772 109.066 238.936 123.528 241.454 134.73C242.248 138.315 243.783 146.885 240.872 148.912C240.236 149.351 235.578 149.707 224.235 143.376C212.468 136.787 198.719 126.085 184.132 114.746C168.606 102.719 152.627 90.2465 137.73 81.9262C128.972 77.0172 121.289 73.9008 114.241 72.4032C104.75 70.3836 96.2504 71.2913 88.9603 75.1035C85.7243 76.7705 82.8647 79.0839 80.5585 81.9007C78.2522 84.7174 76.5484 87.9776 75.5524 91.4795C69.064 113.309 85.8069 145.615 114.12 196.225C125.592 216.716 137.457 237.902 144.641 255.148C153.981 277.59 150.918 282.9 150.888 282.946C148.619 285.003 142.01 287.741 122.87 282.832C106.497 278.634 86.7673 270.291 67.6649 262.22C29.0216 245.875 -4.35833 231.76 -24.648 243.56C-27.2455 245.027 -29.4838 247.054 -31.2 249.494C-32.9163 251.934 -34.0674 254.726 -34.5697 257.667C-37.3072 273.453 -23.0069 291.236 7.02293 326.771C27.9251 351.528 53.9091 382.343 70.0092 412.153C87.1227 443.922 90.0039 468.557 78.8117 487.535C77.9092 489.066 77.3171 490.76 77.0692 492.52C76.8214 494.28 76.9226 496.072 77.3671 497.793C77.8117 499.514 78.5908 501.13 79.66 502.55C80.7292 503.97 82.0676 505.165 83.5987 506.067C84.9899 506.907 86.5223 507.486 88.1209 507.776V507.776Z" stroke="#06283D" stroke-width="4" stroke-linecap="round" stroke-linejoin="round"/>
</svg>
