<svg xmlns="http://www.w3.org/2000/svg" width="913" height="1071" fill="none" viewBox="0 0 913 1071"><path fill="#47B5FF" d="M378.28 1582.81C386.635 1584.29 395.244 1583.19 402.953 1579.64C410.663 1576.1 417.105 1570.28 421.416 1562.97C448.762 1516.59 458.621 1463.56 450.947 1405.32C444.529 1357.22 426.531 1306.22 395.906 1249.49C342.424 1150.22 259.316 1051.79 192.578 972.712C162.186 936.708 133.468 902.704 113.052 875.026C104.629 863.909 96.9391 852.255 90.0305 840.138C100.471 840.44 116.912 842.72 142.142 850.139C183.068 862.164 231.667 882.701 283.151 904.471C344.609 930.474 408.184 957.361 464.527 971.921C497.431 980.364 525.149 983.899 549.31 982.736C581.469 981.178 607.839 971.107 627.72 952.849C700.038 886.33 621.651 746.36 530.893 584.294C497.245 524.194 462.435 462.047 440.716 411.32C413.928 348.801 418.416 329.334 419.486 326.241C425.066 323.38 442.995 319.728 490.13 346.15C530.428 368.711 577.26 404.901 622.465 440.021C669.948 476.84 714.642 511.634 756.265 534.94C777.845 547.034 843.512 583.782 895.484 547.662C932.457 521.961 944.316 478.235 931.015 417.717C921.714 375.526 901.041 327.497 881.09 281.049C862.487 237.788 843.28 193.085 835.815 158.5C833.49 147.662 829.002 121.845 838.141 115.96C845.768 111.029 875.858 105.773 935.177 121.054C986.777 134.358 1126.04 181.177 1304.7 328.427C1465.22 460.791 1605.83 634.23 1711.03 830.021C1716.26 839.741 1725.14 846.985 1735.71 850.16C1746.28 853.335 1757.68 852.182 1767.4 846.953C1777.11 841.724 1784.35 832.852 1787.53 822.285C1790.71 811.717 1789.57 800.32 1784.35 790.597C1674.06 585.387 1526.49 403.366 1357.58 264.164C1222.71 153.034 1076.21 71.4898 955.896 40.463C882.741 21.6003 828.002 23.461 792.983 46.0218C782.25 52.9491 773.054 62.0059 765.962 72.6317C758.87 83.2574 754.035 95.226 751.754 107.796C747.871 127.334 748.755 149.662 754.475 176.107C763.66 218.554 784.495 267.024 804.633 313.914C823.073 356.802 842.024 401.273 849.767 435.719C852.209 446.743 856.93 473.095 847.977 479.328C846.024 480.677 831.7 481.77 796.819 462.303C760.637 442.045 718.246 409.134 673.39 374.27C625.767 337.288 576.632 298.935 530.823 273.351C503.896 258.256 480.27 248.673 458.598 244.068C429.415 237.858 403.278 240.649 380.861 252.372C370.911 257.497 362.118 264.611 355.026 273.272C347.935 281.934 342.696 291.958 339.633 302.726C319.682 369.85 371.165 469.188 458.226 624.811C493.501 687.818 529.986 752.965 552.077 805.995C580.795 875.003 571.377 891.33 571.284 891.47C564.308 897.796 543.984 906.216 485.13 891.121C434.786 878.212 374.118 852.558 315.38 827.741C196.555 777.48 93.9139 734.079 31.5249 770.363C23.5376 774.872 16.6552 781.105 11.3778 788.608C6.10059 796.112 2.56091 804.697 1.01636 813.74C-7.40137 862.28 36.5709 916.961 128.91 1026.23C193.183 1102.35 273.082 1197.11 322.588 1288.77C375.211 1386.46 384.071 1462.21 349.655 1520.57C346.88 1525.27 345.06 1530.48 344.297 1535.9C343.535 1541.31 343.846 1546.82 345.213 1552.11C346.58 1557.4 348.976 1562.37 352.264 1566.74C355.552 1571.1 359.667 1574.78 364.375 1577.55C368.653 1580.13 373.365 1581.91 378.28 1582.81Z"/><path fill="#FF577F" d="M399.208 1573.5C407.563 1574.99 416.172 1573.88 423.881 1570.34C431.591 1566.79 438.033 1560.97 442.344 1553.66C469.69 1507.29 479.549 1454.26 471.875 1396.02C465.458 1347.92 447.459 1296.91 416.835 1240.19C363.352 1140.92 280.244 1042.49 213.506 963.409C183.114 927.404 154.396 893.4 133.98 865.723C125.557 854.606 117.867 842.952 110.959 830.835C121.399 831.137 137.84 833.417 163.07 840.836C203.996 852.861 252.596 873.398 304.079 895.168C365.538 921.171 429.113 948.058 485.456 962.618C518.359 971.061 546.077 974.596 570.238 973.433C602.397 971.875 628.767 961.804 648.648 943.546C720.967 877.026 642.579 737.056 551.821 574.991C518.173 514.891 483.363 452.744 461.644 402.017C434.856 339.498 439.344 320.031 440.414 316.937C445.995 314.077 463.923 310.425 511.058 336.847C551.356 359.408 598.188 395.598 643.393 430.718C690.877 467.536 735.57 502.331 777.193 525.636C798.773 537.731 864.44 574.479 916.412 538.359C953.385 512.658 965.244 468.932 951.943 408.413C942.642 366.222 921.969 318.193 902.018 271.746C883.415 228.485 864.208 183.782 856.743 149.197C854.418 138.358 849.93 112.541 859.069 106.657C866.696 101.726 896.786 96.4697 956.105 111.751C1007.7 125.054 1146.97 171.874 1325.63 319.124C1486.14 451.488 1626.76 624.927 1731.96 820.718C1737.19 830.438 1746.06 837.682 1756.64 840.857C1767.21 844.032 1778.6 842.878 1788.32 837.65C1798.04 832.421 1805.28 823.549 1808.46 812.981C1811.64 802.414 1810.49 791.017 1805.28 781.294C1694.98 576.084 1547.42 394.063 1378.5 254.86C1243.63 143.731 1097.14 62.1866 976.824 31.1597C903.669 12.2971 848.93 14.1578 813.911 36.7186C803.178 43.6459 793.982 52.7027 786.89 63.3285C779.799 73.9542 774.963 85.9228 772.682 98.4932C768.799 118.03 769.683 140.359 775.403 166.804C784.704 209.25 805.423 257.721 825.561 304.61C844.001 347.499 862.952 391.969 870.695 426.415C873.137 437.44 877.858 463.792 868.905 470.025C866.952 471.374 852.628 472.467 817.747 453C781.565 432.742 739.174 399.831 694.318 364.966C646.695 327.985 597.561 289.632 551.751 264.048C524.824 248.953 501.198 239.37 479.526 234.765C450.343 228.555 424.206 231.346 401.79 243.068C391.839 248.194 383.046 255.308 375.954 263.969C368.863 272.63 363.624 282.655 360.561 293.423C340.61 360.547 392.093 459.884 479.154 615.507C514.429 678.515 550.914 743.662 573.005 796.691C601.723 865.7 592.305 882.027 592.212 882.167C585.236 888.493 564.913 896.912 506.058 881.818C455.714 868.909 395.046 843.255 336.308 818.438C217.483 768.176 114.842 724.776 52.453 761.059C44.4657 765.569 37.5833 771.802 32.3059 779.305C27.0287 786.808 23.489 795.394 21.9445 804.437C13.5267 852.977 57.499 907.658 149.839 1016.93C214.111 1093.05 294.01 1187.81 343.516 1279.47C396.139 1377.15 404.999 1452.91 370.583 1511.26C367.808 1515.97 365.988 1521.18 365.225 1526.59C364.463 1532 364.775 1537.51 366.141 1542.8C367.508 1548.1 369.904 1553.07 373.192 1557.43C376.48 1561.8 380.595 1565.47 385.303 1568.25C389.581 1570.83 394.293 1572.61 399.208 1573.5Z"/><path stroke="#06283D" stroke-linecap="round" stroke-linejoin="round" stroke-width="4" d="M399.208 1573.5C407.563 1574.99 416.172 1573.88 423.882 1570.34C431.591 1566.79 438.033 1560.97 442.344 1553.66C469.69 1507.29 479.549 1454.26 471.876 1396.02C465.458 1347.92 447.459 1296.91 416.835 1240.19C363.352 1140.92 280.244 1042.49 213.506 963.409C183.114 927.404 154.396 893.4 133.98 865.723C125.557 854.606 117.867 842.952 110.959 830.835C121.399 831.137 137.84 833.417 163.07 840.836C203.996 852.861 252.596 873.398 304.079 895.168C365.538 921.171 429.112 948.058 485.456 962.618C518.359 971.061 546.077 974.596 570.238 973.433C602.397 971.875 628.767 961.804 648.648 943.546C720.967 877.026 642.579 737.056 551.821 574.991C518.173 514.891 483.363 452.744 461.644 402.017C434.856 339.498 439.344 320.031 440.414 316.937C445.995 314.077 463.923 310.425 511.058 336.847C551.356 359.407 598.188 395.598 643.393 430.718C690.877 467.536 735.57 502.331 777.193 525.636C798.773 537.731 864.44 574.479 916.412 538.359C953.385 512.658 965.244 468.932 951.943 408.413C942.642 366.222 921.969 318.193 902.018 271.746C883.415 228.485 864.208 183.782 856.743 149.197C854.418 138.358 849.93 112.541 859.069 106.657C866.696 101.726 896.786 96.4697 956.105 111.751C1007.7 125.054 1146.97 171.874 1325.63 319.124C1486.14 451.488 1626.76 624.927 1731.96 820.718C1737.19 830.438 1746.06 837.682 1756.64 840.857C1767.21 844.032 1778.6 842.878 1788.32 837.65C1798.04 832.421 1805.28 823.549 1808.46 812.981C1811.64 802.414 1810.49 791.017 1805.28 781.294C1694.98 576.084 1547.42 394.063 1378.5 254.86C1243.63 143.731 1097.14 62.1866 976.824 31.1597C903.669 12.2971 848.93 14.1578 813.911 36.7186C803.178 43.6459 793.982 52.7027 786.89 63.3285C779.799 73.9542 774.963 85.9228 772.682 98.4932C768.799 118.03 769.683 140.359 775.403 166.804C784.704 209.25 805.423 257.721 825.561 304.61C844.001 347.499 862.952 391.969 870.696 426.415C873.137 437.44 877.858 463.792 868.905 470.025C866.952 471.374 852.628 472.467 817.747 453C781.565 432.742 739.174 399.831 694.318 364.966C646.695 327.985 597.561 289.632 551.751 264.048C524.824 248.953 501.198 239.37 479.526 234.765C450.343 228.555 424.206 231.346 401.79 243.068C391.839 248.194 383.046 255.308 375.954 263.969C368.863 272.63 363.624 282.655 360.561 293.423C340.61 360.547 392.093 459.884 479.154 615.507C514.429 678.515 550.914 743.662 573.005 796.691C601.723 865.699 592.305 882.027 592.212 882.167C585.236 888.493 564.913 896.912 506.058 881.818C455.714 868.909 395.046 843.255 336.308 818.438C217.483 768.176 114.842 724.776 52.453 761.059C44.4657 765.569 37.5832 771.802 32.3059 779.305C27.0286 786.808 23.489 795.394 21.9445 804.437C13.5267 852.977 57.499 907.658 149.838 1016.93C214.111 1093.05 294.01 1187.81 343.516 1279.47C396.139 1377.15 404.999 1452.91 370.583 1511.26C367.808 1515.97 365.988 1521.18 365.225 1526.59C364.463 1532 364.775 1537.51 366.141 1542.8C367.508 1548.1 369.904 1553.07 373.192 1557.43C376.48 1561.8 380.595 1565.47 385.303 1568.25C389.581 1570.83 394.293 1572.61 399.208 1573.5V1573.5Z"/><path fill="#F1D624" d="M415.486 1557.22C423.841 1558.71 432.449 1557.6 440.159 1554.06C447.868 1550.51 454.31 1544.69 458.621 1537.38C485.967 1491.01 495.827 1437.98 488.153 1379.74C481.735 1331.64 463.737 1280.63 433.112 1223.9C379.629 1124.64 296.521 1026.21 229.784 947.128C199.392 911.124 170.674 877.12 150.257 849.442C141.835 838.325 134.145 826.671 127.236 814.554C137.677 814.857 154.117 817.136 179.347 824.555C220.273 836.58 268.873 857.117 320.356 878.887C381.815 904.89 445.39 931.777 501.733 946.337C534.637 954.78 562.355 958.315 586.515 957.152C618.675 955.594 645.044 945.523 664.926 927.265C737.244 860.746 658.857 720.776 568.098 558.71C534.451 498.61 499.64 436.463 477.922 385.736C451.134 323.217 455.621 303.75 456.691 300.657C462.272 297.796 480.2 294.144 527.335 320.566C567.633 343.127 614.466 379.317 659.671 414.437C707.154 451.256 751.847 486.051 793.471 509.356C815.05 521.45 880.718 558.198 932.689 522.078C969.662 496.377 981.522 452.651 968.221 392.133C958.919 349.942 938.247 301.913 918.295 255.465C899.693 212.204 880.485 167.502 873.021 132.916C870.696 122.078 866.208 96.2606 875.346 90.3762C882.973 85.4454 913.063 80.1889 972.383 95.4698C1023.98 108.774 1163.25 155.593 1341.9 302.843C1502.42 435.207 1643.04 608.646 1748.23 804.437C1753.47 814.157 1762.34 821.401 1772.91 824.576C1783.48 827.751 1794.88 826.598 1804.6 821.369C1814.32 816.14 1821.56 807.268 1824.74 796.701C1827.92 786.133 1826.77 774.736 1821.55 765.013C1711.26 559.803 1563.7 377.782 1394.78 238.58C1259.91 127.45 1113.42 45.9059 993.102 14.879C919.946 -3.9837 865.208 -2.12299 830.188 20.4378C819.456 27.3652 810.259 36.4219 803.168 47.0477C796.076 57.6735 791.24 69.642 788.96 82.2125C785.076 101.75 785.96 124.078 791.68 150.523C800.865 192.97 821.701 241.44 841.838 288.33C860.278 331.218 879.23 375.689 886.973 410.135C889.415 421.159 894.135 447.511 885.182 453.744C883.229 455.093 868.905 456.186 834.025 436.719C797.843 416.461 755.568 383.55 710.712 348.686C662.973 311.704 613.838 273.351 568.029 247.767C541.101 232.672 517.476 223.089 495.803 218.484C466.62 212.274 440.483 215.065 418.067 226.788C408.116 231.913 399.323 239.027 392.232 247.688C385.14 256.35 379.901 266.374 376.839 277.142C356.887 344.266 408.37 443.604 495.431 599.227C530.707 662.234 567.191 727.381 589.282 780.411C618 849.419 608.583 865.746 608.49 865.886C601.514 872.212 581.19 880.632 522.336 865.537C471.992 852.628 411.324 826.974 352.585 802.157C233.76 751.896 131.12 708.495 68.7305 744.779C60.7432 749.288 53.8607 755.521 48.5834 763.024C43.3062 770.528 39.7665 779.113 38.2219 788.156C29.8042 836.696 73.7765 891.377 166.116 1000.65C230.389 1076.77 310.287 1171.53 359.794 1263.19C412.417 1360.87 421.276 1436.63 386.861 1494.98C384.086 1499.69 382.265 1504.9 381.503 1510.31C380.741 1515.72 381.052 1521.23 382.419 1526.52C383.786 1531.82 386.182 1536.79 389.469 1541.15C392.757 1545.52 396.872 1549.19 401.58 1551.97C405.858 1554.55 410.57 1556.33 415.486 1557.22Z"/><path stroke="#06283D" stroke-linecap="round" stroke-linejoin="round" stroke-width="4" d="M415.486 1557.22C423.841 1558.71 432.449 1557.6 440.159 1554.06C447.868 1550.51 454.31 1544.69 458.621 1537.38C485.967 1491.01 495.827 1437.98 488.153 1379.74C481.735 1331.64 463.737 1280.63 433.112 1223.9C379.629 1124.64 296.521 1026.21 229.784 947.128C199.392 911.124 170.674 877.12 150.257 849.442C141.835 838.325 134.145 826.671 127.236 814.554C137.677 814.857 154.117 817.136 179.347 824.555C220.273 836.58 268.873 857.117 320.356 878.887C381.815 904.89 445.39 931.777 501.733 946.337C534.637 954.78 562.355 958.315 586.515 957.152C618.675 955.594 645.044 945.523 664.926 927.265C737.244 860.746 658.857 720.776 568.098 558.71C534.451 498.61 499.64 436.463 477.922 385.736C451.134 323.217 455.621 303.75 456.691 300.657C462.272 297.796 480.2 294.144 527.335 320.566C567.633 343.127 614.466 379.317 659.67 414.437C707.154 451.256 751.847 486.05 793.471 509.356C815.05 521.45 880.718 558.198 932.689 522.078C969.662 496.377 981.522 452.651 968.221 392.133C958.919 349.942 938.247 301.913 918.295 255.465C899.693 212.204 880.485 167.502 873.021 132.916C870.696 122.078 866.208 96.2606 875.346 90.3762C882.973 85.4454 913.063 80.1889 972.383 95.4698C1023.98 108.774 1163.25 155.593 1341.9 302.843C1502.42 435.207 1643.04 608.646 1748.23 804.437C1753.47 814.157 1762.34 821.401 1772.91 824.576C1783.48 827.751 1794.88 826.598 1804.6 821.369C1814.32 816.14 1821.56 807.268 1824.74 796.701C1827.92 786.133 1826.77 774.736 1821.55 765.014C1711.26 559.803 1563.7 377.782 1394.78 238.58C1259.91 127.45 1113.42 45.9059 993.102 14.879C919.946 -3.9837 865.208 -2.12299 830.188 20.4378C819.456 27.3652 810.259 36.4219 803.168 47.0477C796.076 57.6735 791.24 69.642 788.96 82.2125C785.076 101.75 785.96 124.078 791.68 150.523C800.865 192.97 821.701 241.44 841.838 288.33C860.278 331.218 879.23 375.689 886.973 410.135C889.415 421.159 894.135 447.511 885.182 453.744C883.229 455.093 868.905 456.187 834.025 436.719C797.843 416.461 755.568 383.55 710.712 348.686C662.973 311.705 613.838 273.351 568.029 247.767C541.101 232.672 517.476 223.089 495.803 218.484C466.62 212.274 440.483 215.065 418.067 226.788C408.116 231.913 399.323 239.027 392.232 247.688C385.14 256.35 379.901 266.374 376.839 277.142C356.887 344.266 408.37 443.604 495.431 599.227C530.707 662.234 567.191 727.381 589.282 780.411C618 849.419 608.583 865.746 608.49 865.886C601.514 872.212 581.19 880.632 522.336 865.537C471.992 852.628 411.324 826.974 352.585 802.157C233.76 751.896 131.119 708.495 68.7305 744.779C60.7431 749.288 53.8607 755.521 48.5834 763.024C43.3061 770.528 39.7665 779.113 38.222 788.156C29.8042 836.696 73.7765 891.377 166.116 1000.65C230.388 1076.77 310.287 1171.53 359.794 1263.19C412.416 1360.87 421.276 1436.63 386.861 1494.98C384.086 1499.69 382.265 1504.9 381.503 1510.31C380.741 1515.72 381.052 1521.23 382.419 1526.52C383.786 1531.82 386.182 1536.79 389.469 1541.15C392.757 1545.52 396.872 1549.19 401.58 1551.97C405.858 1554.55 410.57 1556.33 415.486 1557.22V1557.22Z"/></svg>