<svg id="Icons" height="512" viewBox="0 0 60 60" width="512" xmlns="http://www.w3.org/2000/svg"><g fill="#dba740"><path d="m18.672 5.881a.5.5 0 0 1 -.348-.86l2.2-2.13a.5.5 0 0 1 -.036-.885l2.412-1.392a.5.5 0 0 1 .6.792l-1.573 1.519 2.5-1.442a.5.5 0 0 1 .5.866l-6 3.464a.49.49 0 0 1 -.255.068z"/><path d="m10.054 36.039a.5.5 0 0 1 -.266-.923l9.03-5.678-11.18 6.456a.5.5 0 0 1 -.519-.855l15-9.536-16.809 9.705a.5.5 0 0 1 -.518-.854l16.468-10.454-17.2 9.928a.5.5 0 0 1 -.52-.853l17.591-11.295-16.691 9.635a.5.5 0 0 1 -.51-.859l1.019-.624a.5.5 0 0 1 -.389-.909l5.268-3.28-3.904 2.257a.5.5 0 0 1 -.522-.852l13.334-8.629-14.636 8.446a.5.5 0 0 1 -.513-.858l2.142-1.32-2.548 1.47a.5.5 0 0 1 -.518-.855l11.465-7.264-12.053 6.962a.5.5 0 0 1 -.513-.857l5.309-3.291-5.444 3.14a.5.5 0 0 1 -.52-.853l11.924-7.618-10.544 6.088a.5.5 0 0 1 -.521-.852l8.312-5.371-4.5 2.6a.5.5 0 0 1 -.526-.849l7.61-5.052-7.82 4.515a.5.5 0 0 1 -.526-.851l6.516-4.289-6.5 3.749a.5.5 0 0 1 -.564-.822l.331-.266a.5.5 0 0 1 -.624-.759l.627-.751a.5.5 0 0 1 -.452-.889l2.389-1.38a.5.5 0 0 1 .634.753l-.623.746 3.2-1.846a.5.5 0 0 1 .563.822l-.329.265 15.6-9a.5.5 0 0 1 .525.851l-6.521 4.285 6.945-4.01a.5.5 0 0 1 .675.169.5.5 0 0 1 -.148.681l-7.609 5.049 7.912-4.567a.5.5 0 0 1 .522.853l-8.306 5.367 12.572-7.26a.5.5 0 0 1 .52.853l-11.932 7.624 13.907-8.03a.5.5 0 0 1 .514.858l-5.311 3.295 5.339-3.082a.5.5 0 0 1 .518.855l-11.456 7.253 11.39-6.575a.5.5 0 0 1 .512.858l-2.176 1.342 1.824-1.051a.5.5 0 0 1 .521.853l-13.339 8.63 12.818-7.401a.5.5 0 0 1 .514.858l-5.264 3.277 6.783-3.917a.5.5 0 0 1 .511.859l-.388.238 1.52-.877a.5.5 0 0 1 .52.853l-17.591 11.297 19.434-11.22a.5.5 0 0 1 .517.855l-16.478 10.463 16.538-9.548a.5.5 0 0 1 .519.854l-14.992 9.526 13.9-8.026a.5.5 0 0 1 .515.856l-9.035 5.68 7.289-4.208a.5.5 0 0 1 .521.853l-7.714 4.973 8.248-4.762a.5.5 0 0 1 .537.842l-9.054 6.343 10.263-5.925a.5.5 0 0 1 .525.849l-2.008 1.325 2.3-1.332a.5.5 0 0 1 .535.844l-2 1.383 2.161-1.247a.5.5 0 0 1 .563.822l-2.24 1.8 1.652-.953a.5.5 0 1 1 .5.865l-7.267 4.2a.5.5 0 0 1 -.564-.822l2.243-1.8-7.163 4.135a.5.5 0 0 1 -.534-.844l1.994-1.379-6.03 3.481a.5.5 0 0 1 -.525-.85l2.009-1.328-5.855 3.38a.5.5 0 0 1 -.537-.842l9.054-6.338-16 9.241a.5.5 0 0 1 -.521-.853l7.709-4.97-12.614 7.279a.494.494 0 0 1 -.246.067z"/><path d="m10.466 10.663a.5.5 0 0 1 -.313-.89l1.363-1.093-.846.488a.5.5 0 0 1 -.624-.764l2.121-2.4-1.128.651a.5.5 0 0 1 -.635-.752l.782-.942a.474.474 0 0 1 -.133-.151.5.5 0 0 1 .182-.682l1.31-.756a.5.5 0 0 1 .635.752l-.224.269 1.374-.793a.5.5 0 0 1 .624.764l-2.122 2.4 3.855-2.224a.5.5 0 0 1 .563.822l-1.362 1.094 2.033-1.174a.5.5 0 1 1 .5.865l-7.7 4.449a.491.491 0 0 1 -.255.067z"/></g><path d="m22.963 40.469a.5.5 0 0 1 -.286-.91l6.285-4.377-8.613 4.972a.5.5 0 0 1 -.535-.843l9.317-6.428-11.418 6.592a.5.5 0 0 1 -.52-.854l3.971-2.541-4.886 2.82a.5.5 0 0 1 -.52-.852l6.642-4.278-7.592 4.382a.5.5 0 0 1 -.528-.848l12.286-8.185-13.566 7.833a.5.5 0 0 1 -.522-.851l10.875-7.069-11.715 6.768a.5.5 0 0 1 -.519-.855l7.873-5-8.366 4.83a.5.5 0 0 1 -.514-.858l1.469-.917-1.644.949a.5.5 0 0 1 -.513-.857l.841-.521-.946.545a.5.5 0 0 1 -.521-.852l11.574-7.472-11.944 6.9a.5.5 0 0 1 -.52-.854l10.154-6.5-10.33 5.962a.5.5 0 0 1 -.517-.856l7.367-4.658-7.354 4.242a.5.5 0 0 1 -.514-.857l.965-.6-.768.443a.5.5 0 0 1 -.523-.851l12.076-7.9-11.964 6.905a.5.5 0 0 1 -.516-.855l3.953-2.483-3.587 2.07a.5.5 0 0 1 -.52-.853l6.661-4.258-6.21 3.585a.5.5 0 0 1 -.521-.853l7.55-4.893-6.931 4a.5.5 0 0 1 -.529-.848l9.573-6.449-8.636 4.986a.5.5 0 0 1 -.524-.85l4.5-2.951-3.406 1.966a.5.5 0 0 1 -.537-.841l6.371-4.464-4.555 2.63a.5.5 0 0 1 -.571-.817l4.309-3.59a.5.5 0 0 1 -.444-.893l4.97-2.869a.5.5 0 0 1 .571.816l-4.293 3.576 9.4-5.427a.5.5 0 0 1 .537.841l-6.375 4.467 8.8-5.081a.5.5 0 0 1 .524.851l-4.5 2.949 5.856-3.378a.5.5 0 0 1 .529.848l-9.566 6.444 11.24-6.489a.5.5 0 0 1 .522.852l-7.553 4.9 8.592-4.96a.5.5 0 0 1 .516.853l-6.66 4.255 7.432-4.29a.5.5 0 0 1 .515.856l-3.942 2.479 4.441-2.563a.5.5 0 0 1 .524.85l-12.076 7.9 12.951-7.477a.5.5 0 0 1 .513.857l-.971.6 1.176-.679a.5.5 0 0 1 .517.856l-7.374 4.666 7.7-4.447a.5.5 0 0 1 .52.854l-10.145 6.495 10.491-6.056a.5.5 0 0 1 .521.853l-11.583 7.478 11.85-6.842a.5.5 0 0 1 .512.857l-.816.506.718-.414a.5.5 0 0 1 .513.857l-1.463.908 1.316-.759a.5.5 0 0 1 .518.854l-7.878 5.008 7.753-4.476a.5.5 0 0 1 .523.851l-10.875 7.068 10.665-6.157a.5.5 0 0 1 .527.849l-12.288 8.185 11.894-6.866a.5.5 0 0 1 .52.853l-6.639 4.275 6.029-3.48a.5.5 0 0 1 .519.853l-3.965 2.538 3.222-1.86a.5.5 0 0 1 .534.844l-9.32 6.43 8.061-4.653a.5.5 0 0 1 .536.843l-6.287 4.378 4.534-2.617a.5.5 0 0 1 .531.845l-1.7 1.158a.54.54 0 0 1 .445.25.5.5 0 0 1 -.182.683l-10.846 6.263a.5.5 0 0 1 -.531-.846l1.035-.7-3 1.733a.5.5 0 0 1 -.252.063z" fill="#f7bf4f"/><path d="m12.859 59.47a.5.5 0 0 1 -.261-.926l6.581-4.044-8.463 4.886a.5.5 0 0 1 -.516-.857l15.912-9.97-17.945 10.355a.5.5 0 0 1 -.517-.855l19.325-12.172-20.898 12.065a.5.5 0 0 1 -.511-.859l9.334-5.709-9.967 5.753a.5.5 0 0 1 -.516-.857l19.665-12.334-20.507 11.84a.5.5 0 0 1 -.513-.857l15.038-9.306-15.417 8.9a.5.5 0 0 1 -.513-.858l13.844-8.552-14 8.08a.5.5 0 0 1 -.511-.859l7.57-4.628-7.45 4.306a.5.5 0 0 1 -.512-.859l8.335-5.117-8.078 4.664a.5.5 0 0 1 -.515-.856l9.809-6.138-9.37 5.41a.5.5 0 0 1 -.511-.859l.573-.352a.5.5 0 0 1 -.631-.2.5.5 0 0 1 .158-.682l12.845-8.2-11.658 6.733a.5.5 0 0 1 -.586-.8l2.833-2.566a.505.505 0 0 1 -.528-.242.5.5 0 0 1 .183-.682l3.813-2.2a.5.5 0 0 1 .586.8l-2.74 2.483 26.971-15.572a.5.5 0 0 1 .519.855l-12.847 8.2 13.614-7.859a.5.5 0 0 1 .511.859l-.444.271.637-.367a.5.5 0 0 1 .516.857l-9.823 6.145 15.814-9.13a.5.5 0 0 1 .511.859l-8.335 5.117 9.827-5.671a.5.5 0 0 1 .51.859l-7.585 4.637 8.565-4.944a.5.5 0 0 1 .513.858l-13.825 8.54 14.777-8.531a.5.5 0 0 1 .512.857l-15.036 9.3 15.734-9.084a.5.5 0 0 1 .515.857l-19.668 12.338 20.288-11.712a.5.5 0 0 1 .511.859l-9.339 5.714 9.415-5.436a.5.5 0 0 1 .517.856l-19.324 12.169 19.375-11.186a.5.5 0 0 1 .515.857l-15.926 9.979 15.57-8.989a.5.5 0 0 1 .512.858l-6.594 4.057 5.932-3.426a.5.5 0 0 1 .522.853l-16.279 10.523 16.923-9.77a.5.5 0 0 1 .517.855l-8.969 5.639 10.278-5.934a.5.5 0 0 1 .514.857l-5.87 3.662 6.672-3.852a.5.5 0 0 1 .516.857l-6.319 3.962 6.953-4.014a.5.5 0 0 1 .52.853l-9.368 6 9.99-5.766a.5.5 0 0 1 .517.855l-5.071 3.2 5.337-3.08a.5.5 0 0 1 .527.85l-10.207 6.779 10.549-6.091a.5.5 0 0 1 .524.852l-6.44 4.21 6.417-3.7a.5.5 0 0 1 .533.846l-7.72 5.263 7.533-4.348a.5.5 0 0 1 .535.843l-5.866 4.065 5.355-3.092a.5.5 0 0 1 .538.842l-3.866 2.718 3-1.732a.5.5 0 0 1 .553.831l-3.362 2.557 1.838-1.061a.5.5 0 0 1 .562.823l-1.921 1.536a.489.489 0 0 1 .166.172.5.5 0 0 1 -.182.683l-3.828 2.21a.5.5 0 0 1 -.563-.823l.529-.423-2.931 1.69a.5.5 0 0 1 -.553-.831l3.363-2.557-5.87 3.388a.5.5 0 0 1 -.537-.841l3.87-2.722-6.173 3.563a.5.5 0 0 1 -.535-.843l5.864-4.057-8.499 4.9a.5.5 0 0 1 -.532-.845l7.724-5.273-10.598 6.118a.5.5 0 0 1 -.523-.851l6.437-4.207-8.758 5.058a.5.5 0 0 1 -.527-.849l10.2-6.773-13.203 7.622a.5.5 0 0 1 -.516-.855l5.076-3.205-7.037 4.06a.5.5 0 0 1 -.52-.853l9.363-6-11.867 6.853a.5.5 0 0 1 -.515-.856l6.316-3.961-8.345 4.817a.5.5 0 0 1 -.514-.856l5.862-3.657-7.819 4.513a.5.5 0 0 1 -.516-.855l8.978-5.645-11.262 6.5a.5.5 0 0 1 -.522-.852l16.282-10.522-19.705 11.374a.5.5 0 0 1 -.25.07z" fill="#d4e9ff"/><path d="m10.031 38.458a.5.5 0 0 1 -.281-.913l7.963-5.428-7.267 4.2a.5.5 0 0 1 -.538-.841l7.41-5.225-6.274 3.619a.5.5 0 0 1 -.542-.839l4.977-3.582-3.258 1.881a.5.5 0 0 1 -.567-.819l3.174-2.6a.5.5 0 0 1 -.189-.929l4.537-2.62a.5.5 0 0 1 .566.82l-2.695 2.208 6.56-3.787a.5.5 0 0 1 .542.838l-4.97 3.578 7.221-4.166a.5.5 0 0 1 .538.84l-7.419 5.227 9.292-5.364a.5.5 0 0 1 .531.845l-7.964 5.428 9.314-5.377a.5.5 0 1 1 .5.865l-20.911 12.074a.494.494 0 0 1 -.25.067z" fill="#d4e9ff"/><path d="m10.954 59.413q17.982 0 35.964 0c6.345.715 12.879-3.848 12.79-10.554a10.381 10.381 0 0 0 -9.437-10.195 9.331 9.331 0 0 0 -7.841-12c5.41-3.263 3.117-5.961-1.211-8.308-.3-.451.147-.835.36-1.2 3.365-5.6.351-7.4-5.306-7.008.609-6.886-2.371-8.333-8.2-4.961-2.732-5.926-6.9-5.7-9.889-.153-5.377-3.334-9.079-1.403-8.484 5.076-6.757-.015-8.582 2.755-4.619 8.4-5.709 2.978-6.588 5.545-.682 8.947.546.417.541.387.245 1.027-3.378 5.764-1.3 7.532 4.864 7.38a14.724 14.724 0 0 0 -.188 2.934c-12.82 2.302-11.496 20.547 1.634 20.615zm33.008-37.088c.912 1.641-1.152 3.337-2.6 4.282a10.173 10.173 0 0 0 -1.09.053 17.294 17.294 0 0 0 -.087-7.642 8.838 8.838 0 0 1 3.777 3.307zm-8.734 6.242c-6.876-8.256-21.535-5.575-24.976 4.56a17.072 17.072 0 0 1 2.336-23.1c11.952-10.117 29.866 2.073 26.263 16.884a10.72 10.72 0 0 0 -3.623 1.656zm6.257-15.845c.336 1.668-.661 3.659-1.609 5.13a17.483 17.483 0 0 0 -4.282-7.138c1.767-.107 5.484-.014 5.891 2.008zm-7.558-7.773a9.33 9.33 0 0 1 .931 5.087 16.73 16.73 0 0 0 -7.532-3.869c1.826-.532 4.982-3.667 6.601-1.218zm-21.739-.554c1.027-1.073 4.488.967 5.537 1.717a1.448 1.448 0 0 0 1.4-.375 11.6 11.6 0 0 1 2.147-3.282c.509-.389 1.091-1.328 1.772-.981 1.813.769 3.047 2.924 3.829 4.594a18.611 18.611 0 0 0 -15.708 4.271c-.091-1.839-.202-4.365 1.023-5.944zm-2.2 6.351a2.447 2.447 0 0 0 .944-.2 17 17 0 0 0 -4.718 7.106c-2.955-4.732-2.314-7.6 3.772-6.906zm-8.136 12.589c-.675-1.908 2.432-3.835 4.022-4.635a16.937 16.937 0 0 0 -.143 8.245c-1.55-.81-3.313-2.008-3.879-3.61zm2.657 9.876c-.256-1.665.637-3.53 1.564-4.987a17.556 17.556 0 0 0 3.68 6.46c-.053.207-.093.418-.137.627-1.852.017-4.827-.279-5.107-2.1zm5.443 6.242c.292-.033.846-.218.822-.6a13.171 13.171 0 0 1 23.533-9.242c.27.331 1.007.051 1.254-.164a8.074 8.074 0 0 1 10.659.033 8.885 8.885 0 0 1 2.525 9.627c-.082.246.294.313.444.323 10.38.6 12.476 15.767 2.424 18.83-5.55.776-11.259.117-16.869.325-8.275-.2-16.619.363-24.854-.1-10.652-1.68-10.835-17.646.062-19.032z" fill="#262626"/></svg>