<svg width="2500" height="1440" viewBox="0 0 1920 1310" fill="none" xmlns="http://www.w3.org/2000/svg">
<g opacity="0.12">
<mask id="mask0_10_478" style="mask-type:alpha" maskUnits="userSpaceOnUse" x="0" y="0" width="1920" height="1310">
<path d="M0 198L1920 0V1310L0 1113V198Z" fill="#FF577F"/>
</mask>
<g mask="url(#mask0_10_478)">
<path d="M124.239 -78.7617C585.819 -78.7617 960.006 295.426 960.006 757.006" stroke="white" stroke-width="4" stroke-linecap="round" stroke-linejoin="round"/>
<path d="M-63.592 166.025C382.254 46.5613 840.542 311.148 960.006 756.994" stroke="white" stroke-width="4" stroke-linecap="round" stroke-linejoin="round"/>
<path d="M-181.668 451.087C218.068 220.303 729.21 357.258 960.006 756.994" stroke="white" stroke-width="4" stroke-linecap="round" stroke-linejoin="round"/>
<path d="M-221.944 757.006C104.438 430.624 633.612 430.624 960.006 757.006" stroke="white" stroke-width="4" stroke-linecap="round" stroke-linejoin="round"/>
<path d="M-181.668 1062.91C49.1162 663.177 560.27 526.21 960.006 757.006" stroke="white" stroke-width="4" stroke-linecap="round" stroke-linejoin="round"/>
<path d="M-63.592 1347.97C55.8718 902.129 514.148 637.542 960.006 757.006" stroke="white" stroke-width="4" stroke-linecap="round" stroke-linejoin="round"/>
<path d="M124.239 1592.76C124.239 1131.18 498.426 757.006 960.006 757.006" stroke="white" stroke-width="4" stroke-linecap="round" stroke-linejoin="round"/>
<path d="M369.025 1780.59C249.561 1334.75 514.148 876.457 959.994 756.994" stroke="white" stroke-width="4" stroke-linecap="round" stroke-linejoin="round"/>
<path d="M654.087 1898.67C423.303 1498.93 560.258 987.79 959.994 756.994" stroke="white" stroke-width="4" stroke-linecap="round" stroke-linejoin="round"/>
<path d="M960.006 1938.94C633.624 1612.56 633.624 1083.39 960.006 756.994" stroke="white" stroke-width="4" stroke-linecap="round" stroke-linejoin="round"/>
<path d="M1265.91 1898.67C866.177 1667.88 729.21 1156.73 960.006 756.994" stroke="white" stroke-width="4" stroke-linecap="round" stroke-linejoin="round"/>
<path d="M1550.97 1780.59C1105.13 1661.13 840.542 1202.85 960.006 756.994" stroke="white" stroke-width="4" stroke-linecap="round" stroke-linejoin="round"/>
<path d="M1795.76 1592.76C1334.18 1592.76 960.006 1218.57 960.006 757.006" stroke="white" stroke-width="4" stroke-linecap="round" stroke-linejoin="round"/>
<path d="M1983.59 1347.97C1537.75 1467.44 1079.46 1202.85 959.994 757.006" stroke="white" stroke-width="4" stroke-linecap="round" stroke-linejoin="round"/>
<path d="M2101.67 1062.91C1701.93 1293.7 1190.79 1156.74 959.994 757.006" stroke="white" stroke-width="4" stroke-linecap="round" stroke-linejoin="round"/>
<path d="M2141.94 757.006C1815.56 1083.39 1286.39 1083.39 959.994 757.006" stroke="white" stroke-width="4" stroke-linecap="round" stroke-linejoin="round"/>
<path d="M2101.67 451.087C1870.88 850.823 1359.73 987.79 959.994 756.994" stroke="white" stroke-width="4" stroke-linecap="round" stroke-linejoin="round"/>
<path d="M1983.59 166.025C1864.13 611.871 1405.85 876.457 959.994 756.994" stroke="white" stroke-width="4" stroke-linecap="round" stroke-linejoin="round"/>
<path d="M1795.76 -78.7617C1795.76 382.819 1421.57 757.006 960.006 757.006" stroke="white" stroke-width="4" stroke-linecap="round" stroke-linejoin="round"/>
<path d="M1550.97 -266.592C1670.44 179.254 1405.85 637.542 960.006 757.006" stroke="white" stroke-width="4" stroke-linecap="round" stroke-linejoin="round"/>
<path d="M1265.91 -384.668C1496.7 15.0678 1359.74 526.21 960.006 757.006" stroke="white" stroke-width="4" stroke-linecap="round" stroke-linejoin="round"/>
<path d="M960.006 -424.944C1286.39 -98.5618 1286.39 430.612 960.006 757.006" stroke="white" stroke-width="4" stroke-linecap="round" stroke-linejoin="round"/>
<path d="M654.088 -384.668C1053.82 -153.884 1190.79 357.27 959.994 757.006" stroke="white" stroke-width="4" stroke-linecap="round" stroke-linejoin="round"/>
<path d="M369.025 -266.592C814.871 -147.128 1079.46 311.148 959.994 757.006" stroke="white" stroke-width="4" stroke-linecap="round" stroke-linejoin="round"/>
</g>
</g>
</svg>
