<svg id="圖層_3" height="512" viewBox="0 0 500 500" width="512" xmlns="http://www.w3.org/2000/svg" data-name="圖層 3"><g fill="#fce1c8"><path d="m229.17 273.48c-19.78-4.28-30.11-24.32-28-43.43 2-18.05 13.28-33.55 30.68-39.41 15.72-5.3 33.51-2.68 46 8.52a50.56 50.56 0 0 1 15.78 45.63c-3.28 18.49-17.64 31.4-36.46 32.26-17.43.8-32.72-10.53-39.13-26.43-6.61-16.39-3.43-36.87 10.14-48.84a32.73 32.73 0 0 1 24-7.92c10 .86 17.44 6.91 22.29 15.49 10.52 18.62 5.38 43.74-14.61 53.5a30.44 30.44 0 0 1 -27.09-.38c-9.93-5.19-13.24-15.66-15.53-25.91-1.55-6.91-11.35-5.9-9.65 1.7 2.63 11.74 7 23.17 16.74 30.83a40.1 40.1 0 0 0 30.67 7.72c23.3-3.82 37.42-27.88 34.89-50.27-2.71-24-21.08-47-47-43.94-23.9 2.77-38.1 25.6-38.41 48.2-.31 22.12 12.9 44.43 33.23 53.6 18.85 8.52 43.9 3.67 56.6-13.2 14.12-18.76 12.82-45.73 1.21-65.36-11.29-19.09-31.35-30.63-53.64-29.16-25.76 1.69-45.9 20.65-50.3 45.91-4.74 27.23 10.25 56.22 38.36 62.3 6.88 1.49 5.08-10.14-.79-11.41z"/><path d="m217.52 271a46.49 46.49 0 0 1 -24-35.56c-1.53-15.32 5-30.88 16.49-41 25.06-22 68.83-12.53 84.37 16.59 8.37 15.68 3.8 45.11-14.88 51.57l6.32 9c8.19-18.6 15.81-40.08 4.2-59-3.1-5.07-11.61-3.49-9 3.17a42.66 42.66 0 0 1 1.33 27.35 43.59 43.59 0 0 1 -5.8 12.51c-1.13 1.66-8.08 11.24-10.69 9.47-6.61-4.47-9.28 5.32-4.32 9.32l.49.39-2.48-8c.72-1.64-2-.89-3.53-1-1.9-.17-3.79-.38-5.68-.68a66.9 66.9 0 0 1 -9.8-2.25 52.8 52.8 0 0 1 -19.19-10.49c-10.22-9.08-15.14-23-11.57-36.27l-10-4.13c-1.89 12-3.08 24.73 1.55 36.31 3.8 9.7 11.28 18.06 21.67 20.7 10.85 2.79 23.45-.72 33.32-5.4 9.52-4.51 16.47-12.3 18.89-22.62 4.44-18.9-7.6-44.8-27.38-49.69-22.43-5.55-37 20.27-34.86 39.48 1.16 10.21 5.89 20.42 14.22 26.72 7.92 6 18.76 6.93 25.92-.74 6.23-6.69 8.42-17.47 9-26.31.6-9.43-2-20.41-11.54-24.59-8.43-3.69-18.69 0-23.67 7.53-6.24 9.41-4.69 22.08-.18 31.87 4 8.62 14.86 18 24.3 10.71 8.21-6.33 9-21.44 7.66-30.75s-7.36-26-19.82-23.45c-11 2.27-13.88 19.72-12.54 28.74 1.25 8.37 10 27.51 21.21 18.86 9.12-7.06 6-22.24-.73-29.63-2.07-2.27-6.39-3.25-7.9.29a29.36 29.36 0 0 0 -.66 22.12c1.16 3.15 7.66 8 9.46 2.51a38.78 38.78 0 0 0 -.71-27.46c-.94-2.26-2.54-4.55-5.21-4.86a4.2 4.2 0 0 0 -4.68 3.67l-1.1 14.72 10.12 2.71a51.82 51.82 0 0 1 -.19-18.21c.16-.92.42-3.93 1.21-4.67.4-.39.08.12.83.78 2.09 1.85 3.6 5.88 4.78 8.35 2.92 6.11 9.29 21.57 0 25.34l7.54 8.6c11-18.68 10-43.05-1.87-61.08l-6.36 7c9.55 7.52 16.81 18.65 16.88 31.14a30.69 30.69 0 0 1 -17.33 27.76l5.82 10.5c12.77-9.38 22.8-22.14 28-37.21 2.67-7.78 4.2-16.06-.16-23.56-3.85-6.62-10.62-10.4-17.25-13.72-2.64-1.32-5.41.64-5.94 3.29-.62 3.15 1.48 6 4.12 7.42a25.14 25.14 0 0 1 7.89 6.46 24 24 0 0 1 2.38 3.53 23.47 23.47 0 0 1 1.23 2.52c.27 2 .9 1.88 1.89-.4l5 2a54.33 54.33 0 0 1 -8.89-11.79c-3.72-6.66-11.52-2.09-8.4 4.65 2.44 5.28-4.16 11.15-7.52 14.27-3.75 3.47-7.79 7.33-12.75 9-11.66 3.83-12.34-7.66-12.2-16 0-2.59-2.66-6.38-5.48-6.35-10.9.13-13.36 11.87-13.4 20.8-.05 10.73 4.13 21 10.87 29.28l1.59-9.32a21 21 0 0 1 -14.06-3.16c-4.38-2.83-8 .9-7 5.5a36.44 36.44 0 0 0 6.54 13.69l5.43-8.29c-16.63-10.24-11.86-37.3-3.89-51.4 2-3.58-1.39-8.46-5-9.06a7.4 7.4 0 0 0 -8.81 6.87c-.28 3 1.17 6.25 4.11 7.42 2.51 1 5.67-.35 5.94-3.29l-.45.41-5-9.06c-11.08 19.59-13 54 8.84 67.42 6.23 3.84 8.78-3.75 5.43-8.3a21.14 21.14 0 0 1 -3.45-8.1l-7 5.5a32.07 32.07 0 0 0 21.75 5.21c4.69-.55 3.62-6.83 1.58-9.32a31.43 31.43 0 0 1 -7-16.08c-.34-2.78-1.08-15.25 3.73-15.3l-5.48-6.35c-.13 7.36.45 15.18 4.77 21.41a18.82 18.82 0 0 0 20.91 7.28c8-2.31 15.24-8.84 20.77-14.9 6.34-7 8.63-15.66 4.6-24.38l-8.4 4.65c2.73 5.11 6.73 12.08 11.73 15.42s9.32-1.71 9.25-6.66c-.15-11.33-11.11-21.65-20.35-26.5l-1.82 10.71c4 2 10.07 4.63 11.45 9.36 1.59 5.46-2.14 12.9-4.43 17.76a69.19 69.19 0 0 1 -21.58 26.16c-5.05 3.7-.05 13.26 5.82 10.5 14-6.61 21.87-21.8 21.69-37-.19-16.64-10-31.71-22.75-41.74-4.71-3.71-9.22 2.63-6.35 7a46.73 46.73 0 0 1 1 49.71c-2.62 4.47 3 10.43 7.54 8.6 7.32-3 9.35-11.32 9.06-18.51-.4-9.74-4.75-19.93-9.8-28.11-3.8-6.16-12.45-16-18.93-6.72-5.39 7.72-4.46 21.25-2.93 30 .47 2.72 1.93 5.47 4.83 6.17a4.14 4.14 0 0 0 5.29-3.47l1.14-14.73-9.85-1.21a26.64 26.64 0 0 1 1.08 19l9.46 2.51a17.54 17.54 0 0 1 .27-13.71l-7.91.28a9.35 9.35 0 0 1 2.67 6.67c0 2.19-.87 6.85-3.49 5.2-1.85-1.18-2.74-5.87-3-7.83a22.09 22.09 0 0 1 .86-10.24c.63-1.9 2.6-7.3 5-7.67 2.77-.44 4.27 3.57 5 5.56a34.62 34.62 0 0 1 -.28 22.91c-2.86 7.75-9 5.67-11.78-1-2.63-6.27-3.59-14.84 1.14-20.39 2.7-3.16 8.44-5.86 12.48-3.62 4.81 2.67 3.38 11 2.67 15.33-.84 5.13-2.05 10.82-5.32 15-4.27 5.47-10.93 4.72-15.74.31-9-8.21-9.34-23.33-3.64-33.41 3-5.34 8.12-10 14.2-11.36 6.66-1.54 12.49 2 16.77 6.82 7.58 8.56 11.12 22.24 5.52 32.75-3.51 6.58-10.29 10.47-17.09 12.93-7.32 2.65-16.59 5.17-24.21 2.46-16.39-5.82-14.21-27.89-12.1-41.31 1-6.05-8.07-11.53-10-4.13-5 18.55 3.57 38.27 17.92 50.25a65.62 65.62 0 0 0 25.49 12.62 81.54 81.54 0 0 0 15.29 2.48c4.09.27 8.46.6 10.38-3.79 1.27-2.89-.15-6.15-2.47-8l-.48-.39-4.32 9.32c12.6 8.52 24.7-10.63 28.64-20.44a54.52 54.52 0 0 0 .48-39.91l-9 3.18c9.29 15.17 1.38 33.05-5.06 47.68-1.49 3.38 1.78 10.6 6.32 9 21.05-7.28 27.62-31.79 24.82-52-2.93-21.16-20.87-38-39.88-46-18.46-7.76-40.44-7-57.66 3.61-16.92 10.46-26.9 29.48-27.06 49.22-.19 22.21 13.36 42.58 32.6 52.93 2.6 1.4 5.42-.7 5.93-3.3.63-3.17-1.48-6-4.11-7.42z"/><path d="m229.59 279.54c6.46 29.75-7.67 61.8-22.31 87.08-6.45 11.14-14.6 22-25.52 29.08-13.35 8.66-28.43 9.31-43.85 9.5-7.54.09-13.51 3.49-15.6 11-2.22 8 1.33 15.83 5 22.82 2.87 5.42 11.7 3.22 9-3.18-2.79-6.64 9.13-8.58 13.26-9.36a96.4 96.4 0 0 0 18.94-5.65c12.29-5.12 23.36-13 33-22.09a151.87 151.87 0 0 0 41.94-71.38 123.6 123.6 0 0 0 2.92-48.58l-9.92.2a123 123 0 0 1 -15.21 88.06 125 125 0 0 1 -27 31.2c-11.23 9.35-25.56 18.79-40.64 19.1-7.1.15-5.35 11 .78 11.41a128.12 128.12 0 0 0 89.89-29.09c23.75-19.76 39.36-48.59 43.86-79.06l-9.85-1.22a31.17 31.17 0 0 1 .42 18.22l10.05 4.13 3.82-17.58-10.12-2.71c-2 44.66-36.53 81.58-80.3 88.46-6.6 1-2.68 12.31 3.38 11.36a103.91 103.91 0 0 0 60.47-32.26c16.56-18.19 25.56-41.82 26.68-66.25.26-5.54-8.67-9.38-10.12-2.7l-3.82 17.58c-1.32 6.07 8.13 11.45 10.05 4.13a42.19 42.19 0 0 0 -.83-24c-1.38-4.23-8.89-7.66-9.84-1.21a119.73 119.73 0 0 1 -40.42 73.25c-23 19.67-53.94 29.48-84 27.58l.78 11.41c17-.35 31.84-9 44.85-19.31a133.87 133.87 0 0 0 30.45-34.34c18.07-29.1 23.32-64.46 16.42-97.81-1.18-5.68-10.91-6.74-9.92.21 4.24 29.63-4.08 59.25-19.73 84.43-14.3 23-36 44.11-62.71 51.48-7.18 2-15.64 2-21.8 6.66-5.32 4-7.93 11.18-5.3 17.47l9-3.18c-2.65-5-7.74-16 1.49-17.61 7.18-1.27 15-.08 22.3-1a66.12 66.12 0 0 0 36.74-16.31c9.63-8.57 16.84-19.64 22.91-30.9a218.54 218.54 0 0 0 17.05-40.26c5-16.52 6.7-33.56 3-50.52-1.5-6.92-11.29-5.91-9.64 1.7z"/><path d="m134.67 424.94 5.36-1.19c2.89-.64 4-3.9 3.14-6.53s-3.48-5.51-6.52-4.83l-5.36 1.19c-2.88.64-4 3.9-3.13 6.53s3.47 5.5 6.51 4.83z"/><path d="m246.94 279.74a228.4 228.4 0 0 1 -14.78 70.76c-7.4 19.32-17.5 38.67-34.23 51.53l6.83 9.69c36.54-29.56 53.3-76.7 57.86-122.21l-10.05-4.13c-3.45 40.89-10.38 84.54-40.77 114.75l7.84 8.88a198.48 198.48 0 0 0 41.36-87.59c2.32-11.81 3.14-24 7.23-35.39l-9.72-4a202.17 202.17 0 0 1 -24 107.5l9.27 6.71c15.08-33.84 26.65-69.67 26.29-107.09l-9.91.21c8.59 26.42.75 54.26-6.56 80l10 4.13c8-28.88 9.08-58.92 10.08-88.7l-10.18-1.28a187.29 187.29 0 0 1 1.17 55.38c-.78 6 8.54 11.67 10.05 4.13 3.78-18.9 6.24-38.25 3.31-57.45-.44-2.89-2.3-6-5.49-6.35a4.4 4.4 0 0 0 -4.7 5.07 205.32 205.32 0 0 1 1.27 41.76c-.23 3 1.14 6.24 4.11 7.42 2.48 1 5.72-.33 5.94-3.29a219.56 219.56 0 0 0 -1.13-44.61l-10.19-1.28c2.8 18.33.44 36.55-3.17 54.6l10.08 4.11a197 197 0 0 0 -1-58.23c-1-6.19-9.91-9.39-10.18-1.28-1 28.85-2.19 57.87-9.95 85.85-1.67 6 8 11.38 10 4.13 7.9-27.81 15.4-57.4 6.15-85.85-1.78-5.46-10-7-9.92.21.34 35.49-11.07 69.6-25.37 101.66-2.43 5.45 5.83 13.08 9.27 6.71a212.76 212.76 0 0 0 24.92-112.93c-.23-4.06-7.58-10-9.72-4-3.83 10.67-5.2 21.76-7.09 32.87a184.77 184.77 0 0 1 -8.23 31.65 191.26 191.26 0 0 1 -31.84 56.3c-3.81 4.67 3 13.69 7.84 8.88 31.61-31.41 39.39-76.93 43-119.5.25-3-1.16-6.24-4.12-7.42a4.23 4.23 0 0 0 -5.93 3.29c-4.42 44.06-20.29 88.85-55.65 117.45-4.19 3.4 2.35 13.14 6.83 9.69 18.23-14 29.56-34.14 37.67-55.31a244.55 244.55 0 0 0 15.7-76.17c.31-6.59-9.82-9-10.19-1.28z"/><path d="m180.85 402.93a205.77 205.77 0 0 0 55.79-116.45c.29-2.29-3.42-4.35-3.77-1.55a202.38 202.38 0 0 1 -55 114.67c-1.59 1.65 1.19 5.15 2.94 3.33z"/><path d="m125.39 417.84c-.93-11.7 16.31-10.34 23.73-11.25a88.59 88.59 0 0 0 23.23-6.21 90.24 90.24 0 0 0 37.75-29.53c1.36-1.84-1.46-5.33-2.94-3.33a87.83 87.83 0 0 1 -45.16 31.83c-9.07 2.72-18.09 2.51-27.28 4.13-7.1 1.25-13.79 5.95-13.16 13.88.19 2.43 4.05 3.4 3.82.48z"/><path d="m275.74 297.06c12.42 6.47 26.41.56 37.24-6.43 11.79-7.61 22.75-17 31-28.42 3.89-5.42 6.66-12.06 11.7-16.56 2.67-2.39 5.88-3.52 7.87.33.68 1.32.55 3.44.54 4.89a37.18 37.18 0 0 1 -2.53 12.89c-5.64 14.88-18.64 25-31.47 33.54-15 10-33 21.13-51.74 15.15l.39 5.52a119.74 119.74 0 0 0 89-66.22l-4.89-2.75a39.48 39.48 0 0 1 -19 31.27l2.91 5.25a45 45 0 0 0 19.32-41.13c-.15-1.64-3-4.81-4.51-2.54a57.75 57.75 0 0 0 -8.57 20.27c-.53 2.48 3.42 5.77 4.83 2.71a81.86 81.86 0 0 0 5.38-15.76c.58-2.48-3.55-5.81-4.83-2.71l-6.88 16.7 4.83 2.71 3.85-13.21c.74-2.55-3.32-5.62-4.83-2.71l-5.89 11.38c-1.39 2.69 3 6.53 4.63 3.35a154.38 154.38 0 0 0 8.2-18.68c.78-2.17-2.18-6.53-4.28-3.9a208.19 208.19 0 0 0 -12.46 17.52c-1.63 2.56 2.7 6.37 4.63 3.36l5.56-8.68c1.41-2.2-2.38-6.3-4.27-3.9a60.78 60.78 0 0 0 -8.57 14.59c-.92 2.23 2.15 6.39 4.28 3.89l3.6-4.23-4.27-3.9a38.89 38.89 0 0 1 -10.91 12.1l3.4 4.85 9.11-8-4.28-3.9a49.6 49.6 0 0 1 -9.72 12.09l3.92 4.44a151.74 151.74 0 0 1 12.44-12.41l-4.28-3.9a62.79 62.79 0 0 1 -10.38 14.51c-1.81 1.9 1.12 6.64 3.41 4.85a48.05 48.05 0 0 0 8.95-9.07c1.78-2.39-1.77-7.05-3.93-4.44a65.64 65.64 0 0 1 -14.75 13.27l3.77 4.3a114.66 114.66 0 0 1 10.35-14c2-2.3-1.63-6.91-3.92-4.44a125.15 125.15 0 0 1 -11.91 11.23l4.27 3.9a189.92 189.92 0 0 1 10.67-19c1.42-2.23-2.56-6.39-4.27-3.9a104.78 104.78 0 0 0 -13.2 26.14c-.75 2.21 2 6.4 4.27 3.9l19.06-20.92-3.92-4.44-10.08 14.66 4.28 3.89a35.7 35.7 0 0 1 8.75-10.05l-3.41-4.84-6.09 9.26c-1.3 2-3.55 4.28-4 6.64a3.81 3.81 0 0 0 5 4.57 2.15 2.15 0 0 0 1.06-1.59l.05-.43c.25-2.12-2.39-5.44-4.47-3.25l-7.57 8c-1.8 1.9 1.09 6.62 3.41 4.85a42.38 42.38 0 0 0 7.82-7.61c1.9-2.42-1.3-6.58-3.92-4.44a131.35 131.35 0 0 1 -35.56 20.58c-2.64 1-.26 6.31 2.3 5.47a76.75 76.75 0 0 0 49.29-50c.86-2.79-3.5-6.73-4.63-3.35-5.77 17.33-22.66 26.54-37.92 34.45l2.91 5.25 11.12-6.12c2.78-1.54-.06-6.64-2.91-5.25l-28.55 13.9 2.91 5.24 5-2.46c2.56-1.26.32-6.18-2.3-5.47l-15.33 4.18 2.3 5.46 11.23-5.65c2.87-1.45.1-5.52-2.3-5.47l-13.66.29 1.61 5.68a39.49 39.49 0 0 0 12.49-3.27c2.4-1.05.61-5.48-1.65-5.48a27 27 0 0 0 -9.57 1.68c-2.86 1-.15 5.73 2.3 5.47a61.31 61.31 0 0 0 36.22-17.1c1.93-1.87-.95-6.33-3.42-4.84a36.61 36.61 0 0 0 -11.54 10.79c-1.44 2.11.63 6.26 3.42 4.85a136.49 136.49 0 0 0 22.87-14.61c2.47-1.94-.42-7.15-2.91-5.25l-14.32 10.94 3.42 4.85 9.82-7.89c2.15-1.72-1-6.2-3.41-4.84a180.53 180.53 0 0 1 -28.53 12.79l2.8 5.06a7.21 7.21 0 0 1 3.42-2l-2.3-5.46a153.78 153.78 0 0 0 -23.49 14.14c-2 1.45-.94 5.39 1.65 5.48a32.9 32.9 0 0 0 16.63-3.67l-3.39-4.84-10.95 9c-2.32 1.9 1 5.73 3.42 4.84a301.43 301.43 0 0 0 53.72-26.09l-3.42-4.85c-2.09 2.13-2.41 4.43-1.64 7.24.53 1.94 2.71 3.17 4.37 1.8a92 92 0 0 0 17.57-19.32 3.25 3.25 0 0 0 -.32-4 7.49 7.49 0 0 1 -1.94-3.95c-.55-2-3.52-3.59-4.73-1.26l-7.07 13.59 4.63 3.36a100.28 100.28 0 0 0 5-15.32c.53-2.21-2.53-5.31-4.47-3.25l-9 9.5 4.28 3.9 6.18-12.08c1.39-2.72-2.69-6.34-4.63-3.35l-3.88 6c-1.65 2.54 2.68 6.35 4.63 3.36l3.88-6-4.63-3.35-6.18 12.07c-1.18 2.3 2.12 6.18 4.27 3.9l9-9.5-4.52-3.24a92.91 92.91 0 0 1 -4.56 14c-1.14 2.73 2.94 6.59 4.63 3.36l7.07-13.57-4.73-1.25a17.9 17.9 0 0 0 3.5 6.74l-.33-4a91.65 91.65 0 0 1 -17.57 19.31l4.37 1.8.74-1.95c1.87-1.9-.94-6.36-3.41-4.84a300.42 300.42 0 0 1 -53.72 26.09l3.41 4.85 10.95-9c2.16-1.77-.95-6.11-3.41-4.85a27.85 27.85 0 0 1 -14.11 3.21l1.65 5.48a153.84 153.84 0 0 1 23.49-14.15c2.55-1.24.3-6.26-2.3-5.46a14 14 0 0 0 -5.65 3.21c-1.74 1.58.49 5.86 2.81 5.06a187.87 187.87 0 0 0 29.75-13.23l-3.42-4.84-9.83 7.89c-2.1 1.68 1.17 6.56 3.42 4.84l14.32-10.94-2.91-5.25a136.49 136.49 0 0 1 -22.87 14.61l3.41 4.85a33.38 33.38 0 0 1 10.53-10l-3.42-4.85a57.22 57.22 0 0 1 -34 15.86l2.3 5.46a19.53 19.53 0 0 1 7.05-1.22l-1.65-5.48a35.4 35.4 0 0 1 -11.27 2.84c-3.39.31-1.23 5.74 1.69 5.68l13.66-.29-2.3-5.46-11.23 5.66c-2.55 1.28-.32 6.17 2.3 5.46l15.33-4.18-2.3-5.46-5 2.47c-2.83 1.39.05 6.64 2.91 5.24l28.62-13.95-3-5.25-11 6.11c-2.77 1.53.09 6.71 2.91 5.25 16-8.29 33.61-18.21 39.64-36.35l-4.63-3.35a72.83 72.83 0 0 1 -46.35 47.7l2.3 5.46a134.86 134.86 0 0 0 36.57-21.39l-3.92-4.44a37.16 37.16 0 0 1 -6.81 6.8l3.42 4.84 7.57-8-4.47-3.25 1.92-1.28 2.09 3c-.08-1.47 3.61-5.58 4.36-6.72l4.57-6.94c1.25-1.91-.89-6.84-3.42-4.85a42 42 0 0 0 -10.47 11.95c-1.32 2.24 2.55 6.41 4.28 3.9l10.07-14.66c1.64-2.39-1.57-7-3.92-4.44l-19.11 20.94 4.28 3.9a100.49 100.49 0 0 1 12.49-25.05l-4.28-3.9a191 191 0 0 0 -10.67 19c-1.21 2.49 1.94 5.83 4.28 3.9a121.51 121.51 0 0 0 11.91-11.23l-3.92-4.4a122.3 122.3 0 0 0 -11.06 15c-1.21 1.94 1.6 5.74 3.77 4.31a70.28 70.28 0 0 0 15.77-14.08l-3.93-4.44a42.51 42.51 0 0 1 -7.93 8.26l3.42 4.84a67.28 67.28 0 0 0 11.09-15.59c1.26-2.42-2-5.93-4.27-3.9a151.74 151.74 0 0 0 -12.44 12.41c-2 2.28 1.43 6.72 3.92 4.44a53.41 53.41 0 0 0 10.43-13.17c1.37-2.4-2-5.87-4.27-3.9l-9.11 8c-2 1.76 1.11 6.52 3.42 4.84a44.86 44.86 0 0 0 12.63-14c1.3-2.24-2.27-6.26-4.28-3.9l-3.6 4.23 4.27 3.9a56.4 56.4 0 0 1 7.86-13.49l-4.28-3.9-5.56 8.67 4.63 3.36a197.91 197.91 0 0 1 11.75-16.44l-4.27-3.9a155.22 155.22 0 0 1 -8.2 18.69l4.63 3.35 5.92-11.38-4.82-2.71-3.86 13.21c-.72 2.5 3.58 5.75 4.83 2.71l6.89-16.7-4.86-2.72a74.48 74.48 0 0 1 -5 14.46l4.83 2.72a51.25 51.25 0 0 1 7.52-17.86l-4.5-2.54a40.1 40.1 0 0 1 -17.14 36.52c-2.59 1.78.17 6.91 2.91 5.25a43.8 43.8 0 0 0 21.06-34.45c.16-2.3-3.27-6-4.83-2.72a115.62 115.62 0 0 1 -86 63.9c-2.83.44-1.72 4.85.39 5.52 17.06 5.44 33.62-1.46 48.09-10.45s29.49-19.05 37.87-34.3a44 44 0 0 0 5.76-22.35c-.16-5.14-2.08-12.22-8-13.32-6.91-1.28-12.32 6.62-15.48 11.59-4.69 7.39-9.45 14.33-15.68 20.54a115.43 115.43 0 0 1 -23.37 18c-9 5.25-20 9.35-30 4.18-3.32-1.72-3.62 3.95-.91 5.36z"/><path d="m316.93 289.67-10.7 6.51c-2.42 1.47-.41 6.06 2.3 5.46a39.11 39.11 0 0 0 13.52-5.78c2.63-1.77-.31-7-2.91-5.24a35.43 35.43 0 0 1 -12.3 5.34l2.3 5.46 10.69-6.5c2.72-1.66-.2-6.9-2.9-5.25z"/><path d="m278.5 308-1 5.17a3.59 3.59 0 0 0 1.44 3.36 2.28 2.28 0 0 0 3-.11l2.68-3.34a3.19 3.19 0 0 0 -.32-4c-.84-.95-2.64-1.6-3.6-.4l-2.64 3.32 4.47 3.26 1-5.18a3.55 3.55 0 0 0 -2.06-3.71 2.13 2.13 0 0 0 -3 1.65z"/><path d="m285.73 284.23c11.78.17 22.21-7.7 29.62-16.23 8.17-9.41 16-21.32 20.62-32.88l-4 .14c4.34 5.73-2.85 12.41-6.67 16l4.27 3.9 4.42-7.63-4.64-3.36c-4.91 10.66-13.73 18.61-22.86 25.7-9.4 7.3-19.72 13.63-31.84 14.64l2.81 5.06a2.85 2.85 0 0 1 3-1.64c3.29-.23 1.36-5.89-1.68-5.68a6.72 6.72 0 0 0 -5.27 2.88 3.27 3.27 0 0 0 2.8 5.06c13.11-1.09 24.3-8.15 34.39-16.12 9.36-7.39 18.19-15.55 23.26-26.54 1.25-2.73-2.83-6.49-4.64-3.36l-4.32 7.67c-1.35 2.34 2.07 6 4.28 3.9 6.84-6.49 12.7-15.3 6-24.12-.94-1.24-3.28-1.55-4 .14-4.16 10.42-11 20.78-18 29.5-6.67 8.28-16.64 17.43-28 17.27-3.57 0-2.64 5.66.4 5.7z"/><path d="m348.84 223.89-1.7-3c-.76-1.33-1.68-2.94-3.39-3.09-4.51-.38-2.43 7.87 1.65 5.93 1.35-.64 1.31-2.69.64-3.79s-2.13-2.13-3.55-1.46h-.1l2.53.3-.09-.06 1 1.17-.05-.12.44 1.48v-.14l-.23 1.36v-.12l-.86.94.11-.07-1.25.23h.21l-1.2-.45c-.58-.78-.7-.9-.37-.37l.34.6.5.89 1.19 2.07c.67 1.17 2.21 2.2 3.55 1.46s1.32-2.62.65-3.79z"/><path d="m263.94 395.08c-.56 18.44-5.35 36.3-8.79 54.32-2.62 13.66-5.3 29.67 6.76 39.71l.88-5.18-21.17-5.41c-3.2-.82-2.64 4.65-.26 5.53l12.81 4.72-.39-5.52c-5.2.53-14.51.7-16.9-5.22-1.67-4.13-.68-9.29-.44-13.61a109.57 109.57 0 0 0 -2.26-28.84c-.52-2.43-1.24-4.8-1.8-7.22-.22-.92-1.19-3.22-.56-4.1.35-.49 2.33-.76 2.9-1a37 37 0 0 0 10.12-5.68c8-6.11 15.26-13.27 22.76-19.94l-4.28-3.9c-10.6 28.1-9.9 59.28-11.49 88.86l5.06 1.35c-1.63-12.7-.6-25.38.45-38.08q1.5-18 3-36c.25-2.94-4.39-5.9-5-2.06-4 24.52-7.91 49.07-8.92 73.94l5.09.64a371.63 371.63 0 0 1 2.8-67.92c.4-3-4.47-5.81-5-2.06-3.41 22.91-6.77 45.85-8.17 69l5.06 1.35a340.21 340.21 0 0 1 3-63.47l-5-2.07-8.38 60.51 5.06 1.35a280.76 280.76 0 0 1 2.94-60.61c.47-3-4.2-5.8-5-2.06l-5.77 26 5.06 1.36-2.15-20.67-4.19 1.5c3.56 3.36 7.61 2.59 11.45-.14 5.51-3.93 10.4-9.09 15-14l-4.03-4.46-4.26 6.29c-1.63 2.41 1.74 7.12 3.92 4.44l3.89-4.76c1.94-2.36-1.81-7-3.92-4.44l-3.89 4.76 3.92 4.44 4.26-6.29c1.62-2.39-1.53-7-3.92-4.44-2.09 2.24-16 18-19.24 15-1.57-1.48-4.47-1.22-4.19 1.5l2.16 20.67c.27 2.58 4.27 4.88 5.06 1.35l5.77-26-5-2.06a288.16 288.16 0 0 0 -3 62c.16 2.57 4.57 4.89 5.06 1.35l8.38-60.51c.42-3.05-4.49-5.81-5-2.07a347.83 347.83 0 0 0 -3.08 64.9c.12 2.6 4.84 4.86 5.06 1.35 1.4-23.14 4.76-46.08 8.17-69l-5-2.06a380.91 380.91 0 0 0 -2.86 69.34c.17 3.29 4.94 4.54 5.09.64 1-24.38 4.92-48.48 8.85-72.52l-5-2.06-3.15 37.92c-1 12.53-2 25.09-.36 37.62.31 2.39 4.86 5 5.06 1.35 1.55-29 .68-60 11.09-87.58.92-2.41-1.85-6.05-4.27-3.89-5.4 4.79-10.78 9.61-16.19 14.39-4.15 3.67-8.42 7.5-13.61 9.64-3.72 1.54-7.67 1.95-7.52 6.94.07 2.31 1.11 4.62 1.69 6.81a99.57 99.57 0 0 1 2.33 11.08 104.1 104.1 0 0 1 1.07 19.48c-.2 5.1-1 10.26.07 15.31 2.44 11.1 14.17 13.05 23.95 12.05 3-.3 1.56-4.8-.39-5.52l-12.81-4.72-.26 5.53 21.18 5.42c3.21.82 2.29-4 .88-5.18-6.24-5.2-6.71-13.65-5.87-21.16.87-7.72 2.64-15.39 4.23-23 3.1-14.75 6.14-29.47 6.6-44.59.1-3.29-5-4.53-5.09-.64z"/><path d="m264 394.51c.27 15.27.53 30.68-2.4 45.74-2.59 13.32-10.73 26.37-7.62 40.23.78 3.45 5.68 2.95 4.82-.85-1.83-8.14 1.62-15.95 4.15-23.54a111.26 111.26 0 0 0 4.59-19.15c2-13.82 1.8-27.86 1.56-41.79-.06-3.28-5.16-4.54-5.1-.64z"/></g><path d="m157.36 149.32a152.71 152.71 0 0 1 34.17-103.49c12.52-15.25 27.19-27.23 47.23-30.12 18.08-2.61 36.69.59 53.5 7.49 19.44 8 36.63 20.68 51 35.94 2.68 2.84 5.7-1.07 3.28-3.64-25.94-27.58-62.19-48.17-101-46.27-10 .49-20.12 2.51-29.11 7.09-8.78 4.46-16.27 11.18-22.93 18.35a154.62 154.62 0 0 0 -30.63 49.11 158.06 158.06 0 0 0 -10.58 64.9c.16 3.27 5.28 4.55 5.09.64z" fill="#7f9faf"/><path d="m160 146.05c5.28-19.81 28.83-22 45.71-20.39l-.39-5.7c-17.69-1.53-32.92 8.08-47 17.64l3.41 4.84a60.57 60.57 0 0 1 38-15.3c4.6-.15 10.6 2 13.76-2.26 2-2.72 3.3-6.42 4.81-9.43l5.8-11.54c1.36-2.7-2.93-6.52-4.63-3.36q-6.54 12.18-13.47 24.14l4.86 2c-.33-9.79 8.67-19.14 14.75-26.07a94 94 0 0 1 21.69-18.62c16.56-10 38.32-13.24 55.51-2.85l1.53-5c-13.49-4.38-27.9-8.48-41.59-2.61-2.6 1.12-.26 6.31 2.3 5.46a57.42 57.42 0 0 1 23.7-2.8 64.23 64.23 0 0 1 12.11 2.61c2.3.68 4.57 1.35 6.91.48 2.58-.94 4.45-3.35 6.46-5.11a71.6 71.6 0 0 1 9.92-7.22 74.8 74.8 0 0 1 20.21-8.46l-1.69-5.68a62.11 62.11 0 0 0 -16.78 7.38c-2.59 1.65-.31 5.61 2.3 5.46a121.84 121.84 0 0 0 28.52-5.05c2.55-.77 1.8-3.79.23-5.16a181.37 181.37 0 0 0 -84.94-41.45c-3.38-.65-2.49 4.58-.26 5.53l37.57 16.05c11.75 5 23.56 9.95 33.94 17.53 3.16 2.3 4.79-2.74 2.15-4.66-10.21-7.45-21.77-12.45-33.35-17.45l-39.4-16.83-.26 5.53a175.85 175.85 0 0 1 82.39 40.3l.24-5.17a122.19 122.19 0 0 1 -28.52 5.06l2.3 5.46a57.38 57.38 0 0 1 15.56-7c3.23-.89 1.27-6.45-1.69-5.68-13.3 3.44-24.53 10-34.75 19.1-3.56 3.23-6.77 1.23-10.92.23a58.54 58.54 0 0 0 -12.2-1.8 60.94 60.94 0 0 0 -21.48 3.08l2.3 5.46c12.3-5.27 25.71-1.2 37.77 2.72 3.22 1 3.95-3.55 1.54-5-18.81-11.37-42.23-8.84-60.58 2.26a100.32 100.32 0 0 0 -24.23 21.28c-6.67 7.88-14.73 17.14-14.36 28.05.08 2.39 3.37 4.56 4.86 2q6.93-12 13.47-24.14l-4.63-3.36-5 9.89c-1.45 2.89-2.72 7.61-5 9.89s-7 1-9.89 1.1a63.32 63.32 0 0 0 -9.52.86 64.94 64.94 0 0 0 -32.24 15.71c-2 1.79 1.05 6.46 3.42 4.85 13.19-9 27.74-18.63 44.43-17.19 3.56.31 2.63-5.42-.39-5.7-19.67-1.88-44.39 1.71-50.34 24-.8 3 4 5.71 5 2.06z" fill="#7f9faf"/><path d="m340.89 52a21.13 21.13 0 0 1 6.56 4.14l1.44-4.67a46.07 46.07 0 0 0 -29.6 7.91c-2.62 1.79.31 7 2.91 5.24a42 42 0 0 1 27.08-7.44c2.51.17 3-3.2 1.44-4.68a29.39 29.39 0 0 0 -8.91-5.86c-3.49-1.46-3.77 4.16-.92 5.36z" fill="#7f9faf"/><path d="m161 137.29c-1.84-7.68 2.56-17.22 5-24.44 2.23-6.74 4.71-13.39 7.53-19.91 5.84-13.5 13.15-26.45 22.61-37.77 18-21.51 44.59-37.06 73.25-35.82 3.57.16 2.64-5.55-.39-5.7-12.8-.62-25.71-1-37.73 4.15-11.51 4.88-21.07 13.59-29.42 22.69a184.93 184.93 0 0 0 -38.94 66.18l4.83 2.71c2.18-41.09 34.79-69.81 67.78-89.45 2.81-1.67 0-6.36-2.9-5.25-10.8 4.16-21.35 9.13-30.29 16.58-7.86 6.49-13.78 14.74-18.42 23.74-9.67 18.64-14.18 39.51-24.6 57.82l4.82 2.71 2.28-12.35-5-2.06-4.19 31.88c-.39 3 4.27 5.83 5 2.06a34 34 0 0 1 7.66-15.67l-4.28-3.9-4.52 8.87c-1.16 2.27 2.18 6.25 4.28 3.9a54.31 54.31 0 0 1 8.28-7.61l-3.77-4.3a19.33 19.33 0 0 1 -5.83 6.65l3.41 4.85a121.19 121.19 0 0 1 24.32-15.19l-3.41-4.84-4.22 6.18c-1.56 2.26.6 5.93 3.41 4.84l13.83-5.34-4-3.66a9.43 9.43 0 0 1 -1.91 4.77c-1.28 1.87.12 5.66 2.8 5.06l7.73-1.67-3.36-3.87c-.61 3.36-1.31 6.53 2.5 8.13 2.66 1.12 5 0 6.41-2.34 1.08-1.74-.75-4.26-2.51-4.53a74.86 74.86 0 0 0 -36.44 3.4l2.3 5.46c17.1-6.15 35.61-13.62 44.26-30.79 1.36-2.71-2.78-6.43-4.63-3.36l-15.55 25.79c-1.34 2.23 2.3 6.27 4.28 3.9a312.35 312.35 0 0 1 22.71-24.3l-4.27-3.9-8.07 13.81 4.63 3.36a215.12 215.12 0 0 1 13.87-22.16c1.7-2.38-1.61-7-3.92-4.44a274.74 274.74 0 0 0 -17.87 21.84c-3.19 4.37-9.67 10.93-5.74 16.62.93 1.35 3.47 2.79 4.41.52q8.48-20.49 15.74-41.44c.75-2.17-2.12-6.52-4.28-3.9a362.65 362.65 0 0 0 -22.63 30.56l4.27 3.9a368.59 368.59 0 0 1 26.27-46.67c1.43-2.15-.58-6.17-3.41-4.84-7.59 3.57-11.62 12.21-16 18.89l-16.47 24.88 4.27 3.9a377.83 377.83 0 0 1 25.23-49.18c1.36-2.25-2.59-6.42-4.28-3.9a575.79 575.79 0 0 0 -30.55 51.12l4.63 3.35a152.3 152.3 0 0 1 18.46-27.81l-4.26-3.87-13.1 29.29c-1 2.34 2 6.15 4.28 3.9a62.26 62.26 0 0 0 9.09-11.61c1.37-2.24-2.57-6.4-4.28-3.9l-12.91 18.91 4.27 3.9a110.51 110.51 0 0 0 9.94-20.75c.81-2.27-2-6.31-4.27-3.9l-24.1 25.03 4.28 3.9 18.85-37.47c1.37-2.73-2.71-6.38-4.63-3.36q-11.89 18.8-22.23 38.51l4.63 3.35 22.49-43.49c1.16-2.25-2.5-6.46-4.27-3.9a330.26 330.26 0 0 0 -24.87 42.1l4.83 2.71c2.75-15.77 9.49-30.25 16.3-44.61 1.29-2.72-2.85-6.48-4.63-3.35a340.57 340.57 0 0 0 -20 41.08l4.82 2.71a169.45 169.45 0 0 1 17.95-41.75l-4.63-3.35-17.17 35.78 4.63 3.36a278 278 0 0 1 33.53-58.58l-4.28-3.9-19.91 35c-1.5 2.64 2.83 6.45 4.63 3.36a309.54 309.54 0 0 1 26.08-38l-4.28-3.9a425.07 425.07 0 0 1 -23.72 41.2c-1.46 2.22 2.62 6.39 4.27 3.89a501.58 501.58 0 0 1 31.75-42.79l-4.27-3.9-29.49 47.77 4.63 3.36a187.83 187.83 0 0 1 32.93-40.52l-4.28-3.9q-14.67 23.69-30.96 46.27c-1.75 2.44 1.88 7.11 3.92 4.44l32.08-42.02c1.49-1.95-.88-6.63-3.41-4.84a125.62 125.62 0 0 0 -37.28 41.44c-1.3 2.32 2.1 6.07 4.27 3.9a156.87 156.87 0 0 0 26-34.29c1.08-1.91-1.58-5.87-3.77-4.3a116.82 116.82 0 0 0 -30.57 32.33c-1.43 2.24 2.63 6.41 4.28 3.9l6.58-10.04c1.65-2.51-2.09-7.18-3.92-4.44l-24.76 37 3.6.41c-2.13-2.23 25.36-25.25 28.14-27.76l29.86-26.9-3.92-4.41a312.16 312.16 0 0 0 -18.32 29.84c-1.33 2.46 2 5.81 4.27 3.9l30.22-25.19-3.92-4.44-19.74 23.43c-1.62 1.94 1 6.62 3.42 4.85l24.86-18.09-3.41-4.84-18.22 19.84c-1.75 1.9 1.06 6.61 3.42 4.84q12.18-9.12 23.75-19c2-1.75-1.07-6.47-3.41-4.85a98.08 98.08 0 0 0 -20.29 18.71c-1.9 2.34 1.63 6.94 3.92 4.44a112.56 112.56 0 0 1 32.06-24.44l-3.41-4.85a103 103 0 0 1 -16.2 10.66l2.9 5.24a69.29 69.29 0 0 1 52.72-10.48l-.39-5.7h-9.81c-3.57 0-2.66 5.64.39 5.7l10.8.24c.69 0 9.93 0 9.05 1.65-1.43 2.67 2.79 6.42 4.63 3.35a40.38 40.38 0 0 1 13.08-13.4l-3.37-4.87a62.08 62.08 0 0 1 -11.82 9.23c-2.77 1.67 0 6.45 2.91 5.24q13.62-5.66 26.86-12.17c2.07-1 .89-3.88-.37-5l-9.58-8.09-.88 5.18a20.68 20.68 0 0 1 8 2.16c3.39 1.67 3.61-4 .91-5.36l-24.11-12.28c-3.35-1.71-3.6 4-.91 5.36a44.4 44.4 0 0 0 14.69 4.61c3.37.44 2.6-4.62.26-5.54a485 485 0 0 0 -67.6-20.88l.4 5.7a81.44 81.44 0 0 1 36.33 11.38l1.53-5a115.16 115.16 0 0 1 -24-12.51l-.88 5.18a56.47 56.47 0 0 1 24.51 7.25l1.53-5-16.25-7.15c-3.54-1.56-3.53 4-.92 5.36 17.3 9 32 20.65 47.57 32.28l-.38-5-23 12.7c-2.85 1.57 0 6.39 2.91 5.25l26.45-10.41-3.41-4.85a23.06 23.06 0 0 1 -7.28 5c-2.66 1.2-.29 6 2.3 5.47a16.17 16.17 0 0 0 8.46-4.62c1.63-1.64-.42-5.84-2.81-5.06a31.56 31.56 0 0 0 -7.91 3.65c-3.17 2.11-5.41 4.61-9.17 5.79a52.45 52.45 0 0 1 -21.6 2l.4 5.7a87.38 87.38 0 0 0 38.16-8.08c1.06-.5 1.28-2.06.95-3.05-1.71-5.2-6.22-8-11.6-8.2-7.7-.27-13.39 5.64-20.38 7.84l2.3 5.47 18.66-9.56c2.42-1.24.58-5.25-1.65-5.48a34.34 34.34 0 0 0 -22.31 5.24c-2.34 1.49-.44 6.15 2.3 5.46l8.84-2.22-1.73-5.53a304.88 304.88 0 0 1 -31.19 6.88c-3.07.51-1.54 5.53 1 5.69l16 1-1-5.69a255.72 255.72 0 0 1 -29.3 4c-3.08.25-1.52 5.55 1 5.69a27.82 27.82 0 0 0 18.25-5.12c2.32-1.64.63-4.88-1.65-5.47-11.31-2.93-22.85.15-34.25-1.64a38.12 38.12 0 0 1 -26-17.19l-3.74 3 20.68 24.09 2.71-4.24a96.56 96.56 0 0 1 -28.45-26.68l-.8 4.66a324.88 324.88 0 0 0 43.7-13.34c1.47-.57 1.14-2.75.64-3.79-2.62-5.54-8.54-3.16-12.47-.67-8.06 5.13-16 10.48-24 15.71l3.41 4.84a27 27 0 0 1 17.46-7.6c3.28-.21 1.35-5.88-1.69-5.68a30.7 30.7 0 0 0 -19.69 8.84c-1.92 1.86 1 6.43 3.42 4.85s28.83-19.09 29.37-18l.64-3.79a314.94 314.94 0 0 1 -42.47 12.91c-2.34.53-1.82 3.21-.8 4.66a100.83 100.83 0 0 0 29.54 27.76c3 1.84 4.65-1.9 2.72-4.15l-20.65-24.09c-2.17-2.53-5.47.26-3.74 3a44.9 44.9 0 0 0 25.57 19.43c12.9 3.63 26.35-.58 39.27 2.76l-1.65-5.47a24.1 24.1 0 0 1 -15.73 4.66l1 5.69a258 258 0 0 0 29.3-4c3-.6 1.57-5.53-1.05-5.69l-15.94-1 1 5.7a304.88 304.88 0 0 0 31.19-6.88c3.23-.89 1.28-6.43-1.69-5.68l-8.84 2.23 2.3 5.46a30.29 30.29 0 0 1 19.8-4.78l-1.65-5.48-18.67 9.56c-2.51 1.28-.31 6.28 2.3 5.46 5-1.57 22.31-14.1 25.47-4.47l1-3a82 82 0 0 1 -35.65 7.63c-3.58-.05-2.62 5.37.4 5.7a56.1 56.1 0 0 0 21.23-1.52c2.51-.7 5.51-1.45 7.65-2.9 3.89-2.64 6.37-5.48 11.09-7l-2.8-5.06a11.58 11.58 0 0 1 -6.23 3.29l2.3 5.46a26.64 26.64 0 0 0 8.29-5.84c2-2.08-.88-5.84-3.42-4.84l-26.41 10.41 2.91 5.25 23-12.7c1.93-1.07 1-3.9-.37-5-8.09-6-15.76-12.58-24.12-18.27a248 248 0 0 0 -24.69-14.71l-.92 5.36 16.26 7.15c3.13 1.38 3.92-3.64 1.54-5a62.29 62.29 0 0 0 -27.07-8.33c-3-.21-2.79 3.88-.88 5.18a121.22 121.22 0 0 0 25.25 13.21c3.2 1.22 3.9-3.59 1.54-5a87.28 87.28 0 0 0 -38.85-12.41c-3.71-.27-2.39 5.06.4 5.7a476.74 476.74 0 0 1 66.29 20.53l.26-5.53a40 40 0 0 1 -13.39-4.26l-.92 5.37 24.08 12.28.91-5.36a24.2 24.2 0 0 0 -9.31-2.5c-3.19-.22-2.53 3.78-.88 5.18l9.59 8.14-.37-5q-13.25 6.51-26.87 12.18l2.92 5.27a66.91 66.91 0 0 0 12.83-10c1.88-1.88-1-6.4-3.42-4.84a45.5 45.5 0 0 0 -14.8 15.3l4.63 3.35c2-3.66-.09-7.81-3.64-9.56-2.59-1.27-5.67-1-8.46-1.1l-12.77-.28.39 5.7h9.81c3.68 0 2.5-5.11-.39-5.7a73 73 0 0 0 -55.25 10.94c-2.61 1.75.07 6.75 2.9 5.24a109.19 109.19 0 0 0 17.2-11.41c2.18-1.75-1-6.11-3.42-4.85a116.44 116.44 0 0 0 -33.05 25.21l3.92 4.44a93.19 93.19 0 0 1 19.28-18l-3.42-4.84q-11.07 9.48-22.74 18.22l3.41 4.85 18.22-19.77c1.75-1.91-1-6.58-3.42-4.85l-24.88 18.09 3.43 4.86 19.71-23.45c2-2.36-1.34-6.59-3.92-4.44l-30.22 25.17 4.28 3.9a303 303 0 0 1 17.61-28.76c1.67-2.42-1.33-6.78-3.89-4.42l-37.9 34.09c-6 5.44-13.12 10.59-18.45 16.72-3.07 3.53-4.59 8.19-1 11.9.8.84 2.72 1.72 3.6.41l24.75-37.02-3.92-4.44-6.6 10.08 4.27 3.9a110.64 110.64 0 0 1 28.82-30.44l-3.77-4.31a152 152 0 0 1 -25.24 33.21l4.28 3.9a120.38 120.38 0 0 1 35.56-39.56l-3.4-4.84-32.08 42 3.9 4.4q16.65-23.11 31.67-47.35c1.44-2.33-2.08-6-4.27-3.9a192.08 192.08 0 0 0 -33.64 41.6c-1.57 2.6 2.75 6.4 4.63 3.36l29.53-47.79c1.37-2.22-2.31-6.27-4.28-3.9a500 500 0 0 0 -31.75 42.79l4.28 3.9a425.89 425.89 0 0 0 23.73-41.19c1.13-2.25-2.3-6.37-4.28-3.9a319 319 0 0 0 -26.79 39.12l4.63 3.36 19.91-35c1.28-2.23-2.42-6.37-4.27-3.89a283.62 283.62 0 0 0 -34.24 59.66c-1.16 2.74 3.07 6.62 4.63 3.36l17.17-35.79c1.3-2.72-2.79-6.44-4.63-3.35a173.67 173.67 0 0 0 -18.34 43c-.69 2.5 3.59 5.77 4.83 2.71a340.7 340.7 0 0 1 20-41.09l-4.63-3.35c-7 14.76-13.87 29.68-16.69 45.89-.44 2.47 3.31 5.78 4.82 2.72a322.67 322.67 0 0 1 24.16-40.97l-4.28-3.9-22.49 43.5c-1.39 2.69 3 6.52 4.63 3.35q10.34-19.71 22.23-38.5l-4.63-3.36-18.85 37.48c-1.17 2.31 2.09 6.16 4.27 3.9l24.08-25.06-4.28-3.9a111.11 111.11 0 0 1 -9.94 20.75c-1.37 2.23 2.57 6.4 4.28 3.9l12.91-18.92-4.27-3.89a57.06 57.06 0 0 1 -8.38 10.52l4.27 3.9 13.1-29.29c1-2.25-2.2-6.39-4.27-3.9a158.47 158.47 0 0 0 -19.22 28.87c-1.4 2.69 3 6.52 4.63 3.35a562.28 562.28 0 0 1 29.85-50l-4.28-3.9a378 378 0 0 0 -25.18 49.19c-.93 2.2 2.51 6.58 4.28 3.9l15.34-23.31c4.31-6.53 8.68-16.21 16.08-19.69l-3.42-4.85a376.83 376.83 0 0 0 -27 47.75c-1 2.24 2.54 6.53 4.28 3.9a362.65 362.65 0 0 1 22.63-30.56l-4.27-3.9q-7.27 21-15.74 41.44l4.42.52c-1.88-2.72 8.6-14.11 10.39-16.4 4.1-5.28 8.42-10.37 12.89-15.34l-3.92-4.44a227.36 227.36 0 0 0 -14.58 23.24c-1.45 2.67 2.83 6.45 4.63 3.36l8.07-13.81c1.36-2.33-2.09-6-4.28-3.9a306.79 306.79 0 0 0 -22.71 24.3l4.27 3.9 15.55-25.79-4.63-3.36c-8.18 16.24-26.43 23.12-42.54 28.9-2.64 1-.25 6.37 2.3 5.46a71.9 71.9 0 0 1 35.14-3.36l-2.51-4.53-.77.3.87 2.85.65-3.52c.32-1.78-1.33-4.32-3.36-3.88l-7.62 1.73 2.81 5.06a17.73 17.73 0 0 0 3-7.14c.41-2.22-1.78-4.5-4-3.66l-13.83 5.35 3.42 4.84 4.25-6.16c1.47-2.14-.62-6.17-3.42-4.85a126.57 126.57 0 0 0 -25.33 16c-2.09 1.69 1.12 6.51 3.42 4.84a25.07 25.07 0 0 0 7.55-8.54c1-1.9-1.59-5.91-3.77-4.3a60.25 60.25 0 0 0 -9.29 8.41l4.27 3.89 4.52-8.86c1.16-2.26-2.22-6.31-4.27-3.9a39.18 39.18 0 0 0 -8.73 18.02l5 2.06 4.16-31.88c.39-3-4.33-5.84-5-2.06l-2.28 12.34c-.47 2.56 3.16 5.63 4.83 2.71 9.94-17.46 14.52-37.17 23.28-55.17 4.41-9.07 10-17.52 17.68-24.2 8.82-7.72 19.72-12.69 30.56-16.87l-2.9-5.25c-34.07 20.32-67.66 50.25-69.91 92.63-.11 2.16 3.67 6.16 4.83 2.71a181.75 181.75 0 0 1 36-62.59c7.79-8.81 16.46-17.25 27-22.66 12.21-6.26 25.51-6.06 38.87-5.42l-.39-5.7c-30.6-1.33-59 15.1-77.86 38.39-10.09 12.44-17.87 26.67-23.91 41.47-3 7.36-5.61 14.87-7.94 22.47-2.22 7.25-4.9 14.55-3.08 22.16.82 3.44 5.73 3 4.82-.85z" fill="#7f9faf"/><path d="m243.42 23.47c17.75 7.53 32.39 20.19 46.78 32.75 2.61 2.28 4.79-2.09 2.71-4.15l-23.91-23.78c-5.78-5.68-11.79-11.39-20.16-12.29-3-.33-2.81 4-.88 5.18a225.9 225.9 0 0 1 46.65 38.53c2.67 2.9 5.48-.94 3.27-3.63q-14.03-17.08-29.46-32.88l-2.71 4.14q16.53 12.9 32 27.07l2.09-4.5a53 53 0 0 1 -22.18-20.48l-3.18 3.49a265.34 265.34 0 0 1 26.74 22.67l2.72-4.15a86.93 86.93 0 0 1 -22.1-21.61l-2.09 4.5a103.72 103.72 0 0 1 20.38 13.94l2.16-4.66a76.33 76.33 0 0 1 -13.66-14.78l-2.71 4.17a104.59 104.59 0 0 1 20.12 16l2.71-4.15a42.77 42.77 0 0 1 -11-11l-2.56 3.84a65.59 65.59 0 0 1 18.74 15.25l2.72-4.15a128.37 128.37 0 0 1 -14.61-15.79l-2.72 4.15a63 63 0 0 1 14.41 11.85l3.31-3.62a88.44 88.44 0 0 1 -14.47-18.38l-3.18 3.49 21.49 17.06c2.73 2.17 4.76-2.07 2.71-4.15l-7.43-7.51-2.72 4.11q12 6.91 24.28 13.12c2.32 1.17 3.76-2.11 2.55-3.84l-2.29-3.28-2.56 3.84-1.38-1.7a18.45 18.45 0 0 1 -2.09.3c-1.48.19-3 .31-4.46.41-3.37.23-6.73.26-10.1.16s-2.7 4.55-.26 5.53a46.38 46.38 0 0 0 8.91 2.61c3.27.62 2.68-4.7.26-5.53-2.6-.89-5.16-1.85-7.67-3-2.77-1.25-5.45-3.31-8.26-4.35-3.32-1.22-6.95 1.84-10 3.3-2.25 1.08-.77 4.59 1 5.3l6.53 2.64c1.71.7 3.08-.65 3-2.36a7.71 7.71 0 0 0 -7.7-7.4 5.49 5.49 0 0 0 -4.8 2.57 8.86 8.86 0 0 0 -1.12 3.46c-.08.58-.17 7.67-1.87 6.46l-1.54 5 5.17 2.18.91-5.36a60.53 60.53 0 0 1 -27.13-19.5c-5.54-7.09-9.69-15.54-18.64-18.84-3.35-1.24-3.62 3.43-1.53 5l36.39 27.53.88-5.18c-6.88-.07-13.55-7.55-18.68-11.56l-17.14-13.38c-3.11-2.43-4.6 2.62-2.15 4.66l28.46 23.73 1.53-5a125.1 125.1 0 0 1 -34.23-25.25l-2.67 4.14 37.58 30.86 1.54-5a87.19 87.19 0 0 1 -32.4-21.62l-2.72 4.14q15.25 10.51 29.72 22.12l2.15-4.66a179.14 179.14 0 0 1 -32.71-23.65l-2.16 4.66q18.11 14.25 34.76 30.19l2.09-4.5a168.36 168.36 0 0 1 -36.37-23.3l-2.15 4.65a198.11 198.11 0 0 1 25.92 18.18l1.53-5a304.88 304.88 0 0 0 -35.94-14.48c-3.12-1-3.43 2.62-2.09 4.5q7.67 10.8 16.25 20.8l2.1-4.49-21.61-9.75c-2.35-1.06-3.76 2-2.55 3.84a119.61 119.61 0 0 1 10.35 18.66l1.9-4a26.85 26.85 0 0 1 -10.92-5c-2.76-2.07-4.88 2.11-2.72 4.15l8 7.53c2.81 2.67 5.66-1 3.27-3.64l-6.88-7.6-2.71 4.15a87.76 87.76 0 0 0 18.48 8.47 2.15 2.15 0 0 0 3-1.65 7.9 7.9 0 0 0 -.35-5.62c-.48-1.19-1.7-2.85-3.25-2.42l-7.47 2.07 3.16 4.51 5.45-10.79c1.16-2.29-2.14-6.23-4.27-3.9l-6.49 7.1c-2.05 2.25 1.53 6.82 3.92 4.44a13.52 13.52 0 0 1 9.74-4.12l-2.71-3.88-2.11 2.24 4 3.66 1.09-5.53c.42-2.13-2.53-5.45-4.47-3.26a129.33 129.33 0 0 0 -13 17.51c-1.18 1.9 1.64 5.84 3.77 4.3 6.77-4.87 7.17-14.07 3.25-21-5.72-10.08-18.09-13.44-24.18-23.07-1.57-2.48-5.84-1.76-4.51 1.59l4.93 12.42 1.49-3.22q-4.8-4.52 1.25-4.45a11.68 11.68 0 0 1 4 1.49 12.61 12.61 0 0 1 4.56 5l3.74-3a43.28 43.28 0 0 1 -6.71-11.73l-4.05 2.24a139.9 139.9 0 0 1 11 16.22c1.51 2.61 5.82 1.69 4.51-1.59l-9-22.34-4.51 1.59a134.19 134.19 0 0 1 12.88 22.75c1.27 2.87 5.69 1.6 4.51-1.59q-5.16-13.85-9.46-28l-4 2.24a123.78 123.78 0 0 1 14.26 26.31l4.51-1.59-8.68-19.9-4.26 2.35a153.81 153.81 0 0 1 11.8 21.56c1.28 2.87 5.67 1.61 4.51-1.59l-6.85-18.77-4.05 2.25 15.83 21.41c2 2.76 5.27-.27 3.74-3l-10.11-18-3.74 3a101.31 101.31 0 0 1 13.34 21.5l4.19-2.33-10.71-22.15-3.74 3a105.32 105.32 0 0 1 12.37 19.72l4.2-2.33a113.07 113.07 0 0 1 -10.94-19.39l-3.73 3a80.54 80.54 0 0 1 13.16 17.38c1.49 2.65 5.74 1.69 4.51-1.59l-3.38-9-2.86 3.1a25 25 0 0 1 12.15 7.39l2.71-4.16-5.1-3.49-.88 5.18a148.88 148.88 0 0 1 17.63 1.52l-1.65-5.48a8.9 8.9 0 0 1 -8.14 1.89l.39 5.7 6 .56c3.25.3 2.81-4.8.26-5.53a53.84 53.84 0 0 0 -27-1c-3.31.72-1.31 6.09 1.69 5.68a34.58 34.58 0 0 1 11.39.3c3.51.66 2.49-5.07-.4-5.7a214.94 214.94 0 0 1 -22.84-6.29c-3.59-1.21-3.81 4.27-.91 5.36l14.56 5.45.26-5.53a24 24 0 0 1 -13.23-3.47l-1.54 5a47.49 47.49 0 0 1 11.5 4.73l.88-5.18a34.74 34.74 0 0 1 -15.52-5.58l-1.54 5a17.42 17.42 0 0 1 5.84 3.57l1.48-4.69a25.57 25.57 0 0 1 -11.94-5.23l-.23 5.23 12-.71c1.91-.11 1.94-2.82 1.25-4l-11.06-18.82-2.56 3.84a14.38 14.38 0 0 1 7.22 4.69c2.54 3 5.49-.94 3.28-3.64l-9.83-12-3.27 3.64 14 13.79 3.28-3.64-9.49-9.15-2.72 4.14a107.84 107.84 0 0 1 18.66 14.46c2.78 2.71 5.79-1.12 3.28-3.64-4.66-4.67-9.29-9.36-14-14-3.68-3.65-8.89-3.05-13.87-3.6l2.22 5.07a10.93 10.93 0 0 1 8.08-5l-2.81-5.06-5.71 5.09c-2.11 1.88.69 5.11 2.8 5.06l7.57-.18-3.16-4.52a157.92 157.92 0 0 0 -8.69 50.51c0 1.52 1.71 3.58 3.39 3.16l5.12-1.3-2.81-5.06-4 4.54c-1.74 2 .83 6.28 3.42 4.84l3.38-1.88c2.77-1.54-.13-6.79-2.91-5.24l-3.38 1.88 3.42 4.84 4-4.54c1.54-1.77-.32-5.69-2.81-5.06l-5.12 1.3 3.36 3.19a150.08 150.08 0 0 1 8.23-47.79 3.35 3.35 0 0 0 -3.16-4.52l-7.57.18 2.81 5.06 5.72-5.09c2-1.75-.57-5.35-2.81-5.06a14.45 14.45 0 0 0 -10.31 6.22c-1.25 1.78-.16 4.81 2.16 5.07s4.77.36 7.09.78c2.92.52 3.78 1.43 5.9 3.55l11.17 11.2 3.28-3.6a114.47 114.47 0 0 0 -19.78-15.5c-2.87-1.78-4.93 2-2.72 4.14l9.51 9.16c2.79 2.69 5.81-1.14 3.28-3.64l-14-13.78c-2.8-2.76-5.49.92-3.27 3.63l9.82 12 3.28-3.64a19.78 19.78 0 0 0 -9.62-6.37c-2.42-.74-3.74 1.83-2.55 3.84l11.07 18.77 1.26-4-12 .71c-2.74.16-1.57 4.13-.23 5.16a31.25 31.25 0 0 0 14.48 6.28c2.57.42 2.9-3.3 1.44-4.67a24.82 24.82 0 0 0 -8.2-5.28c-3.25-1.27-3.79 3.52-1.54 5a40.5 40.5 0 0 0 18.05 6.63c2.94.34 2.88-4 .88-5.18a52.27 52.27 0 0 0 -12.74-5.42c-3.2-.87-4 3.49-1.53 5a28.84 28.84 0 0 0 15.79 4.52c3.24 0 2.82-4.57.25-5.53l-14.58-5.49-.91 5.36a226.94 226.94 0 0 0 24.14 6.66l-.4-5.7a38.55 38.55 0 0 0 -12.68-.28l1.69 5.68a49 49 0 0 1 24.37.66l.26-5.53-6-.55c-3.7-.35-2.4 5.06.39 5.7a12.09 12.09 0 0 0 10.69-2.34c2-1.61.9-5.1-1.65-5.47a148.54 148.54 0 0 0 -17.62-1.53c-3-.08-2.86 3.83-.88 5.18l5.09 3.5c2.91 2 4.68-2 2.72-4.15a30.45 30.45 0 0 0 -14.51-9.11 2.29 2.29 0 0 0 -2.87 3.1l3.38 9 4.51-1.59a86.86 86.86 0 0 0 -14.09-18.69c-2.47-2.49-5 .13-3.73 3a113.4 113.4 0 0 0 10.93 19.39c2.13 3 5.88 1.13 4.2-2.33a113.17 113.17 0 0 0 -13.29-21c-2.2-2.76-5.05.27-3.74 3l10.72 22.1c1.65 3.42 5.75 1.05 4.19-2.33a106.89 106.89 0 0 0 -14.26-22.8c-2.15-2.66-5.27.24-3.73 3l10.11 18 3.74-3-15.83-21.46a2.33 2.33 0 0 0 -4.05 2.24l6.85 18.76 4.5-1.59a153.64 153.64 0 0 0 -11.79-21.55c-2.08-3.18-5.7-1.11-4.2 2.32l8.68 19.91c1.26 2.88 5.76 1.58 4.51-1.59a137.32 137.32 0 0 0 -15.8-29.1c-1.72-2.41-4.84-.33-4 2.25q4.31 14.13 9.46 28l4.51-1.59a134.88 134.88 0 0 0 -12.93-22.77c-1.63-2.31-5.89-1.86-4.51 1.59l8.93 22.31 4.51-1.58a150.6 150.6 0 0 0 -11.9-17.54 2.32 2.32 0 0 0 -4 2.25 53.56 53.56 0 0 0 8.25 14.52c2.15 2.7 5.22-.25 3.74-3-3.15-5.8-12.79-13.95-19.38-8.18-6.39 5.6-.26 14.75 7.11 14.12 1.45-.12 2-2.11 1.57-3.26l-5-12.33-4.51 1.59c4.19 6.53 10.35 10.41 16.41 15.01s14.82 14.94 5.84 21.4l3.77 4.3a121.61 121.61 0 0 1 12.32-16.43l-4.48-3.25-1.08 5.53c-.41 2.1 1.81 4.68 4 3.66 2.49-1.18 3.55-2.81 4.22-5.43.39-1.48-1-3.89-2.7-3.88a17.91 17.91 0 0 0 -13.27 5.38l3.92 4.44 6.49-7.1-4.28-3.9-5.45 10.8c-.9 1.77.94 5.13 3.16 4.52l7.43-2.07-3.26-2.41.15 2.7 3-1.64a82.2 82.2 0 0 1 -17.24-7.77c-2.95-1.78-4.73 1.91-2.71 4.15l6.87 7.61 3.27-3.64-8-7.53-2.72 4.15a33.05 33.05 0 0 0 13.47 6c2.43.51 2.54-2.57 1.9-4a119.56 119.56 0 0 0 -10.34-18.66l-2.56 3.84 21.6 9.75c3 1.34 3.55-2.8 2.1-4.49q-8.62-10-16.28-20.77l-2.09 4.5a302.15 302.15 0 0 1 35.94 14.43c3.33 1.59 3.41-3.46 1.54-5a197.47 197.47 0 0 0 -25.93-18.17c-3.45-2-4.6 2.61-2.15 4.65a173.33 173.33 0 0 0 37.61 24c2.8 1.32 3.79-2.87 2.09-4.5q-17.19-16.43-35.89-31.17c-3.17-2.49-4.45 2.58-2.16 4.66a179.69 179.69 0 0 0 32.68 23.65c3.45 2 4.68-2.63 2.15-4.66q-14.44-11.61-29.72-22.12c-2.87-2-4.74 2-2.71 4.15a93.92 93.92 0 0 0 34.75 23.34c3.42 1.31 3.49-3.41 1.54-5l-37.58-30.87c-2.71-2.22-4.72 2.07-2.72 4.15a133.82 133.82 0 0 0 36.6 27c3.3 1.65 3.39-3.46 1.53-5l-28.46-23.77-2.15 4.66 20.09 15.71c5.34 4.17 11 10.16 18.22 10.27 3 0 2.77-3.75.88-5.18l-36.35-27.52-1.53 5c9.52 3.51 13.78 15 20.49 22a66.92 66.92 0 0 0 25.29 16.35c3.57 1.31 3.74-4.18.91-5.36l-5.17-2.14c-3.27-1.36-3.67 3.48-1.53 5a5.1 5.1 0 0 0 7.37-1.15 7.82 7.82 0 0 0 1.53-4c.13-1-.09-2.11.12-3.06s3.38-5.6 3.54-2.17l3-2.35-6.52-2.64 1 5.3 7.44-3.6-2.54-.25a89.19 89.19 0 0 0 17.17 8l.26-5.53a40.22 40.22 0 0 1 -7.58-2.28l-.26 5.53c3.79.1 7.59.07 11.39-.19 2.67-.19 6.24 0 8.54-1.52 3.33-2.19 2.31-7.32-1.34-8.5a2.41 2.41 0 0 0 -2.55 3.84l2.22 3.27 2.56-3.84q-11.7-5.88-23-12.43c-2.91-1.69-4.9 1.94-2.71 4.15l7.43 7.5 2.72-4.14-21.49-17.06c-2.42-1.92-4.46 1.31-3.18 3.5a95 95 0 0 0 15.36 19.7c2.78 2.73 5.65-1 3.28-3.64a69.18 69.18 0 0 0 -15.52-12.91c-3.06-1.86-4.51 1.87-2.72 4.15a138.13 138.13 0 0 0 15.75 16.8c2.66 2.4 4.53-2 2.72-4.15a73.63 73.63 0 0 0 -21.11-17c-2.32-1.26-3.7 2.15-2.55 3.84a51.1 51.1 0 0 0 13 13.35c2.84 2 4.78-2 2.71-4.15a110.33 110.33 0 0 0 -21.26-17c-3.15-1.93-4.33 1.87-2.71 4.15a81.69 81.69 0 0 0 14.77 15.8c3.05 2.51 4.55-2.58 2.16-4.66a110.44 110.44 0 0 0 -21.59-14.58c-3.06-1.59-3.24 2.9-2.1 4.5a91.77 91.77 0 0 0 23.21 22.6c2.84 1.9 4.87-2.1 2.72-4.1a277 277 0 0 0 -27.86-23.68c-2.44-1.81-4.52 1.26-3.18 3.49a60.71 60.71 0 0 0 25.47 23.51c2.76 1.37 3.82-2.9 2.09-4.5q-16-14.7-33.1-28.08c-2.77-2.16-4.76 2.06-2.72 4.14q15.44 15.8 29.46 32.84l3.27-3.72a230.91 230.91 0 0 0 -47.76-39.55l-.89 5.18c8.7 1 14.73 8.55 20.55 14.33l19.86 19.71 2.71-4.15c-14.76-12.88-29.81-25.7-48-33.45-3.47-1.48-3.75 4.14-.91 5.36z" fill="#7f9faf"/><path d="m315.38 81.92c8.62-4.45 17.29-8.92 26.42-12.27a88.86 88.86 0 0 1 15-4.12c.92-.17 7.53-.17 5.36-2.6.64.72 0 5.15 0 6.18l3-2.36a60.1 60.1 0 0 0 -40 2.31c-2.83 1.17-.18 5.73 2.3 5.46l21.54-2.35c5-.54 11.81.08 15.67-3.65l-4.28-3.9a12.33 12.33 0 0 0 -.39 7.8l2.22-3.28a168.87 168.87 0 0 0 -39.12 3.11c-3.29.66-1.32 6.28 1.68 5.68a162.8 162.8 0 0 1 37.83-3.08c1.91.07 2.63-1.61 2.21-3.28l.2-3.59c.83-2.33-1.9-6.2-4.28-3.9-2 1.93-6 1.6-8.53 1.88l-8.82 1-17.65 1.92 2.29 5.47a55 55 0 0 1 36.23-2.2c1.78.51 3-.51 3-2.36 0-3.21 1.07-8.54-2.48-10.37-3.94-2-11.92.8-15.86 1.82-12.86 3.33-24.76 9.41-36.5 15.47-2.81 1.45.08 6.71 2.91 5.25z" fill="#48606d"/><path d="m311.92 84.2c3.57 0 2.64-5.7-.4-5.7-3.57 0-2.64 5.7.4 5.7z" fill="#48606d"/><path d="m249 88.7a187.53 187.53 0 0 1 17.83 25.82c1 1.67 3.31 2.49 4.41.51a58.4 58.4 0 0 1 31.81-26.73c2.48-.85 2.07-4.77-.39-5.52a91.92 91.92 0 0 0 -51.66-.66c-2.59.72-1.77 3.82-.24 5.17a71.29 71.29 0 0 1 15.29 19.13l4.2-2.33-10.12-16.47-.64 3.79c3.67-2.33 9.67-1.86 13.9-2.07 5.67-.28 11.34-.22 17 .06l-1-5.7-27.75 5.14c-3.09.57-1.52 5.46 1 5.69a90.06 90.06 0 0 0 22.13-.68l-2.29-5.47-19.33 7.12 4 2.94.61-1.52-4.06-1.06a31.09 31.09 0 0 1 3.62 9.91c.35 1.83 2.9 3.32 4.37 1.79l8.73-9c1.64-1.7-.39-5.74-2.81-5.06a18.37 18.37 0 0 0 -7.38 4c-2.29 1.94 1 5.73 3.42 4.84a10.89 10.89 0 0 0 4.83-3.41c1.74-2-.8-6.24-3.41-4.84a4.34 4.34 0 0 1 -3.63.67c-3.53-.44-2.62 5.33.39 5.71a9.68 9.68 0 0 0 6.17-1.23l-3.42-4.85a8.28 8.28 0 0 1 -3.82 2.6l3.41 4.85a12.37 12.37 0 0 1 5.15-2.71l-2.8-5.06-8.73 9.05 4.37 1.8a35.67 35.67 0 0 0 -4.25-11.38c-.75-1.32-2.78-2.5-4.05-1.06a6.53 6.53 0 0 0 -1.78 5.32 3.09 3.09 0 0 0 4 2.94l19.34-7.11c2.79-1 .23-5.85-2.29-5.46a85 85 0 0 1 -20.84.66l1 5.69 27.75-5.14c3-.56 1.57-5.56-1-5.69-6.11-.3-12.22-.33-18.32 0-4.78.24-10.92-.16-15.12 2.5a2.81 2.81 0 0 0 -.65 3.79l10.14 16.47c2 3.18 6 1 4.2-2.33a80.2 80.2 0 0 0 -17.33-21.46l-.23 5.17a87.49 87.49 0 0 1 49 .34l-.39-5.52a63 63 0 0 0 -34.8 29.06l4.41.51a196.32 196.32 0 0 0 -18.75-27.13c-2.49-3-5.49.94-3.27 3.64z" fill="#48606d"/><path d="m234 97.66q5.19 8.34 11 16.27c2.47 3.38 5.52 9.36 10.39 9.27 2.68 0 2.76-2.93 1.44-4.67l-18.38-24.1a2.46 2.46 0 0 0 -3.6-.4 56.78 56.78 0 0 0 -18.41 29.38c-.58 2.21 1.89 4.49 4 3.66a73.64 73.64 0 0 1 29.38-5.25c3.58.09 2.64-5.48-.39-5.71a171.1 171.1 0 0 0 -27.54.16l2.3 5.47a80.92 80.92 0 0 1 18-4.93c3.4-.53 1.23-5.83-1.69-5.68l-13.15.69c-3 .15-1.58 5.64 1 5.69a50.68 50.68 0 0 0 14.08-1.66c2.44-.65 2-3.95.23-5.17-3.36-2.37-4.41-5.3-6.68-8.41a2.78 2.78 0 0 0 -2.48-1c-3.35.39-5.55 5.47-6.78 8.13-.91 2 1.45 5.84 3.77 4.3a29.77 29.77 0 0 0 8.7-8.83l-4.41-.52 6.6 9.94 3.74-3-3.94-5.2-3.28 3.64a31.78 31.78 0 0 1 4.23 6.14l1.25-4a9.88 9.88 0 0 1 -7.87-3.14l-2.09 4.5 10 3.79c3.53 1.34 3.81-4.26.91-5.36l-10-3.79c-2.88-1.09-3.79 2.75-2.1 4.5a16 16 0 0 0 12.84 5.18c2-.07 1.87-2.85 1.26-4a38.7 38.7 0 0 0 -5.15-7.46c-2.64-3-5.35.91-3.28 3.64l3.94 5.2c2 2.67 5.51-.32 3.74-3l-6.58-9.93c-1.11-1.68-3.14-2.46-4.41-.52a23.68 23.68 0 0 1 -7 6.94l3.77 4.31c.6-1.29 2.34-5.64 3.84-5.81l-2.48-1c2.6 3.57 4 6.77 7.79 9.43l.24-5.17a45.63 45.63 0 0 1 -12.79 1.63l1.05 5.69 13.15-.68-1.69-5.68a87.18 87.18 0 0 0 -19.23 5.36c-2.88 1.16-.14 5.67 2.3 5.46a161.9 161.9 0 0 1 26.24-.13l-.39-5.71a79.66 79.66 0 0 0 -31.9 5.71l4 3.66a52.65 52.65 0 0 1 17.31-27l-3.6-.4q9.2 12 18.38 24.1l1.42-4.69c-3.06 0-7.94-8.86-9.53-11.14-2.51-3.61-4.89-7.29-7.2-11-2-3.18-6.19-.89-4.19 2.33z" fill="#48606d"/><path d="m291.48 83.34h-.32a1.48 1.48 0 0 0 -1 .13 1.38 1.38 0 0 0 -.81.51 1.72 1.72 0 0 0 -.46.86 2.16 2.16 0 0 0 -.13 1l.14.74a3.63 3.63 0 0 0 .77 1.4l.56.51a2.79 2.79 0 0 0 1.27.52h.33a1.55 1.55 0 0 0 .95-.12 1.52 1.52 0 0 0 .81-.51 1.66 1.66 0 0 0 .45-.87 2.12 2.12 0 0 0 .14-1l-.14-.75a3.73 3.73 0 0 0 -.77-1.39l-.56-.51a2.84 2.84 0 0 0 -1.28-.53z" fill="#48606d"/><path d="m149.73 172.77a34.14 34.14 0 0 1 9.49 4.13c1.65 1 3.92.23 3.63-2-1.33-10.21 10.42-20.83 17.27-27.06 7.68-7 16.1-13.75 26.3-16.48 3.24-.86 1.32-6.26-1.69-5.68a87.3 87.3 0 0 0 -35 15.07c-9.33 6.83-19.27 15.85-22 27.53a3.48 3.48 0 0 0 2.71 3.88l7.36 1.68c2.3.52 2.71-2.6 1.9-4-2.7-4.76 4-11.11 6.87-14.26a84.94 84.94 0 0 1 11.24-10.37l-3.42-4.85-22 27 4.06 1.06.6-.66c2.74-1.61-.17-6.85-2.9-5.25-3.15 1.85-3.54 5.16-1.9 8.24.69 1.29 2.85 2.53 4.06 1.05l22-27c1.58-1.93-1-6.69-3.41-4.84a85.61 85.61 0 0 0 -16.79 16.63c-3.46 4.71-5.7 10.11-2.6 15.58l1.9-4-7.36-1.67 2.71 3.88c2.55-11.05 13.49-20.13 22.48-26.19a84.06 84.06 0 0 1 31.15-12.79l-1.69-5.68c-11.62 3.11-21.15 10.82-29.8 18.89-7.64 7.12-18.66 18.23-17.17 29.69l3.62-2a42.87 42.87 0 0 0 -12-5.19c-3.38-.89-2.49 4.95.39 5.71z" fill="#48606d"/><path d="m366.8 279.85a47.56 47.56 0 0 1 4.47 7.61c1.35 2.82 5.69 1.63 4.51-1.59l-3.95-10.78-4.51 1.59 6.43 9.7c2.05 3.1 5.93 1.08 4.19-2.32a114.66 114.66 0 0 1 -5.23-11.78l-4.51 1.59c4.94 7.87 11.15 18.77 5.53 27.92-2.65 4.33-7.93 7.2-13 5.3-4.49-1.7-7.16-6.25-8.62-10.57l-3.49 2.75c5.3 4.57 12.5 9.85 19.84 6.59 6-2.67 7.8-9.59 8.4-15.56l-5.01-1.3c1 5.86.07 12.68-5.84 15.64-6.3 3.14-11.85-2-16-6.21l-2.72 4.15 8.2 6.42c2.85 2.22 4.53-2 2.72-4.15s-3.95-4.45-6.08-6.55-4.76-.6-4 2.25c1.69 6.73 8.66 13.56 15.84 13 3.33-.25 1.3-5.81-1.69-5.68-1.09.05-9.32-1.23-8.74-3.39l-1.67 1.8h.57c3.29-.27 1.35-5.93-1.69-5.68h-.57c-1 .08-1.44 1-1.66 1.81-2.06 7.58 10 11.37 15.45 11.14l-1.69-5.68c-4 .29-8.4-4.53-9.33-8.21l-4 2.24q3.18 3.15 6.07 6.55l2.72-4.15-8.2-6.42c-2.75-2.15-4.78 2.08-2.72 4.15 5.49 5.52 12.62 11.62 20.9 8.39s10.74-12.75 9.33-20.82c-.4-2.28-4.68-5.13-5.06-1.36-.44 4.37-1.33 10.13-5.87 12.11-5.74 2.51-11.1-2.19-15.19-5.72-1.95-1.68-4.21.63-3.49 2.75 3.72 11 15.65 21.79 26.89 12.64 12.47-10.15 5-27.53-1.83-38.47-1.57-2.5-5.78-1.77-4.51 1.59a128.19 128.19 0 0 0 5.86 13.25l4.19-2.32-6.42-9.71c-1.61-2.43-5.76-1.83-4.51 1.59l3.89 10.77 4.51-1.59a55.44 55.44 0 0 0 -5.4-8.92c-2.31-3.17-5.31.84-3.27 3.64z" fill="#48606d"/><path d="m345 303.78a29.55 29.55 0 0 0 10.61 9.75c3.26 1.73 8.75 4.14 11.57.43 1.84-2.43-1.92-7.08-3.92-4.44-1.56 2-6.44-1.11-7.95-2.1a21.45 21.45 0 0 1 -6.11-6c-2.09-3.06-6.34-.81-4.2 2.33z" fill="#48606d"/><path d="m241.4 93.2 14.73 22.25c1.65 2.5 5.51 1.86 4.51-1.59a37 37 0 0 0 -7.56-14 2.39 2.39 0 1 0 -3.74 3l90.43 129.92 3.73-3-21.37-30.06c-2.27-3.2-5.28.83-3.28 3.64l21.38 30.06c1.93 2.72 5.57-.35 3.74-3l-90.43-129.89-3.74 3a29 29 0 0 1 6 11.2l4.51-1.59-14.72-22.26c-2.05-3.1-6.29-.84-4.19 2.32z" fill="#969797"/><path d="m206.7 230c-.23-2.43-4.1-3.4-3.82-.48a34.16 34.16 0 0 0 3.29 11.63c1.24 2.56 4.37.79 3.15-1.74a27.59 27.59 0 0 1 -2.62-9.41z" fill="#36364a"/><path d="m243.8 221.4c-1.22-2.56-4.36-.79-3.15 1.74l5.35 11.19c1.22 2.55 4.35.78 3.15-1.75z" fill="#36364a"/><path d="m373.07 261.44c2.37-10.93-.42-23.35-10.3-29.64a17.26 17.26 0 0 0 -9.77-2.8c.68-8.51-7.16-16-15.76-15.15q-32-47.07-65.29-93.3c0-.06.07-.1.1-.17 3.86-8.28 11.6-14.68 18.7-20.14a159.35 159.35 0 0 1 19.25-12.84c16.27-9.13 38.83-12 57.15-9.48 1.14.16 1.8-.88 1.77-1.9-.14-4.1.84-11.94 3.33-15.38 0 0 0-.07.05-.1a2.25 2.25 0 0 0 .1-3.27c-32.89-33.87-82.48-57.12-130.29-50.89a113.39 113.39 0 0 0 -34.29 10.1c-2.82-3.75-7.82-8.48-12.82-5.32-4.68 2.91-2.24 8.69.31 12.41a103 103 0 0 0 -14.64 11.71c-16.52 16-27.75 36.85-34.54 58.65-3.72 12-6.64 24.63-7.38 37.16-.84 14 2.33 28 4.84 41.72a3.46 3.46 0 0 0 2.79 3.35c5.71-.5 11.62 3.21 15.36 7.23 2.07 2.23 3.91-.66 2.46-2.73-.94-1.33 2.21-7.42 3.07-9.18a75.39 75.39 0 0 1 5.77-10c5.7-8.14 14.21-15.05 22.43-20.47a94.08 94.08 0 0 1 65.53-14.45 1.77 1.77 0 0 0 .78 0q33.56 46.56 65.86 94c-7.4 11.21-11.35 24.76-19.48 35.39 11-28.34-1-66.64-27.27-82.18-21.32-12.63-50.33-15.13-72.72-3.79-23.08 11.69-38.78 37.88-36.27 63.91 2.61 27.1 25.72 50.83 52.93 53-3.79 17.83-10.65 34.91-17.7 51.67-6.76 16.07-13.29 31.62-27.11 43a54.27 54.27 0 0 1 -22.11 11.23c-7.38 1.7-14.75.69-22.21 1.19-5.79.39-12 2.06-14.91 7.55-3.76 7-2.19 17.6-1.09 25 .85 5.76 1.62 18.28 8.77 20.22 8.47 2.3 9.33-9.48 11.83-14.77 26.65 1 56.86-1.09 83.23-10.64a193 193 0 0 1 4.6 25c.88 8.6.06 16.84-.43 25.42-.34 6 .65 12.13 5.7 16 5.25 4 12.79 4.15 19 4.95 4.53.59 9.06 1.31 13.61 1.75 2.55.25 5.42.44 7.73-.87 4.46-2.51 3.22-7.86.09-10.91-1.92-1.86-5.29-2.58-6.29-5.1-1.5-3.78.87-9.11 1.71-12.86 2-9.07 3.91-18.18 5.42-27.35 3.3-19.91 4.92-40.09 3.61-60.25 4.07-7.42 7.16-15.46 10.13-23.34a115.24 115.24 0 0 0 7.1-31.19 2.07 2.07 0 0 0 0-.5c14-.26 27.21-5.93 38.84-14.24 2.56-1.83 5.14-3.78 7.7-5.84a2.56 2.56 0 0 0 .5 1.56c4.86 6.59 12 15.22 20.91 15.44 7.82.19 16.67-4.81 21.63-10.65 13.5-15.83-2.28-33.88-12.02-46.92zm-29.18-28.2c-.63.71-1.23 1.44-1.82 2.19q-49.41-73.3-101.78-144.54 1.8-1.4 3.71-2.65 52 70.83 101.19 143.76a13.83 13.83 0 0 0 -1.3 1.24zm4.9-3.41c-.19.07-.39.14-.58.23q-4-6-8.1-12c5.77.51 10.32 5.67 8.68 11.77zm-62.3-132c-6.59 5.24-13.44 11.2-17.36 18.8q-11-15.21-22.07-30.31l.68-.41c17.37-9.67 38.78-9.77 56.57-1.21a1.55 1.55 0 0 0 1.23 0 163.7 163.7 0 0 0 -19.05 13.16zm78.51-24.4c-18.66-2.24-40.93.86-57.27 10l-1.81 1a.67.67 0 0 0 .16-.12c15.6-15.95 39.13-24.14 61.35-23.75a38.6 38.6 0 0 0 -2.43 12.87zm-166.71-58.81c2.68-.6 4.69 1.5 6.25 3.5-2.11 1.1-4.18 2.28-6.22 3.52-1.55-2.12-3.81-6.19-.03-7.02zm-51.1 90.38c5.48-21.72 15.19-42.8 30.05-59.73 31.42-35.82 81.8-43 125.41-27.84a173.92 173.92 0 0 1 63.56 38.87c-22.55-.2-46.13 8-62.21 23.93-18.45-8.5-40.57-8.2-58.44 1.76a65.46 65.46 0 0 0 -31.44 42.28c-28.27-4.34-58.65 13.56-68.32 40.41a176.51 176.51 0 0 1 -3.33-26.08c-.38-11.21 1.98-22.73 4.72-33.6zm40.44 36.09c-8.08 6.17-15.5 13.25-20.7 22-2.05 3.48-5.74 9.09-6.43 14.14a24 24 0 0 0 -12.62-5.39c6.57-27 35.33-45.91 62.7-43.78a96.31 96.31 0 0 0 -22.95 13.05zm30.37-15.56a62.63 62.63 0 0 1 19.55-32.36q10.56 14.35 21 28.82a97.88 97.88 0 0 0 -40.55 3.54zm52.83 311.24c-1.7 10.11-3.81 20.15-6.12 30.14-1.13 4.87-2.74 11.54 1.62 15.46a12 12 0 0 0 2.53 1.51q4.29 1.22 1.57 6.24a10.88 10.88 0 0 1 -3.37.19c-4.95-.25-10-1.24-14.88-1.87-4.52-.59-9.6-.73-13.88-2.45-5.93-2.37-7.07-7.39-6.74-13.19.52-9.07 1.33-17.73.34-26.84a211.65 211.65 0 0 0 -4.9-25.96c19.22-7.55 36.14-19.32 47.82-37.13a268.76 268.76 0 0 1 -4.03 53.9zm12.67-120c-2.59-.53-1.92 3.82.29 4.28a53.27 53.27 0 0 0 7.94 1c-1.67 17.9-7.86 35.65-16.25 51.51a85.43 85.43 0 0 1 -28.16 30.78c-21.77 14.59-48.36 20.56-74.15 22.71a279.12 279.12 0 0 1 -34.22.67 1.6 1.6 0 0 0 -1.59.88c-2 3.28-2 6.82-3.53 10.26a6.44 6.44 0 0 1 -1.95 2.65l-.79.72-4.75-2.8c-1.15-1.42-1.34-4.88-1.74-6.71a84.35 84.35 0 0 1 -1.88-13.72c-.23-4.34-.72-9.54.91-13.64 2.87-7.2 11.79-7.27 18.31-7.23 6.33 0 12.44.16 18.63-1.44 12.6-3.26 23.55-11.32 31.78-21.23 9.37-11.27 14.41-25.13 20-38.51 6.75-16.28 13.16-32.91 16.64-50.24 1.19-.89.65-3.37-.86-3.87a1.73 1.73 0 0 0 -2.06-.17c-23.39-1.23-44-19.21-49.27-42-5.67-24.29 7.51-50.37 27.94-63.58 19.81-12.81 46.39-12.78 67.61-3.44 18.82 8.29 30.1 24.08 34.28 43.91 4.58 21.78-.54 46-20.24 58.62-2 1.29.19 5.21 2.18 3.94a49 49 0 0 0 12.17-11 1.4 1.4 0 0 0 .44-.22c7.23-5.17 12.41-12.55 16.79-20.18 4.52-7.88 7.45-16.69 12.33-24.33q4.78 7 9.55 14.11c-4.55 6.55-8.14 13.92-13.22 20.08-13.07 15.88-28.9 28.88-50.13 30.34-2.47.17-1 4.42 1.26 4.26 13.64-.94 25.75-6.41 36.18-15.14a121 121 0 0 0 17.3-18.19c5.47-7 9.29-15.06 14.67-22.07 6.56-8.54 17.39-3.49 21.62 4.57 3.56 6.78 3.42 15.17.46 22.12-6.24 14.66-20 27.42-32.42 37-15.08 11.53-32.91 19.2-52.11 15.25zm79.74-36.06c2 4.21 6.25 8 5.33 12.82a6.39 6.39 0 0 1 -8.12 5.08c-3.28-1-5.08-4.37-6.46-7.25a105.62 105.62 0 0 0 9.21-10.7zm19 24.37a28.92 28.92 0 0 1 -16.49 9.41c-9.1 1.49-15.81-7-20.65-13.6a2.22 2.22 0 0 0 -.72-.67c2.37-2 4.7-4.06 6.95-6.22 3.34 6.18 10.5 12.79 17.42 7.26 3.28-2.62 4.3-7 3.5-11-.92-4.62-4.77-7.57-6.06-12a2.39 2.39 0 0 0 -.53-1 73.44 73.44 0 0 0 4.63-7.78 33.1 33.1 0 0 0 1.62-3.75c8.42 11.1 21.37 26.27 10.26 39.27z" fill="#36364a"/></svg>