<svg xmlns="http://www.w3.org/2000/svg" width="147" height="180" fill="none" viewBox="0 0 147 180"><g clip-path="url(#clip0_24_7689)"><path fill="#FF577F" d="M24.22 177.41C21.7651 177.913 19.216 177.677 16.8952 176.732C14.5743 175.787 12.586 174.174 11.1816 172.099C9.77721 170.023 9.01988 167.578 9.00536 165.072C8.99083 162.566 9.71976 160.112 11.1 158.02C17.5 148.31 26.21 146.46 31.41 145.35C35.16 144.56 35.23 144.44 35.84 143.53C36.45 142.62 36.52 142.53 35.77 138.73C34.77 133.52 33.02 124.78 39.42 115.08C45.82 105.38 54.53 103.52 59.73 102.41C63.48 101.62 63.56 101.5 64.16 100.58C64.76 99.66 64.84 99.58 64.1 95.79C63.1 90.57 61.34 81.84 67.74 72.14C74.14 62.44 82.85 60.58 88.05 59.47C91.8 58.67 91.88 58.56 92.48 57.64C93.08 56.72 93.16 56.64 92.42 52.85C91.42 47.63 89.66 38.9 96.07 29.19C102.48 19.48 111.17 17.63 116.38 16.53C120.13 15.73 120.2 15.61 120.81 14.69C122.667 11.884 125.562 9.93047 128.859 9.25909C132.155 8.58771 135.584 9.25353 138.39 11.11C141.196 12.9666 143.15 15.8617 143.821 19.1586C144.492 22.4555 143.827 25.884 141.97 28.69C135.57 38.39 126.86 40.25 121.65 41.36C117.91 42.15 117.83 42.27 117.22 43.19C116.61 44.11 116.54 44.19 117.29 47.98C118.29 53.2 120.04 61.98 113.64 71.64C107.24 81.3 98.55 83.16 93.33 84.26C89.58 85.06 89.5 85.18 88.9 86.09C88.3 87 88.22 87.09 88.96 90.88C89.96 96.1 91.72 104.88 85.32 114.54C78.92 124.2 70.21 126.1 65 127.2C61.26 128 61.18 128.12 60.58 129.03C59.98 129.94 59.9 130.03 60.64 133.82C61.64 139.04 63.39 147.82 56.99 157.48C50.59 167.14 41.89 169.04 36.68 170.14C32.93 170.94 32.86 171.06 32.26 171.97C31.3441 173.362 30.1623 174.558 28.7826 175.492C27.4029 176.425 25.8523 177.077 24.22 177.41V177.41Z"/><path stroke="#06283D" stroke-linecap="round" stroke-linejoin="round" stroke-width="4" d="M24.22 177.41C21.7651 177.913 19.216 177.677 16.8952 176.732C14.5743 175.787 12.586 174.174 11.1816 172.099C9.77721 170.023 9.01988 167.578 9.00536 165.072C8.99083 162.566 9.71976 160.112 11.1 158.02C17.5 148.31 26.21 146.46 31.41 145.35C35.16 144.56 35.23 144.44 35.84 143.53C36.45 142.62 36.52 142.53 35.77 138.73C34.77 133.52 33.02 124.78 39.42 115.08C45.82 105.38 54.53 103.52 59.73 102.41C63.48 101.62 63.56 101.5 64.16 100.58C64.76 99.66 64.84 99.58 64.1 95.79C63.1 90.57 61.34 81.84 67.74 72.14C74.14 62.44 82.85 60.58 88.05 59.47C91.8 58.67 91.88 58.56 92.48 57.64C93.08 56.72 93.16 56.64 92.42 52.85C91.42 47.63 89.66 38.9 96.07 29.19C102.48 19.48 111.17 17.63 116.38 16.53C120.13 15.73 120.2 15.61 120.81 14.69C122.667 11.884 125.562 9.93047 128.859 9.25909C132.155 8.58771 135.584 9.25353 138.39 11.11C141.196 12.9666 143.15 15.8617 143.821 19.1586C144.492 22.4555 143.827 25.884 141.97 28.69C135.57 38.39 126.86 40.25 121.65 41.36C117.91 42.15 117.83 42.27 117.22 43.19C116.61 44.11 116.54 44.19 117.29 47.98C118.29 53.2 120.04 61.98 113.64 71.64C107.24 81.3 98.55 83.16 93.33 84.26C89.58 85.06 89.5 85.18 88.9 86.09C88.3 87 88.22 87.09 88.96 90.88C89.96 96.1 91.72 104.88 85.32 114.54C78.92 124.2 70.21 126.1 65 127.2C61.26 128 61.18 128.12 60.58 129.03C59.98 129.94 59.9 130.03 60.64 133.82C61.64 139.04 63.39 147.82 56.99 157.48C50.59 167.14 41.89 169.04 36.68 170.14C32.93 170.94 32.86 171.06 32.26 171.97C31.3441 173.362 30.1623 174.558 28.7826 175.492C27.4029 176.425 25.8523 177.077 24.22 177.41V177.41Z"/><path fill="#F1D624" d="M17.22 170.41C14.7651 170.913 12.216 170.677 9.89516 169.732C7.57432 168.787 5.58598 167.174 4.18159 165.099C2.77721 163.023 2.01988 160.578 2.00536 158.072C1.99083 155.566 2.71976 153.112 4.09999 151.02C10.5 141.31 19.21 139.46 24.41 138.35C28.16 137.56 28.23 137.44 28.84 136.53C29.45 135.62 29.52 135.53 28.77 131.73C27.77 126.52 26.02 117.78 32.42 108.08C38.82 98.38 47.53 96.52 52.73 95.41C56.48 94.62 56.56 94.5 57.16 93.58C57.76 92.66 57.84 92.58 57.1 88.79C56.1 83.57 54.34 74.84 60.74 65.14C67.14 55.44 75.85 53.58 81.05 52.47C84.8 51.67 84.88 51.56 85.48 50.64C86.08 49.72 86.16 49.64 85.42 45.85C84.42 40.63 82.66 31.9 89.07 22.19C95.48 12.48 104.17 10.63 109.38 9.53002C113.13 8.73002 113.2 8.61003 113.81 7.69003C115.667 4.88404 118.562 2.93047 121.859 2.25909C125.155 1.58771 128.584 2.25353 131.39 4.11004C134.196 5.96656 136.15 8.8617 136.821 12.1586C137.492 15.4555 136.827 18.884 134.97 21.69C128.57 31.39 119.86 33.25 114.65 34.36C110.91 35.15 110.83 35.27 110.22 36.19C109.61 37.11 109.54 37.19 110.29 40.98C111.29 46.2 113.04 54.98 106.64 64.64C100.24 74.3 91.55 76.16 86.33 77.26C82.58 78.06 82.5 78.18 81.9 79.09C81.3 80 81.22 80.09 81.96 83.88C82.96 89.1 84.72 97.88 78.32 107.54C71.92 117.2 63.21 119.1 58 120.2C54.26 121 54.18 121.12 53.58 122.03C52.98 122.94 52.9 123.03 53.64 126.82C54.64 132.04 56.39 140.82 49.99 150.48C43.59 160.14 34.89 162.04 29.68 163.14C25.93 163.94 25.86 164.06 25.26 164.97C24.3441 166.362 23.1623 167.558 21.7826 168.492C20.4029 169.425 18.8523 170.077 17.22 170.41V170.41Z"/><path stroke="#06283D" stroke-linecap="round" stroke-linejoin="round" stroke-width="4" d="M17.22 170.41C14.7651 170.913 12.216 170.677 9.89516 169.732C7.57432 168.787 5.58598 167.174 4.18159 165.099C2.77721 163.023 2.01988 160.578 2.00536 158.072C1.99083 155.566 2.71976 153.112 4.09999 151.02C10.5 141.31 19.21 139.46 24.41 138.35C28.16 137.56 28.23 137.44 28.84 136.53C29.45 135.62 29.52 135.53 28.77 131.73C27.77 126.52 26.02 117.78 32.42 108.08C38.82 98.38 47.53 96.52 52.73 95.41C56.48 94.62 56.56 94.5 57.16 93.58C57.76 92.66 57.84 92.58 57.1 88.79C56.1 83.57 54.34 74.84 60.74 65.14C67.14 55.44 75.85 53.58 81.05 52.47C84.8 51.67 84.88 51.56 85.48 50.64C86.08 49.72 86.16 49.64 85.42 45.85C84.42 40.63 82.66 31.9 89.07 22.19C95.48 12.48 104.17 10.63 109.38 9.53002C113.13 8.73002 113.2 8.61003 113.81 7.69003C115.667 4.88404 118.562 2.93047 121.859 2.25909C125.155 1.58771 128.584 2.25353 131.39 4.11004C134.196 5.96656 136.15 8.8617 136.821 12.1586C137.492 15.4555 136.827 18.884 134.97 21.69C128.57 31.39 119.86 33.25 114.65 34.36C110.91 35.15 110.83 35.27 110.22 36.19C109.61 37.11 109.54 37.19 110.29 40.98C111.29 46.2 113.04 54.98 106.64 64.64C100.24 74.3 91.55 76.16 86.33 77.26C82.58 78.06 82.5 78.18 81.9 79.09C81.3 80 81.22 80.09 81.96 83.88C82.96 89.1 84.72 97.88 78.32 107.54C71.92 117.2 63.21 119.1 58 120.2C54.26 121 54.18 121.12 53.58 122.03C52.98 122.94 52.9 123.03 53.64 126.82C54.64 132.04 56.39 140.82 49.99 150.48C43.59 160.14 34.89 162.04 29.68 163.14C25.93 163.94 25.86 164.06 25.26 164.97C24.3441 166.362 23.1623 167.558 21.7826 168.492C20.4029 169.425 18.8523 170.077 17.22 170.41V170.41Z"/></g><defs><clipPath id="clip0_24_7689"><rect width="146.06" height="179.67" fill="#fff"/></clipPath></defs></svg>